IBM Plex Devanagari-Thin.ufo
<glyph name="dvAA" format="1">
  <advance width="1138"/>
  <unicode hex="0906"/>
  <outline>
    <contour>
      <point x="264" y="66" type="curve" smooth="yes"/>
      <point x="382" y="66"/>
      <point x="443" y="140"/>
      <point x="443" y="236" type="curve" smooth="yes"/>
      <point x="443" y="253"/>
      <point x="441" y="268"/>
      <point x="437" y="282" type="curve"/>
      <point x="658" y="282" type="line"/>
      <point x="658" y="0" type="line"/>
      <point x="679" y="0" type="line"/>
      <point x="679" y="679" type="line"/>
      <point x="973" y="679" type="line"/>
      <point x="973" y="0" type="line"/>
      <point x="994" y="0" type="line"/>
      <point x="994" y="679" type="line"/>
      <point x="1158" y="679" type="line"/>
      <point x="1158" y="698" type="line"/>
      <point x="518" y="698" type="line"/>
      <point x="518" y="679" type="line"/>
      <point x="658" y="679" type="line"/>
      <point x="658" y="301" type="line"/>
      <point x="430" y="301" type="line"/>
      <point x="408" y="352"/>
      <point x="359" y="381"/>
      <point x="300" y="390" type="curve"/>
      <point x="300" y="392" type="line"/>
      <point x="379" y="414"/>
      <point x="421" y="462"/>
      <point x="421" y="542" type="curve" smooth="yes"/>
      <point x="421" y="628"/>
      <point x="359" y="687"/>
      <point x="259" y="687" type="curve" smooth="yes" name="hr01"/>
      <point x="187" y="687"/>
      <point x="136" y="654"/>
      <point x="103" y="610" type="curve"/>
      <point x="120" y="597" type="line"/>
      <point x="150" y="639"/>
      <point x="198" y="668"/>
      <point x="260" y="668" type="curve" smooth="yes"/>
      <point x="348" y="668"/>
      <point x="399" y="616"/>
      <point x="399" y="547" type="curve" smooth="yes"/>
      <point x="399" y="535" type="line" smooth="yes"/>
      <point x="399" y="462"/>
      <point x="347" y="400"/>
      <point x="233" y="400" type="curve" smooth="yes"/>
      <point x="165" y="400" type="line"/>
      <point x="165" y="381" type="line"/>
      <point x="234" y="381" type="line" smooth="yes"/>
      <point x="362" y="381"/>
      <point x="421" y="321"/>
      <point x="421" y="246" type="curve" smooth="yes"/>
      <point x="421" y="226" type="line" smooth="yes"/>
      <point x="421" y="152"/>
      <point x="369" y="85"/>
      <point x="264" y="85" type="curve" smooth="yes"/>
      <point x="182" y="85"/>
      <point x="124" y="124"/>
      <point x="85" y="179" type="curve"/>
      <point x="70" y="166" type="line"/>
      <point x="114" y="106"/>
      <point x="176" y="66"/>
    </contour>
    <contour>
      <point x="841.0" y="696.0" type="move" name="center_deva"/>
    </contour>
    <contour>
      <point x="994.0" y="696.0" type="move" name="top_deva"/>
    </contour>
  </outline>
</glyph>
<glyph name="dvvR" format="1">
  <advance width="864"/>
  <unicode hex="090B"/>
  <outline>
    <contour>
      <point x="137" y="105" type="line" name="hr00"/>
      <point x="366" y="248" type="line"/>
      <point x="437" y="296" type="line"/>
      <point x="438" y="296" type="line"/>
      <point x="436" y="166" type="line"/>
      <point x="436" y="0" type="line"/>
      <point x="457" y="0" type="line"/>
      <point x="457" y="166" type="line"/>
      <point x="456" y="308" type="line"/>
      <point x="623" y="417" type="line"/>
      <point x="692" y="462" type="line"/>
      <point x="693" y="461" type="line"/>
      <point x="688" y="447"/>
      <point x="682" y="425"/>
      <point x="682" y="399" type="curve" smooth="yes"/>
      <point x="682" y="343"/>
      <point x="711" y="299"/>
      <point x="761" y="277" type="curve"/>
      <point x="761" y="275" type="line"/>
      <point x="692" y="267"/>
      <point x="641" y="221"/>
      <point x="641" y="152" type="curve" smooth="yes"/>
      <point x="641" y="85"/>
      <point x="688" y="43"/>
      <point x="774" y="43" type="curve" smooth="yes"/>
      <point x="818" y="43" type="line"/>
      <point x="818" y="60" type="line"/>
      <point x="770" y="60" type="line" smooth="yes"/>
      <point x="696" y="60"/>
      <point x="660" y="95"/>
      <point x="660" y="151" type="curve" smooth="yes"/>
      <point x="660" y="217"/>
      <point x="706" y="263"/>
      <point x="803" y="263" type="curve" smooth="yes"/>
      <point x="816" y="263" type="line"/>
      <point x="816" y="282" type="line"/>
      <point x="808" y="282" type="line" smooth="yes"/>
      <point x="752" y="282"/>
      <point x="700" y="327"/>
      <point x="700" y="397" type="curve" smooth="yes"/>
      <point x="700" y="439"/>
      <point x="708" y="474"/>
      <point x="730" y="489" type="curve" smooth="yes"/>
      <point x="737" y="494" type="line"/>
      <point x="729" y="506" type="line"/>
      <point x="516" y="368" type="line"/>
      <point x="458" y="330" type="line"/>
      <point x="456" y="330" type="line"/>
      <point x="456" y="337" type="line"/>
      <point x="457" y="473" type="line"/>
      <point x="457" y="679" type="line"/>
      <point x="884" y="679" type="line"/>
      <point x="884" y="698" type="line"/>
      <point x="-20" y="698" type="line"/>
      <point x="-20" y="679" type="line"/>
      <point x="436" y="679" type="line"/>
      <point x="436" y="473" type="line"/>
      <point x="439" y="339" type="line"/>
      <point x="437" y="338" type="line"/>
      <point x="350" y="394" type="line"/>
      <point x="282" y="436" type="line" smooth="yes"/>
      <point x="248" y="457"/>
      <point x="229" y="465"/>
      <point x="202" y="465" type="curve" smooth="yes"/>
      <point x="180" y="465"/>
      <point x="158" y="457"/>
      <point x="115" y="430" type="curve" smooth="yes"/>
      <point x="46" y="386" type="line"/>
      <point x="58" y="369" type="line"/>
      <point x="125" y="413" type="line" smooth="yes"/>
      <point x="160" y="436"/>
      <point x="180" y="446"/>
      <point x="203" y="446" type="curve" smooth="yes"/>
      <point x="226" y="446"/>
      <point x="245" y="438"/>
      <point x="274" y="420" type="curve" smooth="yes"/>
      <point x="340" y="379" type="line"/>
      <point x="439" y="319" type="line"/>
      <point x="439" y="317" type="line"/>
      <point x="337" y="252" type="line"/>
      <point x="125" y="121" type="line"/>
    </contour>
    <contour>
      <point x="446.0" y="696.0" type="move" name="center_deva"/>
    </contour>
    <contour>
      <point x="457.0" y="696.0" type="move" name="top_deva"/>
    </contour>
  </outline>
</glyph>
<glyph name="dvOcandra" format="1">
  <advance width="1088"/>
  <unicode hex="0911"/>
  <outline>
    <component base="dvAA"/>
    <component base="dvmEcandra" xOffset="1113"/>
    <contour>
      <point x="823.0" y="696.0" type="move" name="_center_deva"/>
    </contour>
    <contour>
      <point x="841.0" y="696.0" type="move" name="center_deva"/>
    </contour>
    <contour>
      <point x="842.0" y="757.0" type="move" name="top_deva"/>
    </contour>
  </outline>
</glyph>
<glyph name="dvGA" format="1">
  <advance width="612"/>
  <unicode hex="0917"/>
  <outline>
    <contour>
      <point x="158" y="307" type="curve" smooth="yes" name="hr00"/>
      <point x="163" y="307"/>
      <point x="170" y="308"/>
      <point x="173" y="309" type="curve"/>
      <point x="173" y="679" type="line"/>
      <point x="447" y="679" type="line"/>
      <point x="447" y="0" type="line"/>
      <point x="468" y="0" type="line"/>
      <point x="468" y="679" type="line"/>
      <point x="632" y="679" type="line"/>
      <point x="632" y="698" type="line"/>
      <point x="-20" y="698" type="line"/>
      <point x="-20" y="679" type="line"/>
      <point x="152" y="679" type="line"/>
      <point x="152" y="374" type="line"/>
      <point x="136" y="374"/>
      <point x="124" y="362"/>
      <point x="124" y="341" type="curve" smooth="yes"/>
      <point x="124" y="321"/>
      <point x="136" y="307"/>
    </contour>
    <contour>
      <point x="468.0" y="0.0" type="move" name="bottom_deva"/>
    </contour>
    <contour>
      <point x="313.0" y="696.0" type="move" name="center_deva"/>
    </contour>
    <contour>
      <point x="468.0" y="696.0" type="move" name="top_deva"/>
    </contour>
  </outline>
</glyph>
<glyph name="dvTTHA" format="1">
  <advance width="622"/>
  <unicode hex="0920"/>
  <outline>
    <contour>
      <point x="313" y="30" type="curve" smooth="yes" name="hr00"/>
      <point x="464" y="30"/>
      <point x="549" y="123"/>
      <point x="549" y="255" type="curve" smooth="yes"/>
      <point x="549" y="373"/>
      <point x="481" y="460"/>
      <point x="359" y="477" type="curve"/>
      <point x="359" y="679" type="line"/>
      <point x="642" y="679" type="line"/>
      <point x="642" y="698" type="line"/>
      <point x="-20" y="698" type="line"/>
      <point x="-20" y="679" type="line"/>
      <point x="338" y="679" type="line"/>
      <point x="338" y="479" type="line"/>
      <point x="330" y="480"/>
      <point x="322" y="480"/>
      <point x="313" y="480" type="curve" smooth="yes"/>
      <point x="162" y="480"/>
      <point x="77" y="387"/>
      <point x="77" y="255" type="curve" smooth="yes"/>
      <point x="77" y="123"/>
      <point x="162" y="30"/>
    </contour>
    <contour>
      <point x="313" y="49" type="curve" smooth="yes"/>
      <point x="173" y="49"/>
      <point x="100" y="137"/>
      <point x="100" y="244" type="curve" smooth="yes"/>
      <point x="100" y="266" type="line" smooth="yes"/>
      <point x="100" y="373"/>
      <point x="173" y="461"/>
      <point x="313" y="461" type="curve" smooth="yes"/>
      <point x="453" y="461"/>
      <point x="526" y="373"/>
      <point x="526" y="266" type="curve" smooth="yes"/>
      <point x="526" y="244" type="line" smooth="yes"/>
      <point x="526" y="137"/>
      <point x="453" y="49"/>
    </contour>
    <contour>
      <point x="332.0" y="33.0" type="move" name="bottom_deva"/>
    </contour>
    <contour>
      <point x="349.0" y="696.0" type="move" name="center_deva"/>
    </contour>
    <contour>
      <point x="359.0" y="696.0" type="move" name="top_deva"/>
    </contour>
  </outline>
</glyph>
<glyph name="dvDDA" format="1">
  <advance width="556"/>
  <unicode hex="0921"/>
  <outline>
    <contour>
      <point x="303" y="35" type="curve" smooth="yes" name="hr00"/>
      <point x="414" y="35"/>
      <point x="476" y="89"/>
      <point x="476" y="175" type="curve" smooth="yes"/>
      <point x="476" y="261"/>
      <point x="425" y="303"/>
      <point x="330" y="303" type="curve" smooth="yes"/>
      <point x="264" y="303" type="line" smooth="yes"/>
      <point x="184" y="303"/>
      <point x="148" y="339"/>
      <point x="148" y="390" type="curve" smooth="yes"/>
      <point x="148" y="403" type="line" smooth="yes"/>
      <point x="148" y="448"/>
      <point x="181" y="484"/>
      <point x="255" y="484" type="curve" smooth="yes"/>
      <point x="423" y="484" type="line"/>
      <point x="423" y="679" type="line"/>
      <point x="576" y="679" type="line"/>
      <point x="576" y="698" type="line"/>
      <point x="-20" y="698" type="line"/>
      <point x="-20" y="679" type="line"/>
      <point x="402" y="679" type="line"/>
      <point x="402" y="504" type="line"/>
      <point x="254" y="504" type="line" smooth="yes"/>
      <point x="171" y="504"/>
      <point x="126" y="462"/>
      <point x="126" y="396" type="curve" smooth="yes"/>
      <point x="126" y="329"/>
      <point x="172" y="284"/>
      <point x="270" y="284" type="curve" smooth="yes"/>
      <point x="329" y="284" type="line" smooth="yes"/>
      <point x="413" y="284"/>
      <point x="454" y="250"/>
      <point x="454" y="183" type="curve" smooth="yes"/>
      <point x="454" y="168" type="line" smooth="yes"/>
      <point x="454" y="101"/>
      <point x="403" y="54"/>
      <point x="302" y="54" type="curve" smooth="yes"/>
      <point x="220" y="54"/>
      <point x="144" y="81"/>
      <point x="75" y="158" type="curve"/>
      <point x="61" y="143" type="line"/>
      <point x="132" y="66"/>
      <point x="211" y="35"/>
    </contour>
    <contour>
      <point x="315.0" y="37.0" type="move" name="bottom_deva"/>
    </contour>
    <contour>
      <point x="333.0" y="696.0" type="move" name="center_deva"/>
    </contour>
    <contour>
      <point x="423.0" y="696.0" type="move" name="top_deva"/>
    </contour>
  </outline>
</glyph>
<glyph name="dvYA" format="1">
  <advance width="684"/>
  <unicode hex="092F"/>
  <outline>
    <contour>
      <point x="519" y="0" type="line" name="hr00"/>
      <point x="540" y="0" type="line"/>
      <point x="540" y="679" type="line"/>
      <point x="704" y="679" type="line"/>
      <point x="704" y="698" type="line"/>
      <point x="-20" y="698" type="line"/>
      <point x="-20" y="679" type="line"/>
      <point x="261" y="679" type="line"/>
      <point x="261" y="540" type="line" smooth="yes"/>
      <point x="261" y="455"/>
      <point x="234" y="426"/>
      <point x="143" y="426" type="curve" smooth="yes"/>
      <point x="91" y="426" type="line"/>
      <point x="91" y="359" type="line" smooth="yes"/>
      <point x="91" y="242"/>
      <point x="160" y="162"/>
      <point x="298" y="162" type="curve" smooth="yes"/>
      <point x="416" y="162"/>
      <point x="484" y="218"/>
      <point x="516" y="266" type="curve"/>
      <point x="519" y="266" type="line"/>
    </contour>
    <contour>
      <point x="298" y="181" type="curve" smooth="yes"/>
      <point x="176" y="181"/>
      <point x="112" y="248"/>
      <point x="112" y="356" type="curve" smooth="yes"/>
      <point x="112" y="407" type="line"/>
      <point x="146" y="407" type="line" smooth="yes"/>
      <point x="243" y="407"/>
      <point x="282" y="444"/>
      <point x="282" y="536" type="curve" smooth="yes"/>
      <point x="282" y="679" type="line"/>
      <point x="519" y="679" type="line"/>
      <point x="519" y="340" type="line" smooth="yes"/>
      <point x="519" y="262"/>
      <point x="432" y="181"/>
    </contour>
    <contour>
      <point x="540.0" y="0.0" type="move" name="bottom_deva"/>
    </contour>
    <contour>
      <point x="403.0" y="696.0" type="move" name="center_deva"/>
    </contour>
    <contour>
      <point x="540.0" y="696.0" type="move" name="top_deva"/>
    </contour>
  </outline>
</glyph>
<glyph name="dvKxA" format="1">
  <advance width="857"/>
  <unicode hex="0958"/>
  <outline>
    <component base="dvKA"/>
    <component base="dvNukta"/>
    <contour>
      <point x="444.0" y="0.0" type="move" name="bottom_deva"/>
    </contour>
    <contour>
      <point x="433.0" y="696.0" type="move" name="center_deva"/>
    </contour>
    <contour>
      <point x="444.0" y="696.0" type="move" name="top_deva"/>
    </contour>
  </outline>
</glyph>
<glyph name="dvYxA" format="1">
  <advance width="684"/>
  <unicode hex="095F"/>
  <outline>
    <component base="dvYA"/>
    <component base="dvNukta" xOffset="20" yOffset="4"/>
    <contour>
      <point x="540.0" y="0.0" type="move" name="bottom_deva"/>
    </contour>
    <contour>
      <point x="403.0" y="696.0" type="move" name="center_deva"/>
    </contour>
    <contour>
      <point x="540.0" y="696.0" type="move" name="top_deva"/>
    </contour>
  </outline>
</glyph>
<glyph name="dvTwo" format="1">
  <advance width="505"/>
  <unicode hex="0968"/>
  <outline>
    <contour>
      <point x="403" y="-8" type="line" name="hr00"/>
      <point x="416" y="7" type="line"/>
      <point x="130" y="273" type="line"/>
      <point x="274" y="340" type="line" smooth="yes"/>
      <point x="388" y="393"/>
      <point x="436" y="437"/>
      <point x="436" y="534" type="curve" smooth="yes"/>
      <point x="436" y="637"/>
      <point x="359" y="701"/>
      <point x="254" y="701" type="curve" smooth="yes"/>
      <point x="200" y="701"/>
      <point x="152" y="684"/>
      <point x="115" y="657" type="curve"/>
      <point x="128" y="640" type="line"/>
      <point x="163" y="667"/>
      <point x="207" y="682"/>
      <point x="254" y="682" type="curve" smooth="yes"/>
      <point x="349" y="682"/>
      <point x="413" y="623"/>
      <point x="413" y="545" type="curve" smooth="yes"/>
      <point x="413" y="523" type="line" smooth="yes"/>
      <point x="413" y="450"/>
      <point x="379" y="410"/>
      <point x="260" y="355" type="curve" smooth="yes"/>
      <point x="104" y="283" type="line"/>
      <point x="104" y="271" type="line"/>
    </contour>
  </outline>
</glyph>
<glyph name="sheqel" format="1">
  <advance width="766"/>
  <unicode hex="20AA"/>
  <outline>
    <contour>
      <point x="284" y="0" type="line" name="hr00"/>
      <point x="527" y="0" type="line" smooth="yes"/>
      <point x="610" y="0"/>
      <point x="658" y="50"/>
      <point x="658" y="156" type="curve" smooth="yes"/>
      <point x="658" y="698" type="line"/>
      <point x="636" y="698" type="line"/>
      <point x="636" y="156" type="line" smooth="yes"/>
      <point x="636" y="51"/>
      <point x="584" y="20"/>
      <point x="527" y="20" type="curve" smooth="yes"/>
      <point x="306" y="20" type="line"/>
      <point x="306" y="572" type="line"/>
      <point x="284" y="572" type="line"/>
    </contour>
    <contour>
      <point x="130" y="0" type="line"/>
      <point x="130" y="678" type="line"/>
      <point x="341" y="678" type="line" smooth="yes"/>
      <point x="398" y="678"/>
      <point x="460" y="647"/>
      <point x="460" y="542" type="curve" smooth="yes"/>
      <point x="460" y="126" type="line"/>
      <point x="482" y="126" type="line"/>
      <point x="482" y="542" type="line" smooth="yes"/>
      <point x="482" y="648"/>
      <point x="424" y="698"/>
      <point x="341" y="698" type="curve" smooth="yes"/>
      <point x="108" y="698" type="line"/>
      <point x="108" y="0" type="line"/>
    </contour>
  </outline>
</glyph>
<glyph name="arrowleftright" format="1">
  <advance width="746"/>
  <unicode hex="2194"/>
  <outline>
    <contour>
      <point x="18" y="349" type="line" name="hr00"/>
      <point x="205" y="162" type="line"/>
      <point x="220" y="177" type="line"/>
      <point x="109" y="288" type="line"/>
      <point x="55" y="338" type="line"/>
      <point x="56" y="340" type="line"/>
      <point x="164" y="339" type="line"/>
      <point x="582" y="339" type="line"/>
      <point x="690" y="340" type="line"/>
      <point x="691" y="338" type="line"/>
      <point x="637" y="288" type="line"/>
      <point x="526" y="177" type="line"/>
      <point x="541" y="162" type="line"/>
      <point x="728" y="349" type="line"/>
      <point x="541" y="536" type="line"/>
      <point x="526" y="521" type="line"/>
      <point x="637" y="410" type="line"/>
      <point x="691" y="360" type="line"/>
      <point x="690" y="358" type="line"/>
      <point x="582" y="359" type="line"/>
      <point x="164" y="359" type="line"/>
      <point x="56" y="358" type="line"/>
      <point x="55" y="360" type="line"/>
      <point x="109" y="410" type="line"/>
      <point x="220" y="521" type="line"/>
      <point x="205" y="536" type="line"/>
    </contour>
  </outline>
</glyph>
<glyph name="dvBH_NA" format="1">
  <advance width="626"/>
  <outline>
    <contour>
      <point x="237" y="-39" type="curve" smooth="yes" name="hr00"/>
      <point x="251" y="-39"/>
      <point x="259" y="-31"/>
      <point x="260" y="-21" type="curve"/>
      <point x="226" y="14" type="line"/>
      <point x="333" y="120" type="line"/>
      <point x="460" y="249" type="line"/>
      <point x="461" y="249" type="line"/>
      <point x="461" y="0" type="line"/>
      <point x="482" y="0" type="line"/>
      <point x="482" y="679" type="line"/>
      <point x="646" y="679" type="line"/>
      <point x="646" y="698" type="line"/>
      <point x="461" y="698" type="line"/>
      <point x="461" y="354" type="line"/>
      <point x="169" y="354" type="line"/>
      <point x="169" y="675" type="line" smooth="yes"/>
      <point x="169" y="692"/>
      <point x="161" y="698"/>
      <point x="147" y="698" type="curve" smooth="yes"/>
      <point x="-20" y="698" type="line"/>
      <point x="-20" y="679" type="line"/>
      <point x="148" y="679" type="line"/>
      <point x="148" y="353" type="line"/>
      <point x="132" y="350"/>
      <point x="123" y="337"/>
      <point x="123" y="321" type="curve" smooth="yes"/>
      <point x="123" y="302"/>
      <point x="133" y="288"/>
      <point x="153" y="288" type="curve" smooth="yes"/>
      <point x="159" y="288"/>
      <point x="165" y="289"/>
      <point x="169" y="291" type="curve"/>
      <point x="169" y="335" type="line"/>
      <point x="461" y="335" type="line"/>
      <point x="461" y="273" type="line"/>
      <point x="211" y="27" type="line" smooth="yes"/>
      <point x="201" y="17"/>
      <point x="198" y="10"/>
      <point x="198" y="0" type="curve" smooth="yes"/>
      <point x="198" y="-20"/>
      <point x="217" y="-39"/>
    </contour>
    <contour>
      <point x="482.0" y="0.0" type="move" name="bottom_deva"/>
    </contour>
    <contour>
      <point x="304.0" y="696.0" type="move" name="center_deva"/>
    </contour>
    <contour>
      <point x="482.0" y="696.0" type="move" name="top_deva"/>
    </contour>
  </outline>
</glyph>
<glyph name="dvBH_R" format="1">
  <advance width="359"/>
  <outline>
    <contour>
      <point x="248" y="-18" type="line" name="hr00"/>
      <point x="409" y="202" type="line"/>
      <point x="494" y="322" type="line"/>
      <point x="494" y="354" type="line"/>
      <point x="169" y="354" type="line"/>
      <point x="169" y="675" type="line" smooth="yes"/>
      <point x="169" y="692"/>
      <point x="161" y="698"/>
      <point x="147" y="698" type="curve" smooth="yes"/>
      <point x="-20" y="698" type="line"/>
      <point x="-20" y="679" type="line"/>
      <point x="148" y="679" type="line"/>
      <point x="148" y="353" type="line"/>
      <point x="132" y="350"/>
      <point x="123" y="337"/>
      <point x="123" y="321" type="curve" smooth="yes"/>
      <point x="123" y="302"/>
      <point x="133" y="288"/>
      <point x="153" y="288" type="curve" smooth="yes"/>
      <point x="159" y="288"/>
      <point x="165" y="289"/>
      <point x="169" y="291" type="curve"/>
      <point x="169" y="335" type="line"/>
      <point x="480" y="335" type="line"/>
      <point x="480" y="333" type="line"/>
      <point x="450" y="290" type="line"/>
      <point x="232" y="-7" type="line"/>
    </contour>
  </outline>
</glyph>
<glyph name="dvB_JHA" format="1">
  <advance width="1171"/>
  <outline>
    <contour>
      <point x="546" y="-105" type="line"/>
      <point x="563" y="-99" type="line"/>
      <point x="518" y="32" type="line"/>
      <point x="512" y="50" type="line"/>
      <point x="513" y="51" type="line"/>
      <point x="536" y="46"/>
      <point x="564" y="42"/>
      <point x="595" y="42" type="curve" smooth="yes"/>
      <point x="711" y="42"/>
      <point x="765" y="90"/>
      <point x="765" y="178" type="curve" smooth="yes"/>
      <point x="765" y="205"/>
      <point x="758" y="225"/>
      <point x="748" y="242" type="curve"/>
      <point x="749" y="243" type="line"/>
      <point x="1006" y="243" type="line"/>
      <point x="1006" y="0" type="line"/>
      <point x="1027" y="0" type="line"/>
      <point x="1027" y="679" type="line"/>
      <point x="1191" y="679" type="line"/>
      <point x="1191" y="698" type="line"/>
      <point x="-20" y="698" type="line"/>
      <point x="-20" y="679" type="line"/>
      <point x="693" y="679" type="line"/>
      <point x="693" y="502" type="line"/>
      <point x="555" y="502" type="line" smooth="yes"/>
      <point x="482" y="502"/>
      <point x="437" y="466"/>
      <point x="432" y="412" type="curve"/>
      <point x="429" y="411" type="line"/>
      <point x="395" y="457"/>
      <point x="339" y="489"/>
      <point x="266" y="489" type="curve" smooth="yes" name="hr01"/>
      <point x="149" y="489"/>
      <point x="74" y="412"/>
      <point x="74" y="313" type="curve" smooth="yes"/>
      <point x="74" y="211"/>
      <point x="149" y="132"/>
      <point x="266" y="132" type="curve" smooth="yes"/>
      <point x="380" y="132"/>
      <point x="458" y="199"/>
      <point x="458" y="317" type="curve"/>
      <point x="461" y="318" type="line"/>
      <point x="482" y="296"/>
      <point x="516" y="282"/>
      <point x="569" y="282" type="curve" smooth="yes"/>
      <point x="623" y="282" type="line" smooth="yes"/>
      <point x="705" y="282"/>
      <point x="743" y="238"/>
      <point x="743" y="185" type="curve" smooth="yes"/>
      <point x="743" y="168" type="line" smooth="yes"/>
      <point x="743" y="102"/>
      <point x="696" y="60"/>
      <point x="596" y="60" type="curve" smooth="yes"/>
      <point x="560" y="60"/>
      <point x="531" y="64"/>
      <point x="505" y="72" type="curve"/>
      <point x="485" y="124" type="line"/>
      <point x="480" y="125"/>
      <point x="477" y="125"/>
      <point x="473" y="125" type="curve" smooth="yes"/>
      <point x="457" y="125"/>
      <point x="446" y="116"/>
      <point x="446" y="98" type="curve" smooth="yes"/>
      <point x="446" y="75"/>
      <point x="463" y="61"/>
      <point x="492" y="54" type="curve"/>
      <point x="501" y="27" type="line"/>
    </contour>
    <contour>
      <point x="714" y="679" type="line"/>
      <point x="1006" y="679" type="line"/>
      <point x="1006" y="261" type="line"/>
      <point x="736" y="261" type="line"/>
      <point x="712" y="286"/>
      <point x="676" y="301"/>
      <point x="625" y="301" type="curve" smooth="yes"/>
      <point x="564" y="301" type="line" smooth="yes"/>
      <point x="488" y="301"/>
      <point x="451" y="337"/>
      <point x="451" y="387" type="curve" smooth="yes"/>
      <point x="451" y="400" type="line" smooth="yes"/>
      <point x="451" y="448"/>
      <point x="486" y="482"/>
      <point x="559" y="482" type="curve" smooth="yes" name="hr02"/>
      <point x="714" y="482" type="line"/>
    </contour>
    <contour>
      <point x="366" y="243" type="line"/>
      <point x="199" y="399" type="line"/>
      <point x="157" y="439" type="line"/>
      <point x="164" y="444"/>
      <point x="172" y="448"/>
      <point x="179" y="452" type="curve" smooth="yes"/>
      <point x="203" y="464"/>
      <point x="232" y="470"/>
      <point x="266" y="470" type="curve" smooth="yes" name="hr03"/>
      <point x="372" y="470"/>
      <point x="440" y="395"/>
      <point x="440" y="323" type="curve" smooth="yes"/>
      <point x="440" y="304" type="line" smooth="yes"/>
      <point x="440" y="266"/>
      <point x="426" y="232"/>
      <point x="405" y="206" type="curve"/>
    </contour>
    <contour>
      <point x="266" y="151" type="curve" smooth="yes"/>
      <point x="164" y="151"/>
      <point x="96" y="216"/>
      <point x="96" y="302" type="curve" smooth="yes"/>
      <point x="96" y="324" type="line" smooth="yes"/>
      <point x="96" y="369"/>
      <point x="116" y="404"/>
      <point x="143" y="428" type="curve"/>
      <point x="185" y="387" type="line"/>
      <point x="355" y="227" type="line"/>
      <point x="392" y="193" type="line"/>
      <point x="384" y="186"/>
      <point x="376" y="180"/>
      <point x="367" y="175" type="curve" smooth="yes"/>
      <point x="336" y="158"/>
      <point x="304" y="151"/>
    </contour>
    <contour>
      <point x="1027.0" y="0.0" type="move" name="bottom_deva"/>
    </contour>
    <contour>
      <point x="870.0" y="696.0" type="move" name="center_deva"/>
    </contour>
    <contour>
      <point x="1027.0" y="696.0" type="move" name="top_deva"/>
    </contour>
  </outline>
</glyph>
<glyph name="dvCH_VA" format="1">
  <advance width="783"/>
  <outline>
    <contour>
      <point x="517" y="-234" type="line"/>
      <point x="536" y="-234" type="line"/>
      <point x="536" y="108" type="line"/>
      <point x="645" y="148"/>
      <point x="720" y="241"/>
      <point x="720" y="376" type="curve" smooth="yes"/>
      <point x="720" y="473"/>
      <point x="673" y="517"/>
      <point x="611" y="522" type="curve"/>
      <point x="611" y="679" type="line"/>
      <point x="803" y="679" type="line"/>
      <point x="803" y="698" type="line"/>
      <point x="-20" y="698" type="line"/>
      <point x="-20" y="679" type="line"/>
      <point x="227" y="679" type="line"/>
      <point x="227" y="676" type="line"/>
      <point x="187" y="660"/>
      <point x="138" y="620"/>
      <point x="138" y="547" type="curve" smooth="yes"/>
      <point x="138" y="481"/>
      <point x="183" y="432"/>
      <point x="250" y="415" type="curve"/>
      <point x="250" y="412" type="line"/>
      <point x="188" y="399"/>
      <point x="128" y="352"/>
      <point x="128" y="261" type="curve" smooth="yes" name="hr01"/>
      <point x="128" y="174"/>
      <point x="185" y="107"/>
      <point x="306" y="89" type="curve"/>
      <point x="306" y="87" type="line"/>
      <point x="263" y="71"/>
      <point x="224" y="34"/>
      <point x="224" y="-32" type="curve" smooth="yes"/>
      <point x="224" y="-120"/>
      <point x="285" y="-165"/>
      <point x="366" y="-165" type="curve" smooth="yes"/>
      <point x="441" y="-165"/>
      <point x="488" y="-131"/>
      <point x="514" y="-92" type="curve"/>
      <point x="517" y="-92" type="line"/>
    </contour>
    <contour>
      <point x="356" y="104" type="line" smooth="yes"/>
      <point x="217" y="104"/>
      <point x="149" y="170"/>
      <point x="149" y="261" type="curve" smooth="yes"/>
      <point x="149" y="348"/>
      <point x="210" y="404"/>
      <point x="313" y="404" type="curve" smooth="yes"/>
      <point x="374" y="404" type="line"/>
      <point x="374" y="423" type="line"/>
      <point x="312" y="423" type="line" smooth="yes"/>
      <point x="220" y="423"/>
      <point x="159" y="473"/>
      <point x="159" y="547" type="curve" smooth="yes" name="hr02"/>
      <point x="159" y="627"/>
      <point x="230" y="679"/>
      <point x="311" y="679" type="curve" smooth="yes"/>
      <point x="591" y="679" type="line"/>
      <point x="591" y="523" type="line"/>
      <point x="529" y="520"/>
      <point x="483" y="477"/>
      <point x="483" y="389" type="curve" smooth="yes"/>
      <point x="483" y="279"/>
      <point x="543" y="244"/>
      <point x="636" y="244" type="curve" smooth="yes"/>
      <point x="669" y="244" type="line"/>
      <point x="670" y="242" type="line"/>
      <point x="626" y="159"/>
      <point x="532" y="104"/>
      <point x="408" y="104" type="curve" smooth="yes"/>
    </contour>
    <contour>
      <point x="633" y="261" type="line" smooth="yes"/>
      <point x="546" y="261"/>
      <point x="504" y="298"/>
      <point x="504" y="374" type="curve" smooth="yes"/>
      <point x="504" y="399" type="line" smooth="yes"/>
      <point x="504" y="463"/>
      <point x="539" y="504"/>
      <point x="600" y="504" type="curve" smooth="yes"/>
      <point x="664" y="504"/>
      <point x="700" y="456"/>
      <point x="700" y="395" type="curve" smooth="yes"/>
      <point x="700" y="364" type="line" smooth="yes"/>
      <point x="700" y="327"/>
      <point x="693" y="293"/>
      <point x="679" y="261" type="curve"/>
    </contour>
    <contour>
      <point x="367" y="-148" type="curve" smooth="yes"/>
      <point x="294" y="-148"/>
      <point x="245" y="-106"/>
      <point x="245" y="-39" type="curve" smooth="yes"/>
      <point x="245" y="-26" type="line" smooth="yes"/>
      <point x="245" y="39"/>
      <point x="301" y="85"/>
      <point x="378" y="85" type="curve" smooth="yes"/>
      <point x="448" y="85"/>
      <point x="486" y="92"/>
      <point x="516" y="101" type="curve"/>
      <point x="518" y="99" type="line"/>
      <point x="518" y="-26" type="line"/>
      <point x="518" y="-89"/>
      <point x="456" y="-148"/>
    </contour>
    <contour>
      <point x="536.0" y="-234.0" type="move" name="bottom_deva"/>
    </contour>
    <contour>
      <point x="435.0" y="696.0" type="move" name="center_deva"/>
    </contour>
    <contour>
      <point x="611.0" y="696.0" type="move" name="top_deva"/>
    </contour>
  </outline>
</glyph>
<glyph name="dvC" format="1">
  <advance width="405"/>
  <outline>
    <contour>
      <point x="-20" y="679" type="line" name="hr00"/>
      <point x="466" y="679" type="line"/>
      <point x="466" y="698" type="line"/>
      <point x="-20" y="698" type="line"/>
    </contour>
    <contour>
      <point x="333" y="128" type="curve" smooth="yes"/>
      <point x="442" y="128"/>
      <point x="519" y="199"/>
      <point x="550" y="280" type="curve"/>
      <point x="536" y="295" type="line"/>
      <point x="510" y="217"/>
      <point x="436" y="147"/>
      <point x="333" y="147" type="curve" smooth="yes"/>
      <point x="251" y="147"/>
      <point x="182" y="195"/>
      <point x="182" y="288" type="curve" smooth="yes"/>
      <point x="182" y="369"/>
      <point x="244" y="435"/>
      <point x="328" y="435" type="curve" smooth="yes"/>
      <point x="347" y="435" type="line"/>
      <point x="347" y="452" type="line"/>
      <point x="60" y="452" type="line"/>
      <point x="60" y="433" type="line"/>
      <point x="183" y="433" type="line"/>
      <point x="249" y="434" type="line"/>
      <point x="249" y="432" type="line"/>
      <point x="193" y="405"/>
      <point x="160" y="355"/>
      <point x="160" y="285" type="curve" smooth="yes"/>
      <point x="160" y="194"/>
      <point x="231" y="128"/>
    </contour>
  </outline>
</glyph>
<glyph name="dvC_NA" format="1">
  <advance width="696"/>
  <outline>
    <contour>
      <point x="218" y="-56" type="curve" smooth="yes" name="hr00"/>
      <point x="230" y="-56"/>
      <point x="238" y="-49"/>
      <point x="240" y="-41" type="curve"/>
      <point x="212" y="0" type="line"/>
      <point x="445" y="154" type="line" smooth="yes"/>
      <point x="492" y="185"/>
      <point x="514" y="214"/>
      <point x="528" y="244" type="curve"/>
      <point x="531" y="244" type="line"/>
      <point x="531" y="0" type="line"/>
      <point x="552" y="0" type="line"/>
      <point x="552" y="679" type="line"/>
      <point x="716" y="679" type="line"/>
      <point x="716" y="698" type="line"/>
      <point x="-20" y="698" type="line"/>
      <point x="-20" y="679" type="line"/>
      <point x="531" y="679" type="line"/>
      <point x="531" y="329" type="line" smooth="yes"/>
      <point x="531" y="223"/>
      <point x="438" y="147"/>
      <point x="333" y="147" type="curve" smooth="yes"/>
      <point x="252" y="147"/>
      <point x="182" y="194"/>
      <point x="182" y="288" type="curve" smooth="yes"/>
      <point x="182" y="366"/>
      <point x="242" y="435"/>
      <point x="327" y="435" type="curve" smooth="yes"/>
      <point x="347" y="435" type="line"/>
      <point x="347" y="452" type="line"/>
      <point x="60" y="452" type="line"/>
      <point x="60" y="433" type="line"/>
      <point x="165" y="433" type="line"/>
      <point x="249" y="434" type="line"/>
      <point x="249" y="432" type="line"/>
      <point x="196" y="407"/>
      <point x="160" y="357"/>
      <point x="160" y="288" type="curve" smooth="yes"/>
      <point x="160" y="189"/>
      <point x="234" y="129"/>
      <point x="333" y="129" type="curve" smooth="yes"/>
      <point x="350" y="129"/>
      <point x="366" y="131"/>
      <point x="381" y="135" type="curve"/>
      <point x="382" y="132" type="line"/>
      <point x="312" y="88" type="line"/>
      <point x="200" y="16" type="line" smooth="yes"/>
      <point x="185" y="6"/>
      <point x="180" y="-3"/>
      <point x="180" y="-15" type="curve" smooth="yes"/>
      <point x="180" y="-33"/>
      <point x="196" y="-56"/>
    </contour>
    <contour>
      <point x="552.0" y="0.0" type="move" name="bottom_deva"/>
    </contour>
    <contour>
      <point x="377.0" y="696.0" type="move" name="center_deva"/>
    </contour>
    <contour>
      <point x="552.0" y="696.0" type="move" name="top_deva"/>
    </contour>
  </outline>
</glyph>
<glyph name="dvDD_YA" format="1">
  <advance width="1162"/>
  <outline>
    <contour>
      <point x="997" y="0" type="line" name="hr00"/>
      <point x="1018" y="0" type="line"/>
      <point x="1018" y="679" type="line"/>
      <point x="1182" y="679" type="line"/>
      <point x="1182" y="698" type="line"/>
      <point x="-20" y="698" type="line"/>
      <point x="-20" y="679" type="line"/>
      <point x="390" y="679" type="line"/>
      <point x="390" y="490" type="line"/>
      <point x="250" y="490" type="line" smooth="yes"/>
      <point x="165" y="490"/>
      <point x="121" y="451"/>
      <point x="121" y="388" type="curve" smooth="yes"/>
      <point x="121" y="328"/>
      <point x="161" y="285"/>
      <point x="256" y="285" type="curve" smooth="yes"/>
      <point x="314" y="285" type="line" smooth="yes"/>
      <point x="394" y="285"/>
      <point x="440" y="251"/>
      <point x="440" y="183" type="curve" smooth="yes"/>
      <point x="440" y="114"/>
      <point x="392" y="73"/>
      <point x="292" y="73" type="curve" smooth="yes"/>
      <point x="207" y="73"/>
      <point x="135" y="103"/>
      <point x="66" y="177" type="curve"/>
      <point x="53" y="162" type="line"/>
      <point x="127" y="86"/>
      <point x="198" y="54"/>
      <point x="294" y="54" type="curve" smooth="yes"/>
      <point x="409" y="54"/>
      <point x="461" y="108"/>
      <point x="461" y="184" type="curve" smooth="yes"/>
      <point x="461" y="261"/>
      <point x="409" y="305"/>
      <point x="315" y="305" type="curve" smooth="yes"/>
      <point x="248" y="305" type="line" smooth="yes"/>
      <point x="170" y="305"/>
      <point x="143" y="341"/>
      <point x="143" y="386" type="curve" smooth="yes"/>
      <point x="143" y="439"/>
      <point x="175" y="471"/>
      <point x="249" y="471" type="curve" smooth="yes"/>
      <point x="781" y="471" type="line"/>
      <point x="781" y="416" type="line" smooth="yes"/>
      <point x="781" y="361"/>
      <point x="762" y="335"/>
      <point x="689" y="335" type="curve" smooth="yes"/>
      <point x="613" y="335" type="line"/>
      <point x="613" y="286" type="line" smooth="yes"/>
      <point x="613" y="174"/>
      <point x="681" y="110"/>
      <point x="799" y="110" type="curve" smooth="yes"/>
      <point x="884" y="110"/>
      <point x="953" y="140"/>
      <point x="994" y="201" type="curve"/>
      <point x="997" y="201" type="line"/>
    </contour>
    <contour>
      <point x="801" y="129" type="curve" smooth="yes"/>
      <point x="689" y="129"/>
      <point x="634" y="187"/>
      <point x="634" y="281" type="curve" smooth="yes"/>
      <point x="634" y="316" type="line"/>
      <point x="698" y="316" type="line" smooth="yes"/>
      <point x="771" y="316"/>
      <point x="802" y="349"/>
      <point x="802" y="416" type="curve" smooth="yes"/>
      <point x="802" y="464" type="line" smooth="yes"/>
      <point x="802" y="482"/>
      <point x="793" y="490"/>
      <point x="776" y="490" type="curve" smooth="yes"/>
      <point x="411" y="490" type="line"/>
      <point x="411" y="679" type="line"/>
      <point x="997" y="679" type="line"/>
      <point x="997" y="279" type="line" smooth="yes"/>
      <point x="997" y="183"/>
      <point x="898" y="129"/>
    </contour>
    <contour>
      <point x="1018.0" y="0.0" type="move" name="bottom_deva"/>
    </contour>
    <contour>
      <point x="875.0" y="696.0" type="move" name="center_deva"/>
    </contour>
    <contour>
      <point x="1018.0" y="696.0" type="move" name="top_deva"/>
    </contour>
  </outline>
</glyph>
<glyph name="dvDH_R" format="1">
  <advance width="403"/>
  <outline>
    <contour>
      <point x="164" y="-28" type="line" name="hr00"/>
      <point x="435" y="165" type="line" smooth="yes"/>
      <point x="492" y="206"/>
      <point x="526" y="251"/>
      <point x="544" y="320" type="curve"/>
      <point x="529" y="329" type="line"/>
      <point x="499" y="215"/>
      <point x="419" y="151"/>
      <point x="292" y="151" type="curve" smooth="yes"/>
      <point x="184" y="151"/>
      <point x="136" y="209"/>
      <point x="136" y="280" type="curve" smooth="yes"/>
      <point x="136" y="353"/>
      <point x="183" y="414"/>
      <point x="296" y="414" type="curve" smooth="yes"/>
      <point x="357" y="414" type="line"/>
      <point x="357" y="433" type="line"/>
      <point x="297" y="433" type="line" smooth="yes"/>
      <point x="170" y="433"/>
      <point x="111" y="488"/>
      <point x="111" y="566" type="curve" smooth="yes"/>
      <point x="111" y="633"/>
      <point x="154" y="679"/>
      <point x="231" y="679" type="curve" smooth="yes"/>
      <point x="266" y="679"/>
      <point x="294" y="670"/>
      <point x="318" y="656" type="curve"/>
      <point x="327" y="673" type="line"/>
      <point x="303" y="687"/>
      <point x="269" y="698"/>
      <point x="229" y="698" type="curve" smooth="yes"/>
      <point x="141" y="698"/>
      <point x="90" y="642"/>
      <point x="90" y="566" type="curve" smooth="yes"/>
      <point x="90" y="491"/>
      <point x="146" y="433"/>
      <point x="229" y="424" type="curve"/>
      <point x="229" y="421" type="line"/>
      <point x="157" y="407"/>
      <point x="114" y="355"/>
      <point x="114" y="279" type="curve" smooth="yes"/>
      <point x="114" y="197"/>
      <point x="172" y="132"/>
      <point x="292" y="132" type="curve" smooth="yes"/>
      <point x="319" y="132"/>
      <point x="350" y="137"/>
      <point x="373" y="144" type="curve"/>
      <point x="374" y="141" type="line"/>
      <point x="317" y="104" type="line"/>
      <point x="152" y="-11" type="line"/>
    </contour>
  </outline>
</glyph>
<glyph name="dvDH_VA" format="1">
  <advance width="1032"/>
  <outline>
    <contour>
      <point x="464" y="679" type="line"/>
      <point x="867" y="679" type="line"/>
      <point x="867" y="402" type="line"/>
      <point x="864" y="402" type="line"/>
      <point x="834" y="442"/>
      <point x="776" y="490"/>
      <point x="675" y="490" type="curve" smooth="yes"/>
      <point x="564" y="490"/>
      <point x="493" y="418"/>
      <point x="493" y="313" type="curve" smooth="yes"/>
      <point x="493" y="293"/>
      <point x="496" y="280"/>
      <point x="500" y="260" type="curve"/>
      <point x="457" y="188"/>
      <point x="387" y="151"/>
      <point x="292" y="151" type="curve" smooth="yes"/>
      <point x="184" y="151"/>
      <point x="136" y="209"/>
      <point x="136" y="280" type="curve" smooth="yes"/>
      <point x="136" y="353"/>
      <point x="183" y="414"/>
      <point x="296" y="414" type="curve" smooth="yes"/>
      <point x="357" y="414" type="line"/>
      <point x="357" y="433" type="line"/>
      <point x="297" y="433" type="line" smooth="yes"/>
      <point x="170" y="433"/>
      <point x="111" y="488"/>
      <point x="111" y="566" type="curve" smooth="yes"/>
      <point x="111" y="633"/>
      <point x="154" y="679"/>
      <point x="231" y="679" type="curve" smooth="yes"/>
      <point x="266" y="679"/>
      <point x="294" y="670"/>
      <point x="318" y="656" type="curve"/>
      <point x="327" y="673" type="line"/>
      <point x="303" y="687"/>
      <point x="269" y="698"/>
      <point x="229" y="698" type="curve" smooth="yes"/>
      <point x="141" y="698"/>
      <point x="90" y="642"/>
      <point x="90" y="566" type="curve" smooth="yes"/>
      <point x="90" y="491"/>
      <point x="146" y="433"/>
      <point x="229" y="424" type="curve"/>
      <point x="229" y="421" type="line"/>
      <point x="157" y="407"/>
      <point x="114" y="355"/>
      <point x="114" y="279" type="curve" smooth="yes"/>
      <point x="114" y="197"/>
      <point x="173" y="132"/>
      <point x="292" y="132" type="curve" smooth="yes"/>
      <point x="396" y="132"/>
      <point x="464" y="172"/>
      <point x="507" y="235" type="curve"/>
      <point x="509" y="235" type="line"/>
      <point x="540" y="171"/>
      <point x="608" y="136"/>
      <point x="681" y="136" type="curve" smooth="yes" name="hr01"/>
      <point x="781" y="136"/>
      <point x="837" y="182"/>
      <point x="864" y="223" type="curve"/>
      <point x="867" y="223" type="line"/>
      <point x="867" y="0" type="line"/>
      <point x="888" y="0" type="line"/>
      <point x="888" y="679" type="line"/>
      <point x="1052" y="679" type="line"/>
      <point x="1052" y="698" type="line"/>
      <point x="464" y="698" type="line"/>
    </contour>
    <contour>
      <point x="684" y="155" type="curve" smooth="yes"/>
      <point x="585" y="155"/>
      <point x="515" y="218"/>
      <point x="515" y="301" type="curve" smooth="yes"/>
      <point x="515" y="325" type="line" smooth="yes"/>
      <point x="515" y="405"/>
      <point x="576" y="471"/>
      <point x="676" y="471" type="curve" smooth="yes"/>
      <point x="783" y="471"/>
      <point x="868" y="400"/>
      <point x="868" y="340" type="curve" smooth="yes"/>
      <point x="868" y="289" type="line" smooth="yes"/>
      <point x="868" y="222"/>
      <point x="787" y="155"/>
    </contour>
    <contour>
      <point x="888.0" y="0.0" type="move" name="bottom_deva"/>
    </contour>
    <contour>
      <point x="701.0" y="696.0" type="move" name="center_deva"/>
    </contour>
    <contour>
      <point x="888.0" y="696.0" type="move" name="top_deva"/>
    </contour>
  </outline>
</glyph>
<glyph name="dvD_BA" format="1">
  <advance width="582"/>
  <outline>
    <contour>
      <point x="236" y="-89" type="curve" smooth="yes"/>
      <point x="351" y="-89"/>
      <point x="414" y="-12"/>
      <point x="437" y="99" type="curve"/>
      <point x="440" y="100" type="line"/>
      <point x="444" y="86" type="line"/>
      <point x="498" y="-73" type="line"/>
      <point x="515" y="-67" type="line"/>
      <point x="460" y="94" type="line"/>
      <point x="454" y="111" type="line"/>
      <point x="469" y="121"/>
      <point x="473" y="128"/>
      <point x="473" y="140" type="curve" smooth="yes"/>
      <point x="473" y="159"/>
      <point x="462" y="180"/>
      <point x="441" y="180" type="curve" smooth="yes"/>
      <point x="430" y="180"/>
      <point x="419" y="176"/>
      <point x="413" y="171" type="curve"/>
      <point x="431" y="121" type="line"/>
      <point x="408" y="111"/>
      <point x="368" y="102"/>
      <point x="321" y="102" type="curve" smooth="yes"/>
      <point x="184" y="102"/>
      <point x="123" y="184"/>
      <point x="123" y="274" type="curve" smooth="yes"/>
      <point x="123" y="295" type="line" smooth="yes"/>
      <point x="123" y="396"/>
      <point x="190" y="461"/>
      <point x="321" y="461" type="curve" smooth="yes"/>
      <point x="445" y="461" type="line"/>
      <point x="445" y="679" type="line"/>
      <point x="602" y="679" type="line"/>
      <point x="602" y="698" type="line"/>
      <point x="-20" y="698" type="line"/>
      <point x="-20" y="679" type="line"/>
      <point x="424" y="679" type="line"/>
      <point x="424" y="481" type="line"/>
      <point x="319" y="481" type="line" smooth="yes"/>
      <point x="179" y="481"/>
      <point x="101" y="411"/>
      <point x="101" y="287" type="curve" smooth="yes"/>
      <point x="101" y="239"/>
      <point x="114" y="193"/>
      <point x="142" y="157" type="curve"/>
      <point x="142" y="155" type="line"/>
      <point x="114" y="127"/>
      <point x="94" y="92"/>
      <point x="94" y="43" type="curve" smooth="yes" name="hr01"/>
      <point x="94" y="-28"/>
      <point x="143" y="-89"/>
    </contour>
    <contour>
      <point x="236" y="-72" type="curve" smooth="yes"/>
      <point x="153" y="-72"/>
      <point x="113" y="-18"/>
      <point x="113" y="37" type="curve" smooth="yes"/>
      <point x="113" y="47" type="line" smooth="yes"/>
      <point x="113" y="87"/>
      <point x="131" y="119"/>
      <point x="156" y="143" type="curve"/>
      <point x="157" y="143" type="line"/>
      <point x="208" y="87" type="line"/>
      <point x="306" y="-19" type="line"/>
      <point x="331" y="-45" type="line"/>
      <point x="332" y="-46" type="line"/>
      <point x="306" y="-63"/>
      <point x="274" y="-72"/>
    </contour>
    <contour>
      <point x="346" y="-37" type="curve"/>
      <point x="344" y="-35" type="line"/>
      <point x="318" y="-6" type="line"/>
      <point x="244" y="74" type="line"/>
      <point x="216" y="101" type="line"/>
      <point x="217" y="103" type="line"/>
      <point x="246" y="91"/>
      <point x="281" y="85"/>
      <point x="320" y="85" type="curve" smooth="yes"/>
      <point x="359" y="85"/>
      <point x="393" y="90"/>
      <point x="420" y="99" type="curve"/>
      <point x="421" y="98" type="line"/>
      <point x="407" y="39"/>
      <point x="384" y="-7"/>
    </contour>
    <contour>
      <point x="515.0" y="-69.0" type="move" name="bottom_deva"/>
    </contour>
    <contour>
      <point x="318.0" y="696.0" type="move" name="center_deva"/>
    </contour>
    <contour>
      <point x="445.0" y="696.0" type="move" name="top_deva"/>
    </contour>
  </outline>
</glyph>
<glyph name="dvD_DHA" format="1">
  <advance width="732"/>
  <outline>
    <contour>
      <point x="656" y="-96" type="line"/>
      <point x="673" y="-90" type="line"/>
      <point x="610" y="94" type="line"/>
      <point x="604" y="111" type="line"/>
      <point x="619" y="121"/>
      <point x="623" y="128"/>
      <point x="623" y="140" type="curve" smooth="yes"/>
      <point x="623" y="159"/>
      <point x="612" y="180"/>
      <point x="591" y="180" type="curve" smooth="yes"/>
      <point x="580" y="180"/>
      <point x="569" y="176"/>
      <point x="563" y="171" type="curve"/>
      <point x="581" y="121" type="line"/>
      <point x="558" y="111"/>
      <point x="518" y="102"/>
      <point x="471" y="102" type="curve" smooth="yes"/>
      <point x="334" y="102"/>
      <point x="273" y="184"/>
      <point x="273" y="274" type="curve" smooth="yes"/>
      <point x="273" y="295" type="line" smooth="yes"/>
      <point x="273" y="396"/>
      <point x="340" y="461"/>
      <point x="471" y="461" type="curve" smooth="yes"/>
      <point x="595" y="461" type="line"/>
      <point x="595" y="679" type="line"/>
      <point x="752" y="679" type="line"/>
      <point x="752" y="698" type="line"/>
      <point x="-20" y="698" type="line"/>
      <point x="-20" y="679" type="line"/>
      <point x="574" y="679" type="line"/>
      <point x="574" y="481" type="line"/>
      <point x="469" y="481" type="line" smooth="yes"/>
      <point x="329" y="481"/>
      <point x="251" y="411"/>
      <point x="251" y="287" type="curve" smooth="yes"/>
      <point x="251" y="237"/>
      <point x="265" y="192"/>
      <point x="292" y="157" type="curve"/>
      <point x="263" y="139"/>
      <point x="219" y="128"/>
      <point x="176" y="128" type="curve" smooth="yes"/>
      <point x="109" y="128"/>
      <point x="77" y="162"/>
      <point x="77" y="243" type="curve" smooth="yes"/>
      <point x="77" y="343" type="line"/>
      <point x="56" y="343" type="line"/>
      <point x="56" y="244" type="line" smooth="yes"/>
      <point x="56" y="152"/>
      <point x="98" y="110"/>
      <point x="175" y="110" type="curve" smooth="yes"/>
      <point x="210" y="110"/>
      <point x="243" y="117"/>
      <point x="267" y="125" type="curve"/>
      <point x="269" y="123" type="line"/>
      <point x="254" y="101"/>
      <point x="245" y="74"/>
      <point x="245" y="43" type="curve" smooth="yes" name="hr01"/>
      <point x="245" y="-24"/>
      <point x="290" y="-87"/>
      <point x="386" y="-87" type="curve" smooth="yes"/>
      <point x="497" y="-87"/>
      <point x="563" y="-11"/>
      <point x="587" y="99" type="curve"/>
      <point x="590" y="100" type="line"/>
      <point x="594" y="86" type="line"/>
    </contour>
    <contour>
      <point x="386" y="-70" type="curve" smooth="yes"/>
      <point x="304" y="-70"/>
      <point x="264" y="-17"/>
      <point x="264" y="37" type="curve" smooth="yes"/>
      <point x="264" y="47" type="line" smooth="yes"/>
      <point x="264" y="83"/>
      <point x="281" y="117"/>
      <point x="307" y="141" type="curve"/>
      <point x="344" y="106"/>
      <point x="400" y="84"/>
      <point x="471" y="84" type="curve" smooth="yes"/>
      <point x="510" y="84"/>
      <point x="542" y="89"/>
      <point x="569" y="98" type="curve"/>
      <point x="570" y="97" type="line"/>
      <point x="547" y="1"/>
      <point x="487" y="-70"/>
    </contour>
    <contour>
      <point x="673.0" y="-93.0" type="move" name="bottom_deva"/>
    </contour>
    <contour>
      <point x="468.0" y="696.0" type="move" name="center_deva"/>
    </contour>
    <contour>
      <point x="595.0" y="696.0" type="move" name="top_deva"/>
    </contour>
  </outline>
</glyph>
<glyph name="dvD_G_RA" format="1">
  <advance width="577"/>
  <outline>
    <contour>
      <point x="351" y="-190" type="line" name="hr00"/>
      <point x="449" y="-60" type="line"/>
      <point x="474" y="-24" type="line"/>
      <point x="476" y="-23" type="line"/>
      <point x="519" y="-150" type="line"/>
      <point x="536" y="-144" type="line"/>
      <point x="455" y="94" type="line"/>
      <point x="449" y="111" type="line"/>
      <point x="464" y="121"/>
      <point x="468" y="128"/>
      <point x="468" y="140" type="curve" smooth="yes"/>
      <point x="468" y="159"/>
      <point x="457" y="180"/>
      <point x="436" y="180" type="curve" smooth="yes"/>
      <point x="425" y="180"/>
      <point x="414" y="176"/>
      <point x="408" y="171" type="curve"/>
      <point x="426" y="121" type="line"/>
      <point x="403" y="111"/>
      <point x="363" y="102"/>
      <point x="316" y="102" type="curve" smooth="yes"/>
      <point x="179" y="102"/>
      <point x="118" y="184"/>
      <point x="118" y="274" type="curve" smooth="yes"/>
      <point x="118" y="295" type="line" smooth="yes"/>
      <point x="118" y="396"/>
      <point x="185" y="461"/>
      <point x="316" y="461" type="curve" smooth="yes"/>
      <point x="440" y="461" type="line"/>
      <point x="440" y="679" type="line"/>
      <point x="597" y="679" type="line"/>
      <point x="597" y="698" type="line"/>
      <point x="-20" y="698" type="line"/>
      <point x="-20" y="679" type="line"/>
      <point x="419" y="679" type="line"/>
      <point x="419" y="481" type="line"/>
      <point x="314" y="481" type="line" smooth="yes"/>
      <point x="174" y="481"/>
      <point x="96" y="412"/>
      <point x="96" y="287" type="curve" smooth="yes"/>
      <point x="96" y="205"/>
      <point x="131" y="138"/>
      <point x="204" y="106" type="curve"/>
      <point x="245" y="-47" type="line"/>
      <point x="233" y="-51"/>
      <point x="226" y="-59"/>
      <point x="226" y="-73" type="curve" smooth="yes"/>
      <point x="226" y="-94"/>
      <point x="238" y="-109"/>
      <point x="256" y="-109" type="curve" smooth="yes"/>
      <point x="265" y="-109"/>
      <point x="274" y="-106"/>
      <point x="280" y="-102" type="curve"/>
      <point x="227" y="95" type="line"/>
      <point x="228" y="97" type="line"/>
      <point x="255" y="89"/>
      <point x="282" y="84"/>
      <point x="316" y="84" type="curve" smooth="yes"/>
      <point x="364" y="84"/>
      <point x="403" y="91"/>
      <point x="433" y="104" type="curve"/>
      <point x="439" y="86" type="line"/>
      <point x="470" y="-4" type="line"/>
      <point x="335" y="-179" type="line"/>
    </contour>
    <contour>
      <point x="536.0" y="-147.0" type="move" name="bottom_deva"/>
    </contour>
    <contour>
      <point x="313.0" y="696.0" type="move" name="center_deva"/>
    </contour>
    <contour>
      <point x="440.0" y="696.0" type="move" name="top_deva"/>
    </contour>
  </outline>
</glyph>
<glyph name="dvEyelash" format="1">
  <advance width="186"/>
  <outline>
    <contour>
      <point x="-20" y="679" type="line"/>
      <point x="246" y="679" type="line"/>
      <point x="246" y="698" type="line"/>
      <point x="-20" y="698" type="line"/>
    </contour>
    <contour>
      <point x="196" y="294" type="curve" smooth="yes"/>
      <point x="253" y="294"/>
      <point x="300" y="310"/>
      <point x="337" y="333" type="curve" name="hr01"/>
      <point x="328" y="350" type="line"/>
      <point x="290" y="326"/>
      <point x="246" y="313"/>
      <point x="195" y="313" type="curve" smooth="yes"/>
      <point x="147" y="313"/>
      <point x="89" y="324"/>
      <point x="39" y="358" type="curve"/>
      <point x="32" y="341" type="line"/>
      <point x="85" y="307"/>
      <point x="140" y="294"/>
    </contour>
  </outline>
</glyph>
<glyph name="dvG_R" format="1">
  <advance width="291"/>
  <outline>
    <contour>
      <point x="158" y="307" type="curve" smooth="yes"/>
      <point x="163" y="307"/>
      <point x="170" y="308"/>
      <point x="173" y="309" type="curve"/>
      <point x="173" y="679" type="line"/>
      <point x="351" y="679" type="line"/>
      <point x="351" y="698" type="line"/>
      <point x="-20" y="698" type="line"/>
      <point x="-20" y="679" type="line"/>
      <point x="152" y="679" type="line"/>
      <point x="152" y="374" type="line"/>
      <point x="136" y="374"/>
      <point x="124" y="362"/>
      <point x="124" y="341" type="curve" smooth="yes"/>
      <point x="124" y="321"/>
      <point x="136" y="307"/>
    </contour>
    <contour>
      <point x="181" y="-29" type="line"/>
      <point x="373" y="163" type="line"/>
      <point x="434" y="225" type="line" name="hr01"/>
      <point x="423" y="238" type="line"/>
      <point x="166" y="-15" type="line"/>
    </contour>
  </outline>
</glyph>
<glyph name="dvHA_mvR" format="1">
  <advance width="529"/>
  <outline>
    <contour>
      <point x="399" y="-98" type="curve" smooth="yes"/>
      <point x="453" y="-98" type="line"/>
      <point x="453" y="-80" type="line"/>
      <point x="400" y="-80" type="line" smooth="yes"/>
      <point x="209" y="-80"/>
      <point x="135" y="25"/>
      <point x="135" y="138" type="curve" smooth="yes"/>
      <point x="135" y="161" type="line" smooth="yes"/>
      <point x="135" y="258"/>
      <point x="214" y="351"/>
      <point x="340" y="351" type="curve" smooth="yes"/>
      <point x="413" y="351"/>
      <point x="438" y="323"/>
      <point x="438" y="288" type="curve" smooth="yes"/>
      <point x="438" y="257"/>
      <point x="411" y="236"/>
      <point x="381" y="216" type="curve" smooth="yes"/>
      <point x="348" y="194"/>
      <point x="314" y="171"/>
      <point x="314" y="127" type="curve" smooth="yes"/>
      <point x="314" y="75"/>
      <point x="353" y="42"/>
      <point x="439" y="42" type="curve" smooth="yes"/>
      <point x="501" y="42" type="line"/>
      <point x="501" y="61" type="line"/>
      <point x="439" y="61" type="line" smooth="yes"/>
      <point x="364" y="61"/>
      <point x="335" y="85"/>
      <point x="335" y="126" type="curve" smooth="yes"/>
      <point x="335" y="163"/>
      <point x="364" y="182"/>
      <point x="393" y="202" type="curve" smooth="yes"/>
      <point x="425" y="223"/>
      <point x="459" y="244"/>
      <point x="459" y="288" type="curve" smooth="yes"/>
      <point x="459" y="333"/>
      <point x="423" y="370"/>
      <point x="338" y="370" type="curve" smooth="yes"/>
      <point x="276" y="370"/>
      <point x="224" y="349"/>
      <point x="186" y="315" type="curve"/>
      <point x="143" y="346"/>
      <point x="119" y="382"/>
      <point x="119" y="423" type="curve" smooth="yes" name="hr01"/>
      <point x="119" y="473"/>
      <point x="150" y="504"/>
      <point x="218" y="504" type="curve" smooth="yes"/>
      <point x="427" y="504" type="line"/>
      <point x="427" y="679" type="line"/>
      <point x="549" y="679" type="line"/>
      <point x="549" y="698" type="line"/>
      <point x="-20" y="698" type="line"/>
      <point x="-20" y="679" type="line"/>
      <point x="406" y="679" type="line"/>
      <point x="406" y="523" type="line"/>
      <point x="217" y="523" type="line" smooth="yes"/>
      <point x="138" y="523"/>
      <point x="98" y="484"/>
      <point x="98" y="426" type="curve" smooth="yes"/>
      <point x="98" y="380"/>
      <point x="124" y="342"/>
      <point x="170" y="305" type="curve"/>
      <point x="171" y="301" type="line"/>
      <point x="134" y="261"/>
      <point x="113" y="208"/>
      <point x="113" y="151" type="curve" smooth="yes" name="hr02"/>
      <point x="113" y="3"/>
      <point x="206" y="-98"/>
    </contour>
    <contour>
      <point x="303.0" y="696.0" type="move" name="center_deva"/>
    </contour>
    <contour>
      <point x="427.0" y="696.0" type="move" name="top_deva"/>
    </contour>
  </outline>
</glyph>
<glyph name="dvH_NA" format="1">
  <advance width="613"/>
  <outline>
    <contour>
      <point x="357" y="-92" type="curve" smooth="yes"/>
      <point x="422" y="-92" type="line"/>
      <point x="422" y="-74" type="line"/>
      <point x="358" y="-74" type="line" smooth="yes"/>
      <point x="178" y="-74"/>
      <point x="125" y="13"/>
      <point x="125" y="114" type="curve" smooth="yes"/>
      <point x="125" y="136" type="line" smooth="yes"/>
      <point x="125" y="251"/>
      <point x="197" y="321"/>
      <point x="329" y="321" type="curve" smooth="yes"/>
      <point x="407" y="321"/>
      <point x="461" y="298"/>
      <point x="495" y="255" type="curve"/>
      <point x="495" y="252" type="line"/>
      <point x="461" y="235" type="line"/>
      <point x="330" y="168" type="line" smooth="yes"/>
      <point x="315" y="160"/>
      <point x="310" y="151"/>
      <point x="310" y="137" type="curve" smooth="yes"/>
      <point x="310" y="116"/>
      <point x="327" y="92"/>
      <point x="346" y="92" type="curve" smooth="yes"/>
      <point x="356" y="92"/>
      <point x="363" y="96"/>
      <point x="368" y="103" type="curve"/>
      <point x="343" y="153" type="line"/>
      <point x="505" y="238" type="line"/>
      <point x="507" y="238" type="line"/>
      <point x="520" y="213"/>
      <point x="528" y="182"/>
      <point x="528" y="147" type="curve" smooth="yes"/>
      <point x="528" y="63" type="line"/>
      <point x="548" y="63" type="line"/>
      <point x="548" y="147" type="line" smooth="yes"/>
      <point x="548" y="263"/>
      <point x="471" y="340"/>
      <point x="328" y="340" type="curve" smooth="yes"/>
      <point x="264" y="340"/>
      <point x="215" y="326"/>
      <point x="179" y="300" type="curve"/>
      <point x="147" y="330"/>
      <point x="122" y="365"/>
      <point x="122" y="412" type="curve" smooth="yes" name="hr01"/>
      <point x="122" y="466"/>
      <point x="153" y="497"/>
      <point x="221" y="497" type="curve" smooth="yes"/>
      <point x="449" y="497" type="line"/>
      <point x="449" y="679" type="line"/>
      <point x="633" y="679" type="line"/>
      <point x="633" y="698" type="line"/>
      <point x="-20" y="698" type="line"/>
      <point x="-20" y="679" type="line"/>
      <point x="428" y="679" type="line"/>
      <point x="428" y="516" type="line"/>
      <point x="220" y="516" type="line" smooth="yes"/>
      <point x="141" y="516"/>
      <point x="101" y="477"/>
      <point x="101" y="415" type="curve" smooth="yes"/>
      <point x="101" y="364"/>
      <point x="128" y="324"/>
      <point x="163" y="290" type="curve"/>
      <point x="164" y="287" type="line"/>
      <point x="123" y="250"/>
      <point x="103" y="194"/>
      <point x="103" y="126" type="curve" smooth="yes" name="hr02"/>
      <point x="103" y="-7"/>
      <point x="174" y="-92"/>
    </contour>
    <contour>
      <point x="374.0" y="-88.0" type="move" name="bottom_deva"/>
    </contour>
    <contour>
      <point x="336.0" y="696.0" type="move" name="center_deva"/>
    </contour>
    <contour>
      <point x="449.0" y="696.0" type="move" name="top_deva"/>
    </contour>
  </outline>
</glyph>
<glyph name="dvKHx_TA" format="1">
  <advance width="1264"/>
  <outline>
    <component base="dvKH_TA"/>
    <component base="dvNukta" yOffset="1"/>
    <contour>
      <point x="1120.0" y="0.0" type="move" name="bottom_deva"/>
    </contour>
    <contour>
      <point x="950.0" y="696.0" type="move" name="center_deva"/>
    </contour>
    <contour>
      <point x="1120.0" y="696.0" type="move" name="top_deva"/>
    </contour>
  </outline>
</glyph>
<glyph name="dvK_CHA" format="1">
  <advance width="1370"/>
  <outline>
    <contour>
      <point x="423" y="0" type="line"/>
      <point x="444" y="0" type="line"/>
      <point x="444" y="242" type="line" smooth="yes"/>
      <point x="444" y="357"/>
      <point x="522" y="417"/>
      <point x="597" y="417" type="curve" smooth="yes"/>
      <point x="666" y="417"/>
      <point x="709" y="379"/>
      <point x="737" y="325" type="curve"/>
      <point x="723" y="296"/>
      <point x="715" y="267"/>
      <point x="715" y="231" type="curve" smooth="yes"/>
      <point x="715" y="122"/>
      <point x="792" y="34"/>
      <point x="961" y="34" type="curve" smooth="yes"/>
      <point x="977" y="34" type="line" smooth="yes"/>
      <point x="1172" y="34"/>
      <point x="1307" y="160"/>
      <point x="1307" y="355" type="curve" smooth="yes"/>
      <point x="1307" y="458"/>
      <point x="1264" y="506"/>
      <point x="1198" y="511" type="curve"/>
      <point x="1198" y="679" type="line"/>
      <point x="1390" y="679" type="line"/>
      <point x="1390" y="698" type="line"/>
      <point x="-20" y="698" type="line"/>
      <point x="-20" y="679" type="line"/>
      <point x="423" y="679" type="line"/>
      <point x="423" y="389" type="line"/>
      <point x="420" y="389" type="line"/>
      <point x="395" y="437"/>
      <point x="341" y="484"/>
      <point x="254" y="484" type="curve" smooth="yes"/>
      <point x="147" y="484"/>
      <point x="78" y="413"/>
      <point x="78" y="310" type="curve" smooth="yes"/>
      <point x="78" y="203"/>
      <point x="154" y="134"/>
      <point x="257" y="134" type="curve" smooth="yes"/>
      <point x="340" y="134"/>
      <point x="394" y="178"/>
      <point x="420" y="228" type="curve"/>
      <point x="423" y="228" type="line"/>
    </contour>
    <contour>
      <point x="814" y="676" type="line"/>
      <point x="775" y="660"/>
      <point x="726" y="617"/>
      <point x="726" y="545" type="curve" smooth="yes" name="hr01"/>
      <point x="726" y="471"/>
      <point x="772" y="424"/>
      <point x="837" y="405" type="curve"/>
      <point x="837" y="402" type="line"/>
      <point x="805" y="396"/>
      <point x="770" y="374"/>
      <point x="750" y="344" type="curve"/>
      <point x="748" y="344" type="line"/>
      <point x="717" y="398"/>
      <point x="669" y="436"/>
      <point x="597" y="436" type="curve" smooth="yes"/>
      <point x="526" y="436"/>
      <point x="476" y="397"/>
      <point x="447" y="340" type="curve"/>
      <point x="444" y="340" type="line"/>
      <point x="444" y="679" type="line"/>
      <point x="814" y="679" type="line"/>
    </contour>
    <contour>
      <point x="951" y="54" type="line" smooth="yes"/>
      <point x="811" y="54"/>
      <point x="736" y="129"/>
      <point x="736" y="227" type="curve" smooth="yes" name="hr02"/>
      <point x="736" y="330"/>
      <point x="795" y="394"/>
      <point x="902" y="394" type="curve" smooth="yes"/>
      <point x="961" y="394" type="line"/>
      <point x="961" y="413" type="line"/>
      <point x="901" y="413" type="line" smooth="yes"/>
      <point x="805" y="413"/>
      <point x="747" y="466"/>
      <point x="747" y="544" type="curve" smooth="yes" name="hr03"/>
      <point x="747" y="627"/>
      <point x="818" y="679"/>
      <point x="902" y="679" type="curve" smooth="yes"/>
      <point x="1178" y="679" type="line"/>
      <point x="1178" y="512" type="line"/>
      <point x="1111" y="509"/>
      <point x="1069" y="458"/>
      <point x="1069" y="367" type="curve" smooth="yes"/>
      <point x="1069" y="253"/>
      <point x="1123" y="209"/>
      <point x="1223" y="209" type="curve" smooth="yes"/>
      <point x="1255" y="209" type="line"/>
      <point x="1255" y="207" type="line"/>
      <point x="1208" y="117"/>
      <point x="1112" y="54"/>
      <point x="988" y="54" type="curve" smooth="yes"/>
    </contour>
    <contour>
      <point x="1220" y="227" type="line" smooth="yes"/>
      <point x="1129" y="227"/>
      <point x="1090" y="270"/>
      <point x="1090" y="351" type="curve" smooth="yes"/>
      <point x="1090" y="376" type="line" smooth="yes"/>
      <point x="1090" y="446"/>
      <point x="1123" y="494"/>
      <point x="1185" y="494" type="curve" smooth="yes"/>
      <point x="1253" y="494"/>
      <point x="1286" y="445"/>
      <point x="1286" y="374" type="curve" smooth="yes"/>
      <point x="1286" y="342" type="line" smooth="yes"/>
      <point x="1286" y="301"/>
      <point x="1278" y="262"/>
      <point x="1264" y="227" type="curve"/>
    </contour>
    <contour>
      <point x="258" y="153" type="curve" smooth="yes"/>
      <point x="164" y="153"/>
      <point x="101" y="218"/>
      <point x="101" y="298" type="curve" smooth="yes"/>
      <point x="101" y="319" type="line" smooth="yes"/>
      <point x="101" y="397"/>
      <point x="158" y="465"/>
      <point x="255" y="465" type="curve" smooth="yes"/>
      <point x="361" y="465"/>
      <point x="422" y="387"/>
      <point x="422" y="316" type="curve" smooth="yes"/>
      <point x="422" y="302" type="line" smooth="yes"/>
      <point x="422" y="226"/>
      <point x="357" y="153"/>
    </contour>
    <contour>
      <point x="996.0" y="38.0" type="move" name="bottom_deva"/>
    </contour>
    <contour>
      <point x="1014.0" y="696.0" type="move" name="center_deva"/>
    </contour>
    <contour>
      <point x="1198.0" y="696.0" type="move" name="top_deva"/>
    </contour>
  </outline>
</glyph>
<glyph name="dvK_KA" format="1">
  <advance width="1524"/>
  <outline>
    <contour>
      <point x="423" y="0" type="line"/>
      <point x="444" y="0" type="line"/>
      <point x="444" y="246" type="line" smooth="yes"/>
      <point x="444" y="365"/>
      <point x="524" y="441"/>
      <point x="608" y="441" type="curve" smooth="yes"/>
      <point x="677" y="441"/>
      <point x="729" y="402"/>
      <point x="748" y="337" type="curve"/>
      <point x="747" y="330"/>
      <point x="747" y="321"/>
      <point x="747" y="311" type="curve" smooth="yes"/>
      <point x="747" y="204"/>
      <point x="822" y="134"/>
      <point x="922" y="134" type="curve" smooth="yes"/>
      <point x="1006" y="134"/>
      <point x="1064" y="179"/>
      <point x="1087" y="229" type="curve"/>
      <point x="1090" y="229" type="line"/>
      <point x="1090" y="0" type="line"/>
      <point x="1111" y="0" type="line"/>
      <point x="1111" y="247" type="line" smooth="yes"/>
      <point x="1111" y="366"/>
      <point x="1195" y="448"/>
      <point x="1292" y="448" type="curve" smooth="yes" name="hr01"/>
      <point x="1392" y="448"/>
      <point x="1435" y="377"/>
      <point x="1435" y="317" type="curve" smooth="yes"/>
      <point x="1435" y="303" type="line" smooth="yes"/>
      <point x="1435" y="230"/>
      <point x="1395" y="172"/>
      <point x="1289" y="150" type="curve"/>
      <point x="1296" y="130" type="line"/>
      <point x="1412" y="156"/>
      <point x="1457" y="220"/>
      <point x="1457" y="311" type="curve" smooth="yes"/>
      <point x="1457" y="393"/>
      <point x="1400" y="467"/>
      <point x="1293" y="467" type="curve" smooth="yes"/>
      <point x="1198" y="467"/>
      <point x="1143" y="411"/>
      <point x="1114" y="351" type="curve"/>
      <point x="1111" y="351" type="line"/>
      <point x="1111" y="679" type="line"/>
      <point x="1544" y="679" type="line"/>
      <point x="1544" y="698" type="line"/>
      <point x="-20" y="698" type="line"/>
      <point x="-20" y="679" type="line"/>
      <point x="423" y="679" type="line"/>
      <point x="423" y="389" type="line"/>
      <point x="420" y="389" type="line"/>
      <point x="395" y="437"/>
      <point x="342" y="484"/>
      <point x="253" y="484" type="curve" smooth="yes" name="hr02"/>
      <point x="146" y="484"/>
      <point x="78" y="412"/>
      <point x="78" y="310" type="curve" smooth="yes"/>
      <point x="78" y="202"/>
      <point x="155" y="134"/>
      <point x="256" y="134" type="curve" smooth="yes"/>
      <point x="341" y="134"/>
      <point x="398" y="181"/>
      <point x="420" y="229" type="curve"/>
      <point x="423" y="229" type="line"/>
    </contour>
    <contour>
      <point x="444" y="351" type="line"/>
      <point x="444" y="679" type="line"/>
      <point x="1090" y="679" type="line"/>
      <point x="1090" y="389" type="line"/>
      <point x="1087" y="389" type="line"/>
      <point x="1061" y="437"/>
      <point x="1010" y="484"/>
      <point x="919" y="484" type="curve" smooth="yes"/>
      <point x="838" y="484"/>
      <point x="779" y="439"/>
      <point x="757" y="373" type="curve"/>
      <point x="755" y="373" type="line"/>
      <point x="730" y="424"/>
      <point x="678" y="460"/>
      <point x="609" y="460" type="curve" smooth="yes"/>
      <point x="529" y="460"/>
      <point x="476" y="411"/>
      <point x="447" y="351" type="curve"/>
    </contour>
    <contour>
      <point x="257" y="153" type="curve" smooth="yes"/>
      <point x="164" y="153"/>
      <point x="101" y="218"/>
      <point x="101" y="297" type="curve" smooth="yes"/>
      <point x="101" y="319" type="line" smooth="yes"/>
      <point x="101" y="396"/>
      <point x="157" y="465"/>
      <point x="255" y="465" type="curve" smooth="yes"/>
      <point x="361" y="465"/>
      <point x="422" y="387"/>
      <point x="422" y="316" type="curve" smooth="yes"/>
      <point x="422" y="300" type="line" smooth="yes"/>
      <point x="422" y="224"/>
      <point x="354" y="153"/>
    </contour>
    <contour>
      <point x="924" y="153" type="curve" smooth="yes"/>
      <point x="832" y="153"/>
      <point x="768" y="217"/>
      <point x="768" y="303" type="curve" smooth="yes"/>
      <point x="768" y="317" type="line" smooth="yes"/>
      <point x="768" y="397"/>
      <point x="826" y="465"/>
      <point x="922" y="465" type="curve" smooth="yes"/>
      <point x="1028" y="465"/>
      <point x="1089" y="387"/>
      <point x="1089" y="316" type="curve" smooth="yes"/>
      <point x="1089" y="299" type="line" smooth="yes"/>
      <point x="1089" y="225"/>
      <point x="1021" y="153"/>
    </contour>
    <contour>
      <point x="1111.0" y="0.0" type="move" name="bottom_deva"/>
    </contour>
    <contour>
      <point x="1100.0" y="696.0" type="move" name="center_deva"/>
    </contour>
    <contour>
      <point x="1111.0" y="696.0" type="move" name="top_deva"/>
    </contour>
  </outline>
</glyph>
<glyph name="dvK_LA" format="1">
  <advance width="1479"/>
  <outline>
    <contour>
      <point x="423" y="0" type="line"/>
      <point x="444" y="0" type="line"/>
      <point x="444" y="246" type="line" smooth="yes"/>
      <point x="444" y="365"/>
      <point x="524" y="441"/>
      <point x="610" y="441" type="curve" smooth="yes"/>
      <point x="682" y="441"/>
      <point x="728" y="402"/>
      <point x="745" y="344" type="curve"/>
      <point x="740" y="322"/>
      <point x="737" y="298"/>
      <point x="737" y="271" type="curve" smooth="yes"/>
      <point x="737" y="112"/>
      <point x="799" y="29"/>
      <point x="951" y="14" type="curve"/>
      <point x="954" y="33" type="line"/>
      <point x="805" y="46"/>
      <point x="759" y="131"/>
      <point x="759" y="256" type="curve" smooth="yes"/>
      <point x="759" y="283" type="line" smooth="yes"/>
      <point x="759" y="381"/>
      <point x="813" y="445"/>
      <point x="888" y="445" type="curve" smooth="yes" name="hr01"/>
      <point x="972" y="445"/>
      <point x="1030" y="379"/>
      <point x="1031" y="273" type="curve" smooth="yes"/>
      <point x="1032" y="186" type="line"/>
      <point x="1052" y="186" type="line"/>
      <point x="1052" y="271" type="line" smooth="yes"/>
      <point x="1052" y="377"/>
      <point x="1108" y="445"/>
      <point x="1182" y="445" type="curve" smooth="yes"/>
      <point x="1271" y="445"/>
      <point x="1314" y="371"/>
      <point x="1314" y="321" type="curve" smooth="yes"/>
      <point x="1314" y="0" type="line"/>
      <point x="1335" y="0" type="line"/>
      <point x="1335" y="679" type="line"/>
      <point x="1499" y="679" type="line"/>
      <point x="1499" y="698" type="line"/>
      <point x="-20" y="698" type="line"/>
      <point x="-20" y="679" type="line"/>
      <point x="423" y="679" type="line"/>
      <point x="423" y="389" type="line"/>
      <point x="420" y="389" type="line"/>
      <point x="395" y="437"/>
      <point x="342" y="484"/>
      <point x="253" y="484" type="curve" smooth="yes" name="hr02"/>
      <point x="146" y="484"/>
      <point x="78" y="412"/>
      <point x="78" y="310" type="curve" smooth="yes"/>
      <point x="78" y="202"/>
      <point x="155" y="134"/>
      <point x="256" y="134" type="curve" smooth="yes"/>
      <point x="341" y="134"/>
      <point x="398" y="181"/>
      <point x="420" y="229" type="curve"/>
      <point x="423" y="229" type="line"/>
    </contour>
    <contour>
      <point x="1314" y="450" type="line"/>
      <point x="1315" y="385" type="line"/>
      <point x="1313" y="385" type="line"/>
      <point x="1294" y="422"/>
      <point x="1253" y="465"/>
      <point x="1182" y="465" type="curve" smooth="yes"/>
      <point x="1105" y="465"/>
      <point x="1058" y="408"/>
      <point x="1042" y="333" type="curve"/>
      <point x="1040" y="333" type="line"/>
      <point x="1025" y="409"/>
      <point x="972" y="465"/>
      <point x="887" y="465" type="curve" smooth="yes"/>
      <point x="828" y="465"/>
      <point x="781" y="434"/>
      <point x="756" y="376" type="curve"/>
      <point x="753" y="376" type="line"/>
      <point x="729" y="427"/>
      <point x="682" y="460"/>
      <point x="611" y="460" type="curve" smooth="yes"/>
      <point x="529" y="460"/>
      <point x="476" y="411"/>
      <point x="447" y="351" type="curve"/>
      <point x="444" y="351" type="line"/>
      <point x="444" y="679" type="line"/>
      <point x="1314" y="679" type="line"/>
    </contour>
    <contour>
      <point x="257" y="153" type="curve" smooth="yes"/>
      <point x="164" y="153"/>
      <point x="101" y="218"/>
      <point x="101" y="297" type="curve" smooth="yes"/>
      <point x="101" y="319" type="line" smooth="yes"/>
      <point x="101" y="396"/>
      <point x="157" y="465"/>
      <point x="255" y="465" type="curve" smooth="yes"/>
      <point x="361" y="465"/>
      <point x="422" y="387"/>
      <point x="422" y="316" type="curve" smooth="yes"/>
      <point x="422" y="300" type="line" smooth="yes"/>
      <point x="422" y="224"/>
      <point x="354" y="153"/>
    </contour>
    <contour>
      <point x="1335.0" y="0.0" type="move" name="bottom_deva"/>
    </contour>
    <contour>
      <point x="1042.0" y="696.0" type="move" name="center_deva"/>
    </contour>
    <contour>
      <point x="1335.0" y="696.0" type="move" name="top_deva"/>
    </contour>
  </outline>
</glyph>
<glyph name="dvK_S_P_RA" format="1">
  <advance width="1710"/>
  <outline>
    <contour>
      <point x="-20" y="679" type="line" name="hr00"/>
      <point x="423" y="679" type="line"/>
      <point x="423" y="389" type="line"/>
      <point x="420" y="389" type="line"/>
      <point x="395" y="437"/>
      <point x="342" y="484"/>
      <point x="253" y="484" type="curve" smooth="yes"/>
      <point x="146" y="484"/>
      <point x="78" y="412"/>
      <point x="78" y="310" type="curve" smooth="yes"/>
      <point x="78" y="202"/>
      <point x="155" y="134"/>
      <point x="256" y="134" type="curve" smooth="yes"/>
      <point x="341" y="134"/>
      <point x="398" y="181"/>
      <point x="420" y="229" type="curve"/>
      <point x="423" y="229" type="line"/>
      <point x="423" y="0" type="line"/>
      <point x="444" y="0" type="line"/>
      <point x="444" y="246" type="line" smooth="yes"/>
      <point x="444" y="365"/>
      <point x="523" y="423"/>
      <point x="601" y="423" type="curve" smooth="yes"/>
      <point x="673" y="423"/>
      <point x="709" y="389"/>
      <point x="744" y="338" type="curve"/>
      <point x="963" y="-2" type="line"/>
      <point x="979" y="10" type="line"/>
      <point x="832" y="239" type="line"/>
      <point x="769" y="335" type="line"/>
      <point x="769" y="337" type="line"/>
      <point x="1237" y="337" type="line"/>
      <point x="1260" y="276"/>
      <point x="1311" y="246"/>
      <point x="1382" y="246" type="curve" smooth="yes"/>
      <point x="1410" y="246"/>
      <point x="1439" y="252"/>
      <point x="1460" y="263" type="curve"/>
      <point x="1462" y="260" type="line"/>
      <point x="1407" y="206" type="line"/>
      <point x="1199" y="-7" type="line"/>
      <point x="1213" y="-20" type="line"/>
      <point x="1488" y="263" type="line"/>
      <point x="1542" y="323" type="line"/>
      <point x="1545" y="323" type="line"/>
      <point x="1545" y="0" type="line"/>
      <point x="1566" y="0" type="line"/>
      <point x="1566" y="679" type="line"/>
      <point x="1730" y="679" type="line"/>
      <point x="1730" y="698" type="line"/>
      <point x="-20" y="698" type="line"/>
    </contour>
    <contour>
      <point x="1545" y="401" type="line" smooth="yes"/>
      <point x="1545" y="315"/>
      <point x="1467" y="265"/>
      <point x="1384" y="265" type="curve" smooth="yes"/>
      <point x="1293" y="265"/>
      <point x="1244" y="312"/>
      <point x="1244" y="418" type="curve" smooth="yes"/>
      <point x="1244" y="679" type="line"/>
      <point x="1545" y="679" type="line"/>
    </contour>
    <contour>
      <point x="444" y="346" type="line"/>
      <point x="444" y="679" type="line"/>
      <point x="907" y="679" type="line"/>
      <point x="907" y="511" type="line" smooth="yes"/>
      <point x="907" y="408"/>
      <point x="846" y="360"/>
      <point x="754" y="357" type="curve"/>
      <point x="715" y="414"/>
      <point x="667" y="442"/>
      <point x="602" y="442" type="curve" smooth="yes"/>
      <point x="528" y="442"/>
      <point x="480" y="405"/>
      <point x="447" y="346" type="curve"/>
    </contour>
    <contour>
      <point x="828" y="356" type="line"/>
      <point x="885" y="375"/>
      <point x="928" y="420"/>
      <point x="928" y="516" type="curve" smooth="yes"/>
      <point x="928" y="679" type="line"/>
      <point x="1223" y="679" type="line"/>
      <point x="1223" y="424" type="line" smooth="yes"/>
      <point x="1223" y="399"/>
      <point x="1226" y="375"/>
      <point x="1231" y="356" type="curve"/>
      <point x="960" y="356" type="line"/>
      <point x="828" y="355" type="line"/>
    </contour>
    <contour>
      <point x="257" y="153" type="curve" smooth="yes"/>
      <point x="164" y="153"/>
      <point x="101" y="218"/>
      <point x="101" y="297" type="curve" smooth="yes"/>
      <point x="101" y="319" type="line" smooth="yes"/>
      <point x="101" y="396"/>
      <point x="157" y="465"/>
      <point x="255" y="465" type="curve" smooth="yes"/>
      <point x="361" y="465"/>
      <point x="422" y="387"/>
      <point x="422" y="316" type="curve" smooth="yes"/>
      <point x="422" y="300" type="line" smooth="yes"/>
      <point x="422" y="224"/>
      <point x="354" y="153"/>
    </contour>
    <contour>
      <point x="1566.0" y="0.0" type="move" name="bottom_deva"/>
    </contour>
    <contour>
      <point x="1401.0" y="696.0" type="move" name="center_deva"/>
    </contour>
    <contour>
      <point x="1566.0" y="696.0" type="move" name="top_deva"/>
    </contour>
  </outline>
</glyph>
<glyph name="dvK_TA" format="1">
  <advance width="971"/>
  <outline>
    <contour>
      <point x="315" y="21" type="curve"/>
      <point x="327" y="37" type="line"/>
      <point x="228" y="95"/>
      <point x="200" y="165"/>
      <point x="200" y="254" type="curve" smooth="yes"/>
      <point x="200" y="265" type="line" smooth="yes"/>
      <point x="200" y="363"/>
      <point x="251" y="432"/>
      <point x="359" y="432" type="curve" smooth="yes"/>
      <point x="530" y="432" type="line"/>
      <point x="530" y="0" type="line"/>
      <point x="551" y="0" type="line"/>
      <point x="551" y="237" type="line" smooth="yes"/>
      <point x="551" y="357"/>
      <point x="635" y="439"/>
      <point x="733" y="439" type="curve" smooth="yes" name="hr01"/>
      <point x="830" y="439"/>
      <point x="885" y="381"/>
      <point x="885" y="281" type="curve" smooth="yes"/>
      <point x="885" y="252" type="line" smooth="yes"/>
      <point x="885" y="166"/>
      <point x="837" y="100"/>
      <point x="729" y="77" type="curve"/>
      <point x="736" y="56" type="line"/>
      <point x="856" y="89"/>
      <point x="907" y="153"/>
      <point x="907" y="272" type="curve" smooth="yes"/>
      <point x="907" y="397"/>
      <point x="841" y="458"/>
      <point x="734" y="458" type="curve" smooth="yes"/>
      <point x="640" y="458"/>
      <point x="584" y="403"/>
      <point x="554" y="342" type="curve"/>
      <point x="551" y="342" type="line"/>
      <point x="551" y="679" type="line"/>
      <point x="991" y="679" type="line"/>
      <point x="991" y="698" type="line"/>
      <point x="-20" y="698" type="line"/>
      <point x="-20" y="679" type="line"/>
      <point x="530" y="679" type="line"/>
      <point x="530" y="451" type="line" name="hr02"/>
      <point x="60" y="451" type="line"/>
      <point x="60" y="432" type="line"/>
      <point x="193" y="432" type="line"/>
      <point x="269" y="434" type="line"/>
      <point x="270" y="432" type="line"/>
      <point x="207" y="403"/>
      <point x="178" y="340"/>
      <point x="178" y="260" type="curve" smooth="yes"/>
      <point x="178" y="158"/>
      <point x="212" y="86"/>
    </contour>
    <contour>
      <point x="551.0" y="0.0" type="move" name="bottom_deva"/>
    </contour>
    <contour>
      <point x="541.0" y="696.0" type="move" name="center_deva"/>
    </contour>
    <contour>
      <point x="551.0" y="696.0" type="move" name="top_deva"/>
    </contour>
  </outline>
</glyph>
<glyph name="dvKx_PHxA" format="1">
  <advance width="1489"/>
  <outline>
    <component base="dvK_PHA"/>
    <component base="dvNukta" yOffset="1"/>
    <component base="dvNukta" xOffset="664" yOffset="4"/>
    <contour>
      <point x="1076.0" y="0.0" type="move" name="bottom_deva"/>
    </contour>
    <contour>
      <point x="1065.0" y="696.0" type="move" name="center_deva"/>
    </contour>
    <contour>
      <point x="1076.0" y="696.0" type="move" name="top_deva"/>
    </contour>
  </outline>
</glyph>
<glyph name="dvL_BHA" format="1">
  <advance width="1127"/>
  <outline>
    <contour>
      <point x="302" y="14" type="curve" name="hr00"/>
      <point x="305" y="33" type="line"/>
      <point x="150" y="46"/>
      <point x="110" y="140"/>
      <point x="110" y="253" type="curve" smooth="yes"/>
      <point x="110" y="283" type="line" smooth="yes"/>
      <point x="110" y="381"/>
      <point x="164" y="445"/>
      <point x="239" y="445" type="curve" smooth="yes"/>
      <point x="325" y="445"/>
      <point x="382" y="376"/>
      <point x="382" y="275" type="curve" smooth="yes"/>
      <point x="382" y="186" type="line"/>
      <point x="403" y="186" type="line"/>
      <point x="403" y="273" type="line" smooth="yes"/>
      <point x="403" y="375"/>
      <point x="460" y="445"/>
      <point x="534" y="445" type="curve" smooth="yes"/>
      <point x="600" y="445"/>
      <point x="644" y="402"/>
      <point x="658" y="353" type="curve"/>
      <point x="642" y="350"/>
      <point x="634" y="336"/>
      <point x="634" y="321" type="curve" smooth="yes"/>
      <point x="634" y="302"/>
      <point x="644" y="288"/>
      <point x="664" y="288" type="curve" smooth="yes"/>
      <point x="670" y="288"/>
      <point x="676" y="289"/>
      <point x="680" y="291" type="curve"/>
      <point x="680" y="335" type="line"/>
      <point x="962" y="335" type="line"/>
      <point x="962" y="0" type="line"/>
      <point x="983" y="0" type="line"/>
      <point x="983" y="679" type="line"/>
      <point x="1147" y="679" type="line"/>
      <point x="1147" y="698" type="line"/>
      <point x="962" y="698" type="line"/>
      <point x="962" y="354" type="line"/>
      <point x="680" y="354" type="line"/>
      <point x="680" y="675" type="line" smooth="yes"/>
      <point x="680" y="692"/>
      <point x="672" y="698"/>
      <point x="658" y="698" type="curve" smooth="yes"/>
      <point x="-20" y="698" type="line"/>
      <point x="-20" y="679" type="line"/>
      <point x="659" y="679" type="line"/>
      <point x="659" y="447" type="line"/>
      <point x="661" y="392" type="line"/>
      <point x="658" y="392" type="line"/>
      <point x="638" y="432"/>
      <point x="593" y="465"/>
      <point x="534" y="465" type="curve" smooth="yes"/>
      <point x="456" y="465"/>
      <point x="409" y="408"/>
      <point x="393" y="333" type="curve"/>
      <point x="391" y="333" type="line"/>
      <point x="376" y="409"/>
      <point x="323" y="465"/>
      <point x="238" y="465" type="curve" smooth="yes"/>
      <point x="150" y="465"/>
      <point x="88" y="395"/>
      <point x="88" y="271" type="curve" smooth="yes"/>
      <point x="88" y="111"/>
      <point x="151" y="29"/>
    </contour>
    <contour>
      <point x="983.0" y="0.0" type="move" name="bottom_deva"/>
    </contour>
    <contour>
      <point x="815.0" y="696.0" type="move" name="center_deva"/>
    </contour>
    <contour>
      <point x="983.0" y="696.0" type="move" name="top_deva"/>
    </contour>
  </outline>
</glyph>
<glyph name="dvL_DA" format="1">
  <advance width="1133"/>
  <outline>
    <contour>
      <point x="-20" y="679" type="line"/>
      <point x="975" y="679" type="line"/>
      <point x="975" y="481" type="line"/>
      <point x="870" y="481" type="line" smooth="yes"/>
      <point x="767" y="481"/>
      <point x="696" y="439"/>
      <point x="670" y="375" type="curve"/>
      <point x="668" y="375" type="line"/>
      <point x="646" y="429"/>
      <point x="595" y="465"/>
      <point x="534" y="465" type="curve" smooth="yes" name="hr01"/>
      <point x="456" y="465"/>
      <point x="409" y="408"/>
      <point x="393" y="333" type="curve"/>
      <point x="391" y="333" type="line"/>
      <point x="376" y="409"/>
      <point x="323" y="465"/>
      <point x="238" y="465" type="curve" smooth="yes"/>
      <point x="150" y="465"/>
      <point x="88" y="395"/>
      <point x="88" y="271" type="curve" smooth="yes"/>
      <point x="88" y="111"/>
      <point x="151" y="29"/>
      <point x="302" y="14" type="curve"/>
      <point x="305" y="33" type="line"/>
      <point x="150" y="46"/>
      <point x="110" y="140"/>
      <point x="110" y="253" type="curve" smooth="yes"/>
      <point x="110" y="283" type="line" smooth="yes"/>
      <point x="110" y="381"/>
      <point x="164" y="445"/>
      <point x="239" y="445" type="curve" smooth="yes"/>
      <point x="325" y="445"/>
      <point x="382" y="376"/>
      <point x="382" y="275" type="curve" smooth="yes"/>
      <point x="382" y="186" type="line"/>
      <point x="403" y="186" type="line"/>
      <point x="403" y="273" type="line" smooth="yes"/>
      <point x="403" y="375"/>
      <point x="460" y="445"/>
      <point x="534" y="445" type="curve" smooth="yes"/>
      <point x="601" y="445"/>
      <point x="645" y="398"/>
      <point x="659" y="348" type="curve"/>
      <point x="654" y="324"/>
      <point x="652" y="309"/>
      <point x="652" y="287" type="curve" smooth="yes"/>
      <point x="652" y="171"/>
      <point x="724" y="83"/>
      <point x="872" y="83" type="curve" smooth="yes"/>
      <point x="920" y="83"/>
      <point x="959" y="91"/>
      <point x="989" y="104" type="curve"/>
      <point x="995" y="86" type="line"/>
      <point x="1042" y="-52" type="line"/>
      <point x="1059" y="-46" type="line"/>
      <point x="1011" y="94" type="line"/>
      <point x="1005" y="111" type="line"/>
      <point x="1020" y="121"/>
      <point x="1024" y="128"/>
      <point x="1024" y="140" type="curve" smooth="yes"/>
      <point x="1024" y="159"/>
      <point x="1013" y="180"/>
      <point x="992" y="180" type="curve" smooth="yes"/>
      <point x="981" y="180"/>
      <point x="970" y="176"/>
      <point x="964" y="171" type="curve"/>
      <point x="982" y="121" type="line"/>
      <point x="959" y="111"/>
      <point x="919" y="102"/>
      <point x="872" y="102" type="curve" smooth="yes"/>
      <point x="735" y="102"/>
      <point x="674" y="184"/>
      <point x="674" y="274" type="curve" smooth="yes"/>
      <point x="674" y="295" type="line" smooth="yes"/>
      <point x="674" y="396"/>
      <point x="741" y="461"/>
      <point x="872" y="461" type="curve" smooth="yes" name="hr02"/>
      <point x="996" y="461" type="line"/>
      <point x="996" y="679" type="line"/>
      <point x="1153" y="679" type="line"/>
      <point x="1153" y="698" type="line"/>
      <point x="-20" y="698" type="line"/>
    </contour>
    <contour>
      <point x="1059.0" y="-49.0" type="move" name="bottom_deva"/>
    </contour>
    <contour>
      <point x="869.0" y="696.0" type="move" name="center_deva"/>
    </contour>
    <contour>
      <point x="996.0" y="696.0" type="move" name="top_deva"/>
    </contour>
  </outline>
</glyph>
<glyph name="dvL_GA" format="1">
  <advance width="1116"/>
  <outline>
    <contour>
      <point x="302" y="14" type="curve"/>
      <point x="305" y="33" type="line"/>
      <point x="150" y="46"/>
      <point x="110" y="140"/>
      <point x="110" y="253" type="curve" smooth="yes"/>
      <point x="110" y="283" type="line" smooth="yes"/>
      <point x="110" y="381"/>
      <point x="164" y="445"/>
      <point x="239" y="445" type="curve" smooth="yes"/>
      <point x="325" y="445"/>
      <point x="382" y="376"/>
      <point x="382" y="275" type="curve" smooth="yes"/>
      <point x="382" y="186" type="line"/>
      <point x="403" y="186" type="line"/>
      <point x="403" y="273" type="line" smooth="yes"/>
      <point x="403" y="375"/>
      <point x="459" y="445"/>
      <point x="534" y="445" type="curve" smooth="yes"/>
      <point x="588" y="445"/>
      <point x="627" y="417"/>
      <point x="650" y="373" type="curve"/>
      <point x="636" y="369"/>
      <point x="628" y="358"/>
      <point x="628" y="341" type="curve" smooth="yes"/>
      <point x="628" y="321"/>
      <point x="640" y="307"/>
      <point x="662" y="307" type="curve" smooth="yes"/>
      <point x="667" y="307"/>
      <point x="674" y="308"/>
      <point x="677" y="309" type="curve"/>
      <point x="677" y="679" type="line"/>
      <point x="951" y="679" type="line"/>
      <point x="951" y="0" type="line"/>
      <point x="972" y="0" type="line"/>
      <point x="972" y="679" type="line"/>
      <point x="1136" y="679" type="line"/>
      <point x="1136" y="698" type="line"/>
      <point x="-20" y="698" type="line"/>
      <point x="-20" y="679" type="line"/>
      <point x="656" y="679" type="line"/>
      <point x="656" y="451" type="line"/>
      <point x="658" y="397" type="line"/>
      <point x="656" y="397" type="line"/>
      <point x="635" y="430"/>
      <point x="595" y="464"/>
      <point x="535" y="464" type="curve" smooth="yes" name="hr01"/>
      <point x="458" y="464"/>
      <point x="409" y="408"/>
      <point x="393" y="333" type="curve"/>
      <point x="391" y="333" type="line"/>
      <point x="376" y="409"/>
      <point x="323" y="465"/>
      <point x="238" y="465" type="curve" smooth="yes" name="hr02"/>
      <point x="150" y="465"/>
      <point x="88" y="395"/>
      <point x="88" y="271" type="curve" smooth="yes"/>
      <point x="88" y="111"/>
      <point x="151" y="29"/>
    </contour>
    <contour>
      <point x="972.0" y="0.0" type="move" name="bottom_deva"/>
    </contour>
    <contour>
      <point x="817.0" y="696.0" type="move" name="center_deva"/>
    </contour>
    <contour>
      <point x="972.0" y="696.0" type="move" name="top_deva"/>
    </contour>
  </outline>
</glyph>
<glyph name="dvL_KHA" format="1">
  <advance width="1487"/>
  <outline>
    <contour>
      <point x="-20" y="679" type="line"/>
      <point x="842" y="679" type="line"/>
      <point x="842" y="503" type="line" smooth="yes"/>
      <point x="842" y="393"/>
      <point x="796" y="351"/>
      <point x="670" y="351" type="curve"/>
      <point x="652" y="419"/>
      <point x="609" y="465"/>
      <point x="537" y="465" type="curve" smooth="yes"/>
      <point x="459" y="465"/>
      <point x="409" y="408"/>
      <point x="393" y="333" type="curve"/>
      <point x="391" y="333" type="line"/>
      <point x="376" y="409"/>
      <point x="323" y="465"/>
      <point x="238" y="465" type="curve" smooth="yes"/>
      <point x="150" y="465"/>
      <point x="88" y="395"/>
      <point x="88" y="271" type="curve" smooth="yes"/>
      <point x="88" y="111"/>
      <point x="151" y="29"/>
      <point x="302" y="14" type="curve"/>
      <point x="305" y="33" type="line"/>
      <point x="150" y="46"/>
      <point x="110" y="140"/>
      <point x="110" y="253" type="curve" smooth="yes"/>
      <point x="110" y="283" type="line" smooth="yes"/>
      <point x="110" y="381"/>
      <point x="164" y="445"/>
      <point x="239" y="445" type="curve" smooth="yes"/>
      <point x="325" y="445"/>
      <point x="381" y="376"/>
      <point x="382" y="275" type="curve" smooth="yes"/>
      <point x="383" y="186" type="line"/>
      <point x="403" y="186" type="line"/>
      <point x="403" y="273" type="line" smooth="yes"/>
      <point x="403" y="375"/>
      <point x="460" y="445"/>
      <point x="536" y="445" type="curve" smooth="yes"/>
      <point x="607" y="445"/>
      <point x="641" y="396"/>
      <point x="655" y="332" type="curve"/>
      <point x="756" y="170" type="line" smooth="yes"/>
      <point x="828" y="55"/>
      <point x="910" y="10"/>
      <point x="1072" y="10" type="curve" smooth="yes"/>
      <point x="1123" y="10" type="line"/>
      <point x="1123" y="29" type="line"/>
      <point x="1065" y="29" type="line" smooth="yes"/>
      <point x="921" y="29"/>
      <point x="843" y="68"/>
      <point x="773" y="180" type="curve" smooth="yes"/>
      <point x="678" y="331" type="line"/>
      <point x="678" y="333" type="line"/>
      <point x="812" y="333"/>
      <point x="863" y="386"/>
      <point x="863" y="507" type="curve" smooth="yes"/>
      <point x="863" y="679" type="line"/>
      <point x="1322" y="679" type="line"/>
      <point x="1322" y="417" type="line"/>
      <point x="1319" y="417" type="line"/>
      <point x="1297" y="449"/>
      <point x="1251" y="489"/>
      <point x="1166" y="489" type="curve" smooth="yes"/>
      <point x="1073" y="489"/>
      <point x="1012" y="431"/>
      <point x="1012" y="348" type="curve" smooth="yes"/>
      <point x="1012" y="265"/>
      <point x="1073" y="205"/>
      <point x="1166" y="205" type="curve" smooth="yes"/>
      <point x="1247" y="205"/>
      <point x="1298" y="245"/>
      <point x="1319" y="279" type="curve"/>
      <point x="1322" y="279" type="line"/>
      <point x="1322" y="0" type="line" name="hr01"/>
      <point x="1343" y="0" type="line"/>
      <point x="1343" y="679" type="line"/>
      <point x="1507" y="679" type="line"/>
      <point x="1507" y="698" type="line"/>
      <point x="-20" y="698" type="line"/>
    </contour>
    <contour>
      <point x="1168" y="224" type="curve" smooth="yes"/>
      <point x="1083" y="224"/>
      <point x="1033" y="279"/>
      <point x="1033" y="340" type="curve" smooth="yes"/>
      <point x="1033" y="354" type="line" smooth="yes"/>
      <point x="1033" y="415"/>
      <point x="1083" y="470"/>
      <point x="1168" y="470" type="curve" smooth="yes"/>
      <point x="1263" y="470"/>
      <point x="1322" y="413"/>
      <point x="1322" y="352" type="curve" smooth="yes"/>
      <point x="1322" y="342" type="line" smooth="yes"/>
      <point x="1322" y="281"/>
      <point x="1263" y="224"/>
    </contour>
    <contour>
      <point x="1343.0" y="0.0" type="move" name="bottom_deva"/>
    </contour>
    <contour>
      <point x="1091.0" y="696.0" type="move" name="center_deva"/>
    </contour>
    <contour>
      <point x="1343.0" y="696.0" type="move" name="top_deva"/>
    </contour>
  </outline>
</glyph>
<glyph name="dvL_SA" format="1">
  <advance width="1274"/>
  <outline>
    <contour>
      <point x="-20" y="679" type="line" name="hr00"/>
      <point x="826" y="679" type="line"/>
      <point x="826" y="511" type="line" smooth="yes"/>
      <point x="826" y="409"/>
      <point x="766" y="361"/>
      <point x="669" y="357" type="curve"/>
      <point x="649" y="421"/>
      <point x="607" y="465"/>
      <point x="533" y="465" type="curve" smooth="yes"/>
      <point x="454" y="465"/>
      <point x="409" y="407"/>
      <point x="393" y="333" type="curve"/>
      <point x="391" y="333" type="line"/>
      <point x="376" y="409"/>
      <point x="323" y="465"/>
      <point x="238" y="465" type="curve" smooth="yes"/>
      <point x="150" y="465"/>
      <point x="88" y="395"/>
      <point x="88" y="271" type="curve" smooth="yes"/>
      <point x="88" y="111"/>
      <point x="151" y="29"/>
      <point x="302" y="14" type="curve"/>
      <point x="305" y="33" type="line"/>
      <point x="150" y="46"/>
      <point x="110" y="140"/>
      <point x="110" y="253" type="curve" smooth="yes"/>
      <point x="110" y="283" type="line" smooth="yes"/>
      <point x="110" y="381"/>
      <point x="164" y="445"/>
      <point x="239" y="445" type="curve" smooth="yes"/>
      <point x="325" y="445"/>
      <point x="382" y="376"/>
      <point x="382" y="275" type="curve" smooth="yes"/>
      <point x="382" y="186" type="line"/>
      <point x="403" y="186" type="line"/>
      <point x="403" y="273" type="line" smooth="yes"/>
      <point x="403" y="375"/>
      <point x="455" y="445"/>
      <point x="531" y="445" type="curve" smooth="yes"/>
      <point x="598" y="445"/>
      <point x="637" y="407"/>
      <point x="655" y="335" type="curve"/>
      <point x="872" y="-2" type="line"/>
      <point x="888" y="10" type="line"/>
      <point x="741" y="239" type="line"/>
      <point x="678" y="335" type="line"/>
      <point x="678" y="337" type="line"/>
      <point x="1109" y="337" type="line"/>
      <point x="1109" y="0" type="line"/>
      <point x="1130" y="0" type="line"/>
      <point x="1130" y="679" type="line"/>
      <point x="1294" y="679" type="line"/>
      <point x="1294" y="698" type="line"/>
      <point x="-20" y="698" type="line"/>
    </contour>
    <contour>
      <point x="747" y="356" type="line"/>
      <point x="804" y="375"/>
      <point x="847" y="420"/>
      <point x="847" y="516" type="curve" smooth="yes"/>
      <point x="847" y="679" type="line"/>
      <point x="1109" y="679" type="line"/>
      <point x="1109" y="356" type="line"/>
      <point x="869" y="356" type="line"/>
      <point x="747" y="355" type="line"/>
    </contour>
    <contour>
      <point x="1130.0" y="0.0" type="move" name="bottom_deva"/>
    </contour>
    <contour>
      <point x="983.0" y="696.0" type="move" name="center_deva"/>
    </contour>
    <contour>
      <point x="1130.0" y="696.0" type="move" name="top_deva"/>
    </contour>
  </outline>
</glyph>
<glyph name="dvL_SHA" format="1">
  <advance width="1340"/>
  <outline>
    <contour>
      <point x="1175" y="0" type="line"/>
      <point x="1196" y="0" type="line"/>
      <point x="1196" y="679" type="line"/>
      <point x="1360" y="679" type="line"/>
      <point x="1360" y="698" type="line"/>
      <point x="1175" y="698" type="line"/>
    </contour>
    <contour>
      <point x="-20" y="679" type="line"/>
      <point x="589" y="679" type="line"/>
      <point x="589" y="698" type="line"/>
      <point x="-20" y="698" type="line"/>
    </contour>
    <contour>
      <point x="969" y="3" type="line"/>
      <point x="983" y="17" type="line"/>
      <point x="770" y="229" type="line"/>
      <point x="696" y="303" type="line"/>
      <point x="697" y="304" type="line"/>
      <point x="767" y="304" type="line" smooth="yes"/>
      <point x="936" y="304"/>
      <point x="1016" y="378"/>
      <point x="1016" y="515" type="curve" smooth="yes"/>
      <point x="1016" y="631"/>
      <point x="946" y="694"/>
      <point x="852" y="694" type="curve" smooth="yes" name="hr01"/>
      <point x="772" y="694"/>
      <point x="715" y="653"/>
      <point x="682" y="561" type="curve"/>
      <point x="703" y="553" type="line"/>
      <point x="733" y="642"/>
      <point x="785" y="674"/>
      <point x="854" y="674" type="curve" smooth="yes"/>
      <point x="934" y="674"/>
      <point x="994" y="617"/>
      <point x="994" y="526" type="curve" smooth="yes"/>
      <point x="994" y="503" type="line" smooth="yes"/>
      <point x="994" y="396"/>
      <point x="930" y="323"/>
      <point x="765" y="323" type="curve" smooth="yes"/>
      <point x="683" y="323" type="line"/>
      <point x="671" y="418"/>
      <point x="612" y="465"/>
      <point x="538" y="465" type="curve" smooth="yes"/>
      <point x="459" y="465"/>
      <point x="409" y="408"/>
      <point x="393" y="333" type="curve"/>
      <point x="391" y="333" type="line"/>
      <point x="376" y="408"/>
      <point x="323" y="465"/>
      <point x="238" y="465" type="curve" smooth="yes"/>
      <point x="150" y="465"/>
      <point x="88" y="396"/>
      <point x="88" y="271" type="curve" smooth="yes"/>
      <point x="88" y="111"/>
      <point x="150" y="30"/>
      <point x="302" y="14" type="curve"/>
      <point x="305" y="33" type="line"/>
      <point x="155" y="45"/>
      <point x="110" y="136"/>
      <point x="110" y="250" type="curve" smooth="yes"/>
      <point x="110" y="283" type="line" smooth="yes"/>
      <point x="110" y="382"/>
      <point x="164" y="445"/>
      <point x="239" y="445" type="curve" smooth="yes"/>
      <point x="325" y="445"/>
      <point x="382" y="378"/>
      <point x="382" y="275" type="curve" smooth="yes"/>
      <point x="382" y="186" type="line"/>
      <point x="403" y="186" type="line"/>
      <point x="403" y="273" type="line" smooth="yes"/>
      <point x="403" y="377"/>
      <point x="460" y="446"/>
      <point x="537" y="446" type="curve" smooth="yes" name="hr02"/>
      <point x="608" y="446"/>
      <point x="657" y="402"/>
      <point x="666" y="307" type="curve"/>
    </contour>
    <contour>
      <point x="1196.0" y="0.0" type="move" name="bottom_deva"/>
    </contour>
    <contour>
      <point x="1046.0" y="696.0" type="move" name="center_deva"/>
    </contour>
    <contour>
      <point x="1196.0" y="696.0" type="move" name="top_deva"/>
    </contour>
  </outline>
</glyph>
<glyph name="dvL_V_DDA" format="1">
  <advance width="1445"/>
  <outline>
    <contour>
      <point x="-20" y="679" type="line"/>
      <point x="1291" y="679" type="line"/>
      <point x="1291" y="501" type="line"/>
      <point x="1146" y="501" type="line" smooth="yes"/>
      <point x="1077" y="501"/>
      <point x="1034" y="475"/>
      <point x="1021" y="427" type="curve"/>
      <point x="1018" y="427" type="line"/>
      <point x="989" y="482"/>
      <point x="927" y="520"/>
      <point x="839" y="520" type="curve" smooth="yes"/>
      <point x="752" y="520"/>
      <point x="688" y="474"/>
      <point x="667" y="413" type="curve"/>
      <point x="665" y="413" type="line"/>
      <point x="643" y="463"/>
      <point x="597" y="495"/>
      <point x="535" y="495" type="curve" smooth="yes"/>
      <point x="458" y="495"/>
      <point x="409" y="438"/>
      <point x="393" y="363" type="curve"/>
      <point x="391" y="363" type="line"/>
      <point x="375" y="439"/>
      <point x="323" y="495"/>
      <point x="238" y="495" type="curve" smooth="yes"/>
      <point x="150" y="495"/>
      <point x="88" y="426"/>
      <point x="88" y="301" type="curve" smooth="yes"/>
      <point x="88" y="142"/>
      <point x="150" y="59"/>
      <point x="302" y="44" type="curve"/>
      <point x="305" y="63" type="line"/>
      <point x="149" y="76"/>
      <point x="110" y="170"/>
      <point x="110" y="282" type="curve" smooth="yes"/>
      <point x="110" y="313" type="line" smooth="yes"/>
      <point x="110" y="412"/>
      <point x="164" y="475"/>
      <point x="239" y="475" type="curve" smooth="yes"/>
      <point x="325" y="475"/>
      <point x="382" y="408"/>
      <point x="382" y="305" type="curve" smooth="yes"/>
      <point x="382" y="216" type="line"/>
      <point x="403" y="216" type="line"/>
      <point x="403" y="303" type="line" smooth="yes"/>
      <point x="403" y="407"/>
      <point x="461" y="476"/>
      <point x="535" y="476" type="curve" smooth="yes" name="hr01"/>
      <point x="606" y="476"/>
      <point x="643" y="431"/>
      <point x="658" y="382" type="curve"/>
      <point x="656" y="368"/>
      <point x="655" y="357"/>
      <point x="655" y="343" type="curve" smooth="yes"/>
      <point x="655" y="229"/>
      <point x="743" y="166"/>
      <point x="845" y="166" type="curve" smooth="yes"/>
      <point x="951" y="166"/>
      <point x="1029" y="227"/>
      <point x="1035" y="327" type="curve"/>
      <point x="1038" y="328" type="line"/>
      <point x="1057" y="301"/>
      <point x="1094" y="285"/>
      <point x="1155" y="285" type="curve" smooth="yes"/>
      <point x="1213" y="285" type="line" smooth="yes"/>
      <point x="1296" y="285"/>
      <point x="1343" y="250"/>
      <point x="1343" y="184" type="curve" smooth="yes"/>
      <point x="1343" y="169" type="line" smooth="yes"/>
      <point x="1343" y="102"/>
      <point x="1292" y="57"/>
      <point x="1191" y="57" type="curve" smooth="yes"/>
      <point x="1108" y="57"/>
      <point x="1049" y="81"/>
      <point x="991" y="132" type="curve"/>
      <point x="979" y="115" type="line"/>
      <point x="1041" y="65"/>
      <point x="1102" y="37"/>
      <point x="1193" y="37" type="curve" smooth="yes"/>
      <point x="1304" y="37"/>
      <point x="1365" y="91"/>
      <point x="1365" y="176" type="curve" smooth="yes"/>
      <point x="1365" y="261"/>
      <point x="1309" y="304"/>
      <point x="1214" y="304" type="curve" smooth="yes"/>
      <point x="1147" y="304" type="line" smooth="yes"/>
      <point x="1067" y="304"/>
      <point x="1038" y="339"/>
      <point x="1038" y="389" type="curve" smooth="yes"/>
      <point x="1038" y="402" type="line" smooth="yes"/>
      <point x="1038" y="449"/>
      <point x="1071" y="482"/>
      <point x="1145" y="482" type="curve" smooth="yes" name="hr02"/>
      <point x="1312" y="482" type="line"/>
      <point x="1312" y="679" type="line"/>
      <point x="1465" y="679" type="line"/>
      <point x="1465" y="698" type="line"/>
      <point x="-20" y="698" type="line"/>
    </contour>
    <contour>
      <point x="848" y="185" type="curve" smooth="yes"/>
      <point x="745" y="185"/>
      <point x="676" y="249"/>
      <point x="676" y="334" type="curve" smooth="yes"/>
      <point x="676" y="355" type="line" smooth="yes"/>
      <point x="676" y="432"/>
      <point x="736" y="501"/>
      <point x="840" y="501" type="curve" smooth="yes"/>
      <point x="949" y="501"/>
      <point x="1017" y="437"/>
      <point x="1017" y="356" type="curve" smooth="yes"/>
      <point x="1017" y="334" type="line" smooth="yes"/>
      <point x="1017" y="255"/>
      <point x="954" y="185"/>
    </contour>
    <contour>
      <point x="1197.0" y="39.0" type="move" name="bottom_deva"/>
    </contour>
    <contour>
      <point x="1143.0" y="696.0" type="move" name="center_deva"/>
    </contour>
    <contour>
      <point x="1312.0" y="696.0" type="move" name="top_deva"/>
    </contour>
  </outline>
</glyph>
<glyph name="dvM" format="1">
  <advance width="343"/>
  <outline>
    <contour>
      <point x="142" y="288" type="curve" smooth="yes" name="hr00"/>
      <point x="148" y="288"/>
      <point x="154" y="289"/>
      <point x="158" y="291" type="curve"/>
      <point x="158" y="335" type="line"/>
      <point x="478" y="335" type="line"/>
      <point x="478" y="354" type="line"/>
      <point x="158" y="354" type="line"/>
      <point x="158" y="679" type="line"/>
      <point x="386" y="679" type="line"/>
      <point x="386" y="698" type="line"/>
      <point x="-20" y="698" type="line"/>
      <point x="-20" y="679" type="line"/>
      <point x="137" y="679" type="line"/>
      <point x="137" y="353" type="line"/>
      <point x="121" y="351"/>
      <point x="112" y="339"/>
      <point x="112" y="321" type="curve" smooth="yes"/>
      <point x="112" y="302"/>
      <point x="121" y="288"/>
    </contour>
  </outline>
</glyph>
<glyph name="dvM_HA" format="1">
  <advance width="912"/>
  <outline>
    <contour>
      <point x="142" y="288" type="curve" smooth="yes"/>
      <point x="148" y="288"/>
      <point x="154" y="289"/>
      <point x="158" y="291" type="curve"/>
      <point x="158" y="335" type="line"/>
      <point x="476" y="335" type="line"/>
      <point x="489" y="314"/>
      <point x="507" y="295"/>
      <point x="530" y="277" type="curve"/>
      <point x="530" y="276" type="line"/>
      <point x="486" y="242"/>
      <point x="466" y="187"/>
      <point x="466" y="122" type="curve" smooth="yes"/>
      <point x="466" y="-15"/>
      <point x="569" y="-81"/>
      <point x="716" y="-81" type="curve" smooth="yes"/>
      <point x="790" y="-81" type="line"/>
      <point x="790" y="-63" type="line"/>
      <point x="717" y="-63" type="line" smooth="yes"/>
      <point x="565" y="-63"/>
      <point x="488" y="9"/>
      <point x="488" y="109" type="curve" smooth="yes"/>
      <point x="488" y="135" type="line" smooth="yes"/>
      <point x="488" y="216"/>
      <point x="537" y="294"/>
      <point x="656" y="294" type="curve" smooth="yes"/>
      <point x="753" y="294"/>
      <point x="815" y="238"/>
      <point x="815" y="152" type="curve" smooth="yes"/>
      <point x="815" y="110" type="line"/>
      <point x="835" y="110" type="line"/>
      <point x="835" y="152" type="line" smooth="yes"/>
      <point x="835" y="247"/>
      <point x="766" y="313"/>
      <point x="656" y="313" type="curve" smooth="yes"/>
      <point x="612" y="313"/>
      <point x="576" y="304"/>
      <point x="548" y="287" type="curve"/>
      <point x="504" y="316"/>
      <point x="479" y="356"/>
      <point x="479" y="402" type="curve" smooth="yes" name="hr01"/>
      <point x="479" y="456"/>
      <point x="513" y="487"/>
      <point x="578" y="487" type="curve" smooth="yes"/>
      <point x="784" y="487" type="line"/>
      <point x="784" y="679" type="line"/>
      <point x="932" y="679" type="line"/>
      <point x="932" y="698" type="line"/>
      <point x="-20" y="698" type="line"/>
      <point x="-20" y="679" type="line"/>
      <point x="137" y="679" type="line"/>
      <point x="137" y="353" type="line"/>
      <point x="121" y="351"/>
      <point x="112" y="339"/>
      <point x="112" y="321" type="curve" smooth="yes"/>
      <point x="112" y="302"/>
      <point x="121" y="288"/>
    </contour>
    <contour>
      <point x="575" y="507" type="line" smooth="yes"/>
      <point x="499" y="507"/>
      <point x="457" y="467"/>
      <point x="457" y="405" type="curve" smooth="yes"/>
      <point x="457" y="387"/>
      <point x="460" y="372"/>
      <point x="466" y="356" type="curve" name="hr02"/>
      <point x="465" y="354" type="line"/>
      <point x="158" y="354" type="line"/>
      <point x="158" y="679" type="line"/>
      <point x="763" y="679" type="line"/>
      <point x="763" y="507" type="line"/>
    </contour>
    <contour>
      <point x="735.0" y="-77.0" type="move" name="bottom_deva"/>
    </contour>
    <contour>
      <point x="632.0" y="696.0" type="move" name="center_deva"/>
    </contour>
    <contour>
      <point x="784.0" y="696.0" type="move" name="top_deva"/>
    </contour>
  </outline>
</glyph>
<glyph name="dvM_R" format="1">
  <advance width="343"/>
  <outline>
    <contour>
      <point x="232" y="-18" type="line" name="hr00"/>
      <point x="393" y="202" type="line"/>
      <point x="478" y="322" type="line"/>
      <point x="478" y="354" type="line"/>
      <point x="158" y="354" type="line"/>
      <point x="158" y="679" type="line"/>
      <point x="386" y="679" type="line"/>
      <point x="386" y="698" type="line"/>
      <point x="-20" y="698" type="line"/>
      <point x="-20" y="679" type="line"/>
      <point x="137" y="679" type="line"/>
      <point x="137" y="353" type="line"/>
      <point x="121" y="351"/>
      <point x="112" y="339"/>
      <point x="112" y="321" type="curve" smooth="yes"/>
      <point x="112" y="302"/>
      <point x="121" y="288"/>
      <point x="142" y="288" type="curve" smooth="yes"/>
      <point x="148" y="288"/>
      <point x="154" y="289"/>
      <point x="158" y="291" type="curve"/>
      <point x="158" y="335" type="line"/>
      <point x="464" y="335" type="line"/>
      <point x="464" y="333" type="line"/>
      <point x="434" y="290" type="line"/>
      <point x="216" y="-7" type="line"/>
    </contour>
  </outline>
</glyph>
<glyph name="dvM_TA" format="1">
  <advance width="973"/>
  <outline>
    <contour>
      <point x="587" y="1" type="curve" name="hr00"/>
      <point x="599" y="17" type="line"/>
      <point x="498" y="77"/>
      <point x="471" y="148"/>
      <point x="471" y="242" type="curve" smooth="yes"/>
      <point x="471" y="262" type="line" smooth="yes"/>
      <point x="471" y="365"/>
      <point x="517" y="432"/>
      <point x="629" y="432" type="curve" smooth="yes"/>
      <point x="808" y="432" type="line"/>
      <point x="808" y="0" type="line"/>
      <point x="829" y="0" type="line"/>
      <point x="829" y="679" type="line"/>
      <point x="993" y="679" type="line"/>
      <point x="993" y="698" type="line"/>
      <point x="-20" y="698" type="line"/>
      <point x="-20" y="679" type="line"/>
      <point x="137" y="679" type="line"/>
      <point x="137" y="353" type="line"/>
      <point x="121" y="351"/>
      <point x="112" y="339"/>
      <point x="112" y="321" type="curve" smooth="yes"/>
      <point x="112" y="302"/>
      <point x="121" y="288"/>
      <point x="142" y="288" type="curve" smooth="yes"/>
      <point x="148" y="288"/>
      <point x="154" y="289"/>
      <point x="158" y="291" type="curve"/>
      <point x="158" y="335" type="line"/>
      <point x="459" y="335" type="line"/>
      <point x="452" y="311"/>
      <point x="449" y="284"/>
      <point x="449" y="253" type="curve" smooth="yes"/>
      <point x="449" y="141"/>
      <point x="479" y="67"/>
    </contour>
    <contour>
      <point x="627" y="451" type="line" smooth="yes"/>
      <point x="546" y="451"/>
      <point x="491" y="419"/>
      <point x="465" y="354" type="curve"/>
      <point x="158" y="354" type="line"/>
      <point x="158" y="679" type="line"/>
      <point x="808" y="679" type="line"/>
      <point x="808" y="451" type="line"/>
    </contour>
    <contour>
      <point x="829.0" y="0.0" type="move" name="bottom_deva"/>
    </contour>
    <contour>
      <point x="659.0" y="696.0" type="move" name="center_deva"/>
    </contour>
    <contour>
      <point x="829.0" y="696.0" type="move" name="top_deva"/>
    </contour>
  </outline>
</glyph>
<glyph name="dvM_VA" format="1">
  <advance width="1003"/>
  <outline>
    <contour>
      <point x="-20" y="679" type="line" name="hr00"/>
      <point x="137" y="679" type="line"/>
      <point x="137" y="337" type="line"/>
      <point x="121" y="335"/>
      <point x="112" y="323"/>
      <point x="112" y="305" type="curve" smooth="yes"/>
      <point x="112" y="286"/>
      <point x="121" y="272"/>
      <point x="142" y="272" type="curve" smooth="yes"/>
      <point x="148" y="272"/>
      <point x="154" y="273"/>
      <point x="158" y="275" type="curve"/>
      <point x="158" y="319" type="line"/>
      <point x="463" y="319" type="line"/>
      <point x="464" y="207"/>
      <point x="551" y="144"/>
      <point x="652" y="144" type="curve" smooth="yes"/>
      <point x="752" y="144"/>
      <point x="810" y="192"/>
      <point x="835" y="231" type="curve"/>
      <point x="838" y="231" type="line"/>
      <point x="838" y="0" type="line"/>
      <point x="859" y="0" type="line"/>
      <point x="859" y="679" type="line"/>
      <point x="1023" y="679" type="line"/>
      <point x="1023" y="698" type="line"/>
      <point x="-20" y="698" type="line"/>
    </contour>
    <contour>
      <point x="838" y="410" type="line"/>
      <point x="835" y="410" type="line"/>
      <point x="805" y="450"/>
      <point x="746" y="498"/>
      <point x="646" y="498" type="curve" smooth="yes"/>
      <point x="542" y="498"/>
      <point x="471" y="435"/>
      <point x="464" y="338" type="curve"/>
      <point x="158" y="338" type="line"/>
      <point x="158" y="679" type="line"/>
      <point x="838" y="679" type="line"/>
    </contour>
    <contour>
      <point x="653" y="163" type="curve" smooth="yes"/>
      <point x="554" y="163"/>
      <point x="486" y="226"/>
      <point x="486" y="309" type="curve" smooth="yes"/>
      <point x="486" y="333" type="line" smooth="yes"/>
      <point x="486" y="413"/>
      <point x="548" y="479"/>
      <point x="647" y="479" type="curve" smooth="yes"/>
      <point x="754" y="479"/>
      <point x="839" y="408"/>
      <point x="839" y="348" type="curve" smooth="yes"/>
      <point x="839" y="297" type="line" smooth="yes"/>
      <point x="839" y="230"/>
      <point x="759" y="163"/>
    </contour>
    <contour>
      <point x="859.0" y="0.0" type="move" name="bottom_deva"/>
    </contour>
    <contour>
      <point x="672.0" y="696.0" type="move" name="center_deva"/>
    </contour>
    <contour>
      <point x="859.0" y="696.0" type="move" name="top_deva"/>
    </contour>
  </outline>
</glyph>
<glyph name="dvNY" format="1">
  <advance width="529"/>
  <outline>
    <contour>
      <point x="-20" y="679" type="line" name="hr00"/>
      <point x="580" y="679" type="line"/>
      <point x="580" y="698" type="line"/>
      <point x="-20" y="698" type="line"/>
    </contour>
    <contour>
      <point x="277" y="110" type="curve" smooth="yes"/>
      <point x="391" y="110"/>
      <point x="450" y="189"/>
      <point x="450" y="293" type="curve" smooth="yes"/>
      <point x="450" y="303" type="line"/>
      <point x="669" y="303" type="line"/>
      <point x="669" y="322" type="line"/>
      <point x="448" y="322" type="line"/>
      <point x="437" y="412"/>
      <point x="372" y="463"/>
      <point x="280" y="463" type="curve" smooth="yes"/>
      <point x="239" y="463"/>
      <point x="204" y="454"/>
      <point x="175" y="440" type="curve"/>
      <point x="182" y="422" type="line"/>
      <point x="213" y="437"/>
      <point x="242" y="444"/>
      <point x="282" y="444" type="curve" smooth="yes"/>
      <point x="381" y="444"/>
      <point x="428" y="374"/>
      <point x="428" y="302" type="curve" smooth="yes"/>
      <point x="428" y="283" type="line" smooth="yes"/>
      <point x="428" y="202"/>
      <point x="376" y="129"/>
      <point x="278" y="129" type="curve" smooth="yes"/>
      <point x="190" y="129"/>
      <point x="108" y="172"/>
      <point x="73" y="329" type="curve"/>
      <point x="54" y="323" type="line"/>
      <point x="91" y="162"/>
      <point x="177" y="110"/>
    </contour>
  </outline>
</glyph>
<glyph name="dvNY_R" format="1">
  <advance width="529"/>
  <outline>
    <contour>
      <point x="-20" y="679" type="line" name="hr00"/>
      <point x="580" y="679" type="line"/>
      <point x="580" y="698" type="line"/>
      <point x="-20" y="698" type="line"/>
    </contour>
    <contour>
      <point x="277" y="170" type="curve" smooth="yes"/>
      <point x="389" y="170"/>
      <point x="450" y="249"/>
      <point x="450" y="343" type="curve" smooth="yes"/>
      <point x="450" y="353" type="line"/>
      <point x="649" y="353" type="line"/>
      <point x="649" y="351" type="line"/>
      <point x="617" y="317" type="line"/>
      <point x="337" y="7" type="line"/>
      <point x="351" y="-6" type="line"/>
      <point x="618" y="291" type="line"/>
      <point x="669" y="348" type="line"/>
      <point x="669" y="372" type="line"/>
      <point x="448" y="372" type="line"/>
      <point x="437" y="462"/>
      <point x="372" y="513"/>
      <point x="280" y="513" type="curve" smooth="yes"/>
      <point x="239" y="513"/>
      <point x="204" y="504"/>
      <point x="175" y="490" type="curve"/>
      <point x="182" y="472" type="line"/>
      <point x="209" y="485"/>
      <point x="240" y="494"/>
      <point x="282" y="494" type="curve" smooth="yes"/>
      <point x="381" y="494"/>
      <point x="429" y="424"/>
      <point x="429" y="352" type="curve" smooth="yes"/>
      <point x="429" y="333" type="line" smooth="yes"/>
      <point x="429" y="262"/>
      <point x="376" y="189"/>
      <point x="278" y="189" type="curve" smooth="yes"/>
      <point x="188" y="189"/>
      <point x="109" y="232"/>
      <point x="73" y="379" type="curve"/>
      <point x="54" y="373" type="line"/>
      <point x="92" y="222"/>
      <point x="177" y="170"/>
    </contour>
  </outline>
</glyph>
<glyph name="dvNY_SHA" format="1">
  <advance width="1295"/>
  <outline>
    <contour>
      <point x="1130" y="0" type="line"/>
      <point x="1151" y="0" type="line"/>
      <point x="1151" y="679" type="line"/>
      <point x="1315" y="679" type="line"/>
      <point x="1315" y="698" type="line"/>
      <point x="1130" y="698" type="line"/>
    </contour>
    <contour>
      <point x="-20" y="679" type="line"/>
      <point x="543" y="679" type="line"/>
      <point x="543" y="698" type="line"/>
      <point x="-20" y="698" type="line"/>
    </contour>
    <contour>
      <point x="277" y="130" type="curve" smooth="yes"/>
      <point x="388" y="130"/>
      <point x="446" y="204"/>
      <point x="450" y="304" type="curve"/>
      <point x="623" y="304" type="line"/>
      <point x="924" y="3" type="line"/>
      <point x="938" y="17" type="line"/>
      <point x="712" y="242" type="line"/>
      <point x="651" y="303" type="line"/>
      <point x="652" y="304" type="line"/>
      <point x="722" y="304" type="line" smooth="yes"/>
      <point x="891" y="304"/>
      <point x="971" y="378"/>
      <point x="971" y="515" type="curve" smooth="yes"/>
      <point x="971" y="631"/>
      <point x="901" y="694"/>
      <point x="807" y="694" type="curve" smooth="yes" name="hr01"/>
      <point x="727" y="694"/>
      <point x="670" y="653"/>
      <point x="637" y="561" type="curve"/>
      <point x="658" y="553" type="line"/>
      <point x="688" y="642"/>
      <point x="740" y="674"/>
      <point x="809" y="674" type="curve" smooth="yes"/>
      <point x="889" y="674"/>
      <point x="949" y="617"/>
      <point x="949" y="526" type="curve" smooth="yes"/>
      <point x="949" y="503" type="line" smooth="yes"/>
      <point x="949" y="396"/>
      <point x="885" y="323"/>
      <point x="720" y="323" type="curve" smooth="yes"/>
      <point x="450" y="323" type="line"/>
      <point x="445" y="425"/>
      <point x="378" y="483"/>
      <point x="280" y="483" type="curve" smooth="yes"/>
      <point x="239" y="483"/>
      <point x="204" y="474"/>
      <point x="175" y="460" type="curve"/>
      <point x="182" y="442" type="line"/>
      <point x="213" y="457"/>
      <point x="242" y="464"/>
      <point x="282" y="464" type="curve" smooth="yes"/>
      <point x="381" y="464"/>
      <point x="429" y="394"/>
      <point x="429" y="322" type="curve" smooth="yes"/>
      <point x="429" y="303" type="line" smooth="yes"/>
      <point x="429" y="222"/>
      <point x="376" y="149"/>
      <point x="278" y="149" type="curve" smooth="yes"/>
      <point x="190" y="149"/>
      <point x="108" y="192"/>
      <point x="73" y="349" type="curve"/>
      <point x="54" y="343" type="line"/>
      <point x="91" y="182"/>
      <point x="177" y="130"/>
    </contour>
    <contour>
      <point x="1151.0" y="0.0" type="move" name="bottom_deva"/>
    </contour>
    <contour>
      <point x="1001.0" y="696.0" type="move" name="center_deva"/>
    </contour>
    <contour>
      <point x="1151.0" y="696.0" type="move" name="top_deva"/>
    </contour>
  </outline>
</glyph>
<glyph name="dvN_DH_YA" format="1">
  <advance width="1362"/>
  <outline>
    <contour>
      <point x="1197" y="0" type="line"/>
      <point x="1218" y="0" type="line"/>
      <point x="1218" y="679" type="line"/>
      <point x="1382" y="679" type="line"/>
      <point x="1382" y="698" type="line"/>
      <point x="747" y="698" type="line"/>
      <point x="747" y="679" type="line"/>
      <point x="949" y="679" type="line"/>
      <point x="949" y="541" type="line" smooth="yes"/>
      <point x="949" y="455"/>
      <point x="921" y="426"/>
      <point x="831" y="426" type="curve" smooth="yes"/>
      <point x="779" y="426" type="line"/>
      <point x="779" y="359" type="line" smooth="yes"/>
      <point x="779" y="332"/>
      <point x="783" y="307"/>
      <point x="790" y="285" type="curve"/>
      <point x="756" y="206"/>
      <point x="686" y="151"/>
      <point x="568" y="151" type="curve" smooth="yes"/>
      <point x="460" y="151"/>
      <point x="412" y="209"/>
      <point x="412" y="280" type="curve" smooth="yes"/>
      <point x="412" y="353"/>
      <point x="459" y="414"/>
      <point x="572" y="414" type="curve" smooth="yes" name="hr01"/>
      <point x="633" y="414" type="line"/>
      <point x="633" y="433" type="line"/>
      <point x="573" y="433" type="line" smooth="yes"/>
      <point x="446" y="433"/>
      <point x="387" y="488"/>
      <point x="387" y="566" type="curve" smooth="yes"/>
      <point x="387" y="633"/>
      <point x="430" y="679"/>
      <point x="507" y="679" type="curve" smooth="yes"/>
      <point x="542" y="679"/>
      <point x="570" y="670"/>
      <point x="594" y="656" type="curve"/>
      <point x="603" y="673" type="line"/>
      <point x="579" y="687"/>
      <point x="545" y="698"/>
      <point x="505" y="698" type="curve" smooth="yes"/>
      <point x="417" y="698"/>
      <point x="366" y="642"/>
      <point x="366" y="566" type="curve" smooth="yes"/>
      <point x="366" y="491"/>
      <point x="422" y="433"/>
      <point x="505" y="424" type="curve"/>
      <point x="505" y="421" type="line"/>
      <point x="469" y="414"/>
      <point x="441" y="396"/>
      <point x="421" y="373" type="curve"/>
      <point x="140" y="373" type="line" smooth="yes"/>
      <point x="118" y="373"/>
      <point x="106" y="359"/>
      <point x="106" y="335" type="curve" smooth="yes"/>
      <point x="106" y="311"/>
      <point x="117" y="295"/>
      <point x="135" y="295" type="curve" smooth="yes"/>
      <point x="142" y="295"/>
      <point x="147" y="296"/>
      <point x="152" y="298" type="curve"/>
      <point x="152" y="354" type="line"/>
      <point x="407" y="354" type="line"/>
      <point x="408" y="352" type="line"/>
      <point x="397" y="331"/>
      <point x="391" y="308"/>
      <point x="391" y="279" type="curve" smooth="yes"/>
      <point x="391" y="197"/>
      <point x="449" y="132"/>
      <point x="568" y="132" type="curve" smooth="yes"/>
      <point x="681" y="132"/>
      <point x="755" y="178"/>
      <point x="799" y="257" type="curve"/>
      <point x="802" y="257" type="line"/>
      <point x="831" y="198"/>
      <point x="893" y="162"/>
      <point x="986" y="162" type="curve" smooth="yes"/>
      <point x="1103" y="162"/>
      <point x="1165" y="215"/>
      <point x="1194" y="264" type="curve"/>
      <point x="1197" y="264" type="line"/>
    </contour>
    <contour>
      <point x="-20" y="679" type="line"/>
      <point x="295" y="679" type="line"/>
      <point x="295" y="698" type="line"/>
      <point x="-20" y="698" type="line"/>
    </contour>
    <contour>
      <point x="986" y="181" type="curve" smooth="yes"/>
      <point x="864" y="181"/>
      <point x="800" y="248"/>
      <point x="800" y="356" type="curve" smooth="yes"/>
      <point x="800" y="407" type="line" name="hr02"/>
      <point x="834" y="407" type="line" smooth="yes"/>
      <point x="931" y="407"/>
      <point x="970" y="444"/>
      <point x="970" y="536" type="curve" smooth="yes"/>
      <point x="970" y="679" type="line"/>
      <point x="1197" y="679" type="line"/>
      <point x="1197" y="340" type="line" smooth="yes"/>
      <point x="1197" y="263"/>
      <point x="1121" y="181"/>
    </contour>
    <contour>
      <point x="1218.0" y="0.0" type="move" name="bottom_deva"/>
    </contour>
    <contour>
      <point x="1091.0" y="696.0" type="move" name="center_deva"/>
    </contour>
    <contour>
      <point x="1218.0" y="696.0" type="move" name="top_deva"/>
    </contour>
  </outline>
</glyph>
<glyph name="dvN_D_RA" format="1">
  <advance width="873"/>
  <outline>
    <contour>
      <point x="493" y="-87" type="line" name="hr00"/>
      <point x="707" y="84" type="line"/>
      <point x="728" y="102" type="line"/>
      <point x="730" y="102" type="line"/>
      <point x="735" y="86" type="line"/>
      <point x="789" y="-73" type="line"/>
      <point x="806" y="-67" type="line"/>
      <point x="751" y="94" type="line"/>
      <point x="745" y="111" type="line"/>
      <point x="760" y="121"/>
      <point x="764" y="128"/>
      <point x="764" y="140" type="curve" smooth="yes"/>
      <point x="764" y="159"/>
      <point x="753" y="180"/>
      <point x="732" y="180" type="curve" smooth="yes"/>
      <point x="721" y="180"/>
      <point x="710" y="176"/>
      <point x="704" y="171" type="curve"/>
      <point x="722" y="121" type="line"/>
      <point x="699" y="111"/>
      <point x="658" y="102"/>
      <point x="612" y="102" type="curve" smooth="yes"/>
      <point x="475" y="102"/>
      <point x="414" y="184"/>
      <point x="414" y="274" type="curve" smooth="yes"/>
      <point x="414" y="295" type="line" smooth="yes"/>
      <point x="414" y="396"/>
      <point x="481" y="461"/>
      <point x="612" y="461" type="curve" smooth="yes"/>
      <point x="736" y="461" type="line"/>
      <point x="736" y="679" type="line"/>
      <point x="893" y="679" type="line"/>
      <point x="893" y="698" type="line"/>
      <point x="-20" y="698" type="line"/>
      <point x="-20" y="679" type="line"/>
      <point x="715" y="679" type="line"/>
      <point x="715" y="481" type="line"/>
      <point x="610" y="481" type="line" smooth="yes"/>
      <point x="522" y="481"/>
      <point x="460" y="453"/>
      <point x="423" y="403" type="curve"/>
      <point x="140" y="403" type="line" smooth="yes"/>
      <point x="118" y="403"/>
      <point x="106" y="389"/>
      <point x="106" y="365" type="curve" smooth="yes"/>
      <point x="106" y="341"/>
      <point x="117" y="325"/>
      <point x="135" y="325" type="curve" smooth="yes"/>
      <point x="142" y="325"/>
      <point x="147" y="326"/>
      <point x="152" y="328" type="curve"/>
      <point x="152" y="384" type="line"/>
      <point x="411" y="384" type="line"/>
      <point x="412" y="382" type="line"/>
      <point x="399" y="356"/>
      <point x="392" y="324"/>
      <point x="392" y="287" type="curve" smooth="yes"/>
      <point x="392" y="169"/>
      <point x="465" y="84"/>
      <point x="612" y="84" type="curve" smooth="yes"/>
      <point x="641" y="84"/>
      <point x="669" y="88"/>
      <point x="691" y="94" type="curve"/>
      <point x="692" y="92" type="line"/>
      <point x="643" y="55" type="line"/>
      <point x="480" y="-72" type="line"/>
    </contour>
    <contour>
      <point x="806.0" y="-70.0" type="move" name="bottom_deva"/>
    </contour>
    <contour>
      <point x="609.0" y="696.0" type="move" name="center_deva"/>
    </contour>
    <contour>
      <point x="736.0" y="696.0" type="move" name="top_deva"/>
    </contour>
  </outline>
</glyph>
<glyph name="dvN_D_VA" format="1">
  <advance width="882"/>
  <outline>
    <contour>
      <point x="-20" y="679" type="line"/>
      <point x="724" y="679" type="line"/>
      <point x="724" y="481" type="line"/>
      <point x="619" y="481" type="line" smooth="yes"/>
      <point x="532" y="481"/>
      <point x="468" y="454"/>
      <point x="433" y="403" type="curve"/>
      <point x="140" y="403" type="line" smooth="yes"/>
      <point x="118" y="403"/>
      <point x="106" y="389"/>
      <point x="106" y="365" type="curve" smooth="yes"/>
      <point x="106" y="341"/>
      <point x="117" y="325"/>
      <point x="135" y="325" type="curve" smooth="yes"/>
      <point x="142" y="325"/>
      <point x="147" y="326"/>
      <point x="152" y="328" type="curve"/>
      <point x="152" y="384" type="line"/>
      <point x="420" y="384" type="line"/>
      <point x="421" y="383" type="line"/>
      <point x="408" y="355"/>
      <point x="401" y="324"/>
      <point x="401" y="287" type="curve" smooth="yes"/>
      <point x="401" y="236"/>
      <point x="415" y="191"/>
      <point x="443" y="156" type="curve"/>
      <point x="443" y="154" type="line"/>
      <point x="416" y="126"/>
      <point x="395" y="89"/>
      <point x="395" y="43" type="curve" smooth="yes" name="hr01"/>
      <point x="395" y="-24"/>
      <point x="440" y="-87"/>
      <point x="536" y="-87" type="curve" smooth="yes"/>
      <point x="647" y="-87"/>
      <point x="713" y="-11"/>
      <point x="737" y="99" type="curve"/>
      <point x="740" y="100" type="line"/>
      <point x="744" y="86" type="line"/>
      <point x="806" y="-96" type="line"/>
      <point x="823" y="-90" type="line"/>
      <point x="760" y="94" type="line"/>
      <point x="754" y="111" type="line"/>
      <point x="769" y="121"/>
      <point x="773" y="128"/>
      <point x="773" y="140" type="curve" smooth="yes"/>
      <point x="773" y="159"/>
      <point x="762" y="180"/>
      <point x="741" y="180" type="curve" smooth="yes"/>
      <point x="730" y="180"/>
      <point x="719" y="176"/>
      <point x="713" y="171" type="curve"/>
      <point x="731" y="121" type="line"/>
      <point x="708" y="111"/>
      <point x="668" y="102"/>
      <point x="621" y="102" type="curve" smooth="yes"/>
      <point x="484" y="102"/>
      <point x="423" y="184"/>
      <point x="423" y="274" type="curve" smooth="yes" name="hr02"/>
      <point x="423" y="295" type="line" smooth="yes"/>
      <point x="423" y="396"/>
      <point x="490" y="461"/>
      <point x="621" y="461" type="curve" smooth="yes"/>
      <point x="745" y="461" type="line"/>
      <point x="745" y="679" type="line"/>
      <point x="902" y="679" type="line"/>
      <point x="902" y="698" type="line"/>
      <point x="-20" y="698" type="line"/>
    </contour>
    <contour>
      <point x="536" y="-70" type="curve" smooth="yes"/>
      <point x="454" y="-70"/>
      <point x="414" y="-17"/>
      <point x="414" y="37" type="curve" smooth="yes" name="hr03"/>
      <point x="414" y="47" type="line" smooth="yes"/>
      <point x="414" y="83"/>
      <point x="431" y="117"/>
      <point x="457" y="141" type="curve"/>
      <point x="494" y="106"/>
      <point x="550" y="84"/>
      <point x="621" y="84" type="curve" smooth="yes"/>
      <point x="660" y="84"/>
      <point x="692" y="89"/>
      <point x="719" y="98" type="curve"/>
      <point x="720" y="97" type="line"/>
      <point x="697" y="1"/>
      <point x="637" y="-70"/>
    </contour>
    <contour>
      <point x="823.0" y="-93.0" type="move" name="bottom_deva"/>
    </contour>
    <contour>
      <point x="618.0" y="696.0" type="move" name="center_deva"/>
    </contour>
    <contour>
      <point x="745.0" y="696.0" type="move" name="top_deva"/>
    </contour>
  </outline>
</glyph>
<glyph name="dvN_N_YA" format="1">
  <advance width="1014"/>
  <outline>
    <contour>
      <point x="-20" y="679" type="line" name="hr00"/>
      <point x="591" y="679" type="line"/>
      <point x="591" y="540" type="line" smooth="yes"/>
      <point x="591" y="455"/>
      <point x="564" y="426"/>
      <point x="473" y="426" type="curve" smooth="yes"/>
      <point x="426" y="426" type="line"/>
      <point x="410" y="430" type="line"/>
      <point x="174" y="490" type="line" smooth="yes"/>
      <point x="163" y="493"/>
      <point x="158" y="494"/>
      <point x="150" y="494" type="curve" smooth="yes"/>
      <point x="130" y="494"/>
      <point x="114" y="474"/>
      <point x="114" y="448" type="curve" smooth="yes"/>
      <point x="114" y="428"/>
      <point x="127" y="416"/>
      <point x="142" y="416" type="curve" smooth="yes"/>
      <point x="145" y="416"/>
      <point x="148" y="416"/>
      <point x="152" y="417" type="curve"/>
      <point x="168" y="472" type="line"/>
      <point x="400" y="413" type="line"/>
      <point x="421" y="408" type="line"/>
      <point x="421" y="359" type="line" smooth="yes"/>
      <point x="421" y="347"/>
      <point x="422" y="336"/>
      <point x="423" y="325" type="curve"/>
      <point x="406" y="316" type="line"/>
      <point x="200" y="217" type="line" smooth="yes"/>
      <point x="181" y="208"/>
      <point x="176" y="198"/>
      <point x="176" y="183" type="curve" smooth="yes"/>
      <point x="176" y="164"/>
      <point x="191" y="138"/>
      <point x="212" y="138" type="curve" smooth="yes"/>
      <point x="222" y="138"/>
      <point x="231" y="144"/>
      <point x="236" y="151" type="curve"/>
      <point x="212" y="200" type="line"/>
      <point x="410" y="297" type="line"/>
      <point x="427" y="305" type="line"/>
      <point x="445" y="218"/>
      <point x="513" y="162"/>
      <point x="628" y="162" type="curve" smooth="yes"/>
      <point x="746" y="162"/>
      <point x="814" y="218"/>
      <point x="846" y="266" type="curve"/>
      <point x="849" y="266" type="line"/>
      <point x="849" y="0" type="line"/>
      <point x="870" y="0" type="line"/>
      <point x="870" y="679" type="line"/>
      <point x="1034" y="679" type="line"/>
      <point x="1034" y="698" type="line"/>
      <point x="-20" y="698" type="line"/>
    </contour>
    <contour>
      <point x="628" y="181" type="curve" smooth="yes"/>
      <point x="506" y="181"/>
      <point x="442" y="248"/>
      <point x="442" y="356" type="curve" smooth="yes"/>
      <point x="442" y="407" type="line"/>
      <point x="476" y="407" type="line" smooth="yes"/>
      <point x="573" y="407"/>
      <point x="612" y="444"/>
      <point x="612" y="536" type="curve" smooth="yes"/>
      <point x="612" y="679" type="line"/>
      <point x="849" y="679" type="line"/>
      <point x="849" y="340" type="line" smooth="yes"/>
      <point x="849" y="262"/>
      <point x="762" y="181"/>
    </contour>
    <contour>
      <point x="870.0" y="0.0" type="move" name="bottom_deva"/>
    </contour>
    <contour>
      <point x="733.0" y="696.0" type="move" name="center_deva"/>
    </contour>
    <contour>
      <point x="870.0" y="696.0" type="move" name="top_deva"/>
    </contour>
  </outline>
</glyph>
<glyph name="dvN_PHA" format="1">
  <advance width="1186"/>
  <outline>
    <contour>
      <point x="-20" y="679" type="line" name="hr00"/>
      <point x="430" y="679" type="line"/>
      <point x="430" y="442" type="line" smooth="yes"/>
      <point x="430" y="428"/>
      <point x="430" y="418"/>
      <point x="431" y="403" type="curve"/>
      <point x="140" y="403" type="line" smooth="yes"/>
      <point x="118" y="403"/>
      <point x="106" y="389"/>
      <point x="106" y="365" type="curve" smooth="yes"/>
      <point x="106" y="341"/>
      <point x="117" y="325"/>
      <point x="135" y="325" type="curve" smooth="yes"/>
      <point x="142" y="325"/>
      <point x="147" y="326"/>
      <point x="152" y="328" type="curve"/>
      <point x="152" y="384" type="line"/>
      <point x="433" y="384" type="line"/>
      <point x="444" y="291"/>
      <point x="504" y="246"/>
      <point x="589" y="246" type="curve" smooth="yes"/>
      <point x="664" y="246"/>
      <point x="720" y="279"/>
      <point x="749" y="330" type="curve"/>
      <point x="752" y="330" type="line"/>
      <point x="752" y="0" type="line"/>
      <point x="773" y="0" type="line"/>
      <point x="773" y="272" type="line" smooth="yes"/>
      <point x="773" y="391"/>
      <point x="857" y="468"/>
      <point x="954" y="468" type="curve" smooth="yes"/>
      <point x="1055" y="468"/>
      <point x="1097" y="395"/>
      <point x="1097" y="337" type="curve" smooth="yes"/>
      <point x="1097" y="323" type="line" smooth="yes"/>
      <point x="1097" y="249"/>
      <point x="1053" y="192"/>
      <point x="950" y="171" type="curve"/>
      <point x="958" y="151" type="line"/>
      <point x="1070" y="176"/>
      <point x="1119" y="239"/>
      <point x="1119" y="333" type="curve" smooth="yes"/>
      <point x="1119" y="417"/>
      <point x="1059" y="488"/>
      <point x="955" y="488" type="curve" smooth="yes"/>
      <point x="858" y="488"/>
      <point x="803" y="429"/>
      <point x="776" y="367" type="curve"/>
      <point x="773" y="367" type="line"/>
      <point x="773" y="679" type="line"/>
      <point x="1206" y="679" type="line"/>
      <point x="1206" y="698" type="line"/>
      <point x="-20" y="698" type="line"/>
    </contour>
    <contour>
      <point x="451" y="418" type="curve" smooth="yes"/>
      <point x="451" y="679" type="line"/>
      <point x="752" y="679" type="line"/>
      <point x="752" y="404" type="line" smooth="yes"/>
      <point x="752" y="318"/>
      <point x="676" y="265"/>
      <point x="591" y="265" type="curve" smooth="yes"/>
      <point x="500" y="265"/>
      <point x="451" y="312"/>
    </contour>
    <contour>
      <point x="773.0" y="0.0" type="move" name="bottom_deva"/>
    </contour>
    <contour>
      <point x="762.0" y="696.0" type="move" name="center_deva"/>
    </contour>
    <contour>
      <point x="773.0" y="696.0" type="move" name="top_deva"/>
    </contour>
  </outline>
</glyph>
<glyph name="dvN_P_RA" format="1">
  <advance width="917"/>
  <outline>
    <contour>
      <point x="420" y="-20" type="line" name="hr00"/>
      <point x="695" y="263" type="line"/>
      <point x="749" y="323" type="line"/>
      <point x="752" y="323" type="line"/>
      <point x="752" y="0" type="line"/>
      <point x="773" y="0" type="line"/>
      <point x="773" y="679" type="line"/>
      <point x="937" y="679" type="line"/>
      <point x="937" y="698" type="line"/>
      <point x="-20" y="698" type="line"/>
      <point x="-20" y="679" type="line"/>
      <point x="430" y="679" type="line"/>
      <point x="430" y="428" type="line" smooth="yes"/>
      <point x="430" y="419"/>
      <point x="430" y="411"/>
      <point x="431" y="403" type="curve"/>
      <point x="140" y="403" type="line" smooth="yes"/>
      <point x="118" y="403"/>
      <point x="106" y="389"/>
      <point x="106" y="365" type="curve" smooth="yes"/>
      <point x="106" y="341"/>
      <point x="117" y="325"/>
      <point x="135" y="325" type="curve" smooth="yes"/>
      <point x="142" y="325"/>
      <point x="147" y="326"/>
      <point x="152" y="328" type="curve"/>
      <point x="152" y="384" type="line"/>
      <point x="433" y="384" type="line"/>
      <point x="445" y="288"/>
      <point x="504" y="246"/>
      <point x="589" y="246" type="curve" smooth="yes"/>
      <point x="617" y="246"/>
      <point x="646" y="252"/>
      <point x="667" y="263" type="curve"/>
      <point x="669" y="260" type="line"/>
      <point x="614" y="206" type="line"/>
      <point x="406" y="-7" type="line"/>
    </contour>
    <contour>
      <point x="451" y="418" type="curve" smooth="yes"/>
      <point x="451" y="679" type="line"/>
      <point x="752" y="679" type="line"/>
      <point x="752" y="401" type="line" smooth="yes"/>
      <point x="752" y="315"/>
      <point x="674" y="265"/>
      <point x="591" y="265" type="curve" smooth="yes"/>
      <point x="500" y="265"/>
      <point x="451" y="312"/>
    </contour>
    <contour>
      <point x="773.0" y="0.0" type="move" name="bottom_deva"/>
    </contour>
    <contour>
      <point x="608.0" y="696.0" type="move" name="center_deva"/>
    </contour>
    <contour>
      <point x="773.0" y="696.0" type="move" name="top_deva"/>
    </contour>
  </outline>
</glyph>
<glyph name="dvN_R" format="1">
  <advance width="306"/>
  <outline>
    <contour>
      <point x="-20" y="679" type="line"/>
      <point x="355" y="679" type="line"/>
      <point x="355" y="698" type="line"/>
      <point x="-20" y="698" type="line"/>
    </contour>
    <contour>
      <point x="135" y="325" type="curve" smooth="yes"/>
      <point x="142" y="325"/>
      <point x="147" y="326"/>
      <point x="152" y="328" type="curve"/>
      <point x="152" y="384" type="line"/>
      <point x="435" y="384" type="line" name="hr01"/>
      <point x="435" y="403" type="line"/>
      <point x="140" y="403" type="line" smooth="yes"/>
      <point x="118" y="403"/>
      <point x="106" y="389"/>
      <point x="106" y="365" type="curve" smooth="yes"/>
      <point x="106" y="341"/>
      <point x="117" y="325"/>
    </contour>
    <contour>
      <point x="238" y="-28" type="line"/>
      <point x="433" y="165" type="line"/>
      <point x="487" y="219" type="line" name="hr02"/>
      <point x="474" y="232" type="line"/>
      <point x="224" y="-15" type="line"/>
    </contour>
  </outline>
</glyph>
<glyph name="dvN_S_YA" format="1">
  <advance width="1435"/>
  <outline>
    <contour>
      <point x="610" y="-2" type="line"/>
      <point x="626" y="10" type="line"/>
      <point x="479" y="239" type="line"/>
      <point x="416" y="335" type="line"/>
      <point x="416" y="337" type="line"/>
      <point x="843" y="337" type="line"/>
      <point x="852" y="234"/>
      <point x="918" y="162"/>
      <point x="1049" y="162" type="curve" smooth="yes"/>
      <point x="1167" y="162"/>
      <point x="1235" y="218"/>
      <point x="1267" y="266" type="curve"/>
      <point x="1270" y="266" type="line"/>
      <point x="1270" y="0" type="line"/>
      <point x="1291" y="0" type="line"/>
      <point x="1291" y="679" type="line"/>
      <point x="1455" y="679" type="line"/>
      <point x="1455" y="698" type="line"/>
      <point x="-20" y="698" type="line"/>
      <point x="-20" y="679" type="line"/>
      <point x="564" y="679" type="line"/>
      <point x="564" y="511" type="line" smooth="yes"/>
      <point x="564" y="405"/>
      <point x="500" y="357"/>
      <point x="392" y="357" type="curve" smooth="yes" name="hr01"/>
      <point x="140" y="357" type="line" smooth="yes"/>
      <point x="118" y="357"/>
      <point x="106" y="343"/>
      <point x="106" y="319" type="curve" smooth="yes"/>
      <point x="106" y="295"/>
      <point x="117" y="279"/>
      <point x="135" y="279" type="curve" smooth="yes"/>
      <point x="142" y="279"/>
      <point x="147" y="280"/>
      <point x="152" y="282" type="curve"/>
      <point x="152" y="338" type="line"/>
      <point x="391" y="338" type="line"/>
    </contour>
    <contour>
      <point x="1012" y="540" type="line" smooth="yes"/>
      <point x="1012" y="455"/>
      <point x="985" y="426"/>
      <point x="894" y="426" type="curve" smooth="yes"/>
      <point x="842" y="426" type="line"/>
      <point x="842" y="356" type="line" name="hr02"/>
      <point x="607" y="356" type="line"/>
      <point x="485" y="355" type="line"/>
      <point x="485" y="356" type="line"/>
      <point x="542" y="375"/>
      <point x="585" y="420"/>
      <point x="585" y="516" type="curve" smooth="yes"/>
      <point x="585" y="679" type="line"/>
      <point x="1012" y="679" type="line"/>
    </contour>
    <contour>
      <point x="1049" y="181" type="curve" smooth="yes"/>
      <point x="927" y="181"/>
      <point x="863" y="248"/>
      <point x="863" y="356" type="curve" smooth="yes"/>
      <point x="863" y="407" type="line"/>
      <point x="897" y="407" type="line" smooth="yes"/>
      <point x="994" y="407"/>
      <point x="1033" y="444"/>
      <point x="1033" y="536" type="curve" smooth="yes"/>
      <point x="1033" y="679" type="line"/>
      <point x="1270" y="679" type="line"/>
      <point x="1270" y="340" type="line" smooth="yes"/>
      <point x="1270" y="262"/>
      <point x="1183" y="181"/>
    </contour>
    <contour>
      <point x="1291.0" y="0.0" type="move" name="bottom_deva"/>
    </contour>
    <contour>
      <point x="1154.0" y="696.0" type="move" name="center_deva"/>
    </contour>
    <contour>
      <point x="1291.0" y="696.0" type="move" name="top_deva"/>
    </contour>
  </outline>
</glyph>
<glyph name="dvN_TTA" format="1">
  <advance width="855"/>
  <outline>
    <contour>
      <point x="610" y="26" type="curve" smooth="yes" name="hr00"/>
      <point x="702" y="26"/>
      <point x="760" y="60"/>
      <point x="802" y="107" type="curve"/>
      <point x="788" y="122" type="line"/>
      <point x="744" y="74"/>
      <point x="693" y="45"/>
      <point x="609" y="45" type="curve" smooth="yes"/>
      <point x="490" y="45"/>
      <point x="410" y="125"/>
      <point x="410" y="232" type="curve" smooth="yes"/>
      <point x="410" y="257" type="line" smooth="yes"/>
      <point x="410" y="364"/>
      <point x="473" y="446"/>
      <point x="623" y="446" type="curve" smooth="yes"/>
      <point x="722" y="446" type="line"/>
      <point x="722" y="679" type="line"/>
      <point x="875" y="679" type="line"/>
      <point x="875" y="698" type="line"/>
      <point x="-20" y="698" type="line"/>
      <point x="-20" y="679" type="line"/>
      <point x="701" y="679" type="line"/>
      <point x="701" y="466" type="line"/>
      <point x="622" y="466" type="line" smooth="yes"/>
      <point x="517" y="466"/>
      <point x="448" y="429"/>
      <point x="413" y="363" type="curve"/>
      <point x="140" y="363" type="line" smooth="yes"/>
      <point x="118" y="363"/>
      <point x="106" y="349"/>
      <point x="106" y="325" type="curve" smooth="yes"/>
      <point x="106" y="301"/>
      <point x="117" y="285"/>
      <point x="135" y="285" type="curve" smooth="yes"/>
      <point x="142" y="285"/>
      <point x="147" y="286"/>
      <point x="152" y="288" type="curve"/>
      <point x="152" y="344" type="line"/>
      <point x="404" y="344" type="line"/>
      <point x="393" y="315"/>
      <point x="388" y="282"/>
      <point x="388" y="245" type="curve" smooth="yes"/>
      <point x="388" y="107"/>
      <point x="483" y="26"/>
    </contour>
    <contour>
      <point x="623.0" y="29.0" type="move" name="bottom_deva"/>
    </contour>
    <contour>
      <point x="656.0" y="696.0" type="move" name="center_deva"/>
    </contour>
    <contour>
      <point x="722.0" y="696.0" type="move" name="top_deva"/>
    </contour>
  </outline>
</glyph>
<glyph name="dvN_T_R" format="1">
  <advance width="679"/>
  <outline>
    <contour>
      <point x="-20" y="679" type="line"/>
      <point x="794" y="679" type="line"/>
      <point x="794" y="698" type="line"/>
      <point x="-20" y="698" type="line"/>
    </contour>
    <contour>
      <point x="483" y="92" type="line"/>
      <point x="729" y="247" type="line"/>
      <point x="816" y="303" type="line" name="hr01"/>
      <point x="816" y="330" type="line"/>
      <point x="713" y="395" type="line"/>
      <point x="627" y="448" type="line" smooth="yes"/>
      <point x="593" y="469"/>
      <point x="573" y="476"/>
      <point x="544" y="476" type="curve" smooth="yes"/>
      <point x="522" y="476"/>
      <point x="500" y="470"/>
      <point x="458" y="443" type="curve" smooth="yes"/>
      <point x="386" y="396" type="line"/>
      <point x="140" y="396" type="line" smooth="yes"/>
      <point x="118" y="396"/>
      <point x="106" y="382"/>
      <point x="106" y="358" type="curve" smooth="yes"/>
      <point x="106" y="334"/>
      <point x="117" y="318"/>
      <point x="135" y="318" type="curve" smooth="yes"/>
      <point x="142" y="318"/>
      <point x="147" y="319"/>
      <point x="152" y="321" type="curve"/>
      <point x="152" y="377" type="line"/>
      <point x="396" y="377" type="line"/>
      <point x="467" y="424" type="line" smooth="yes"/>
      <point x="504" y="449"/>
      <point x="524" y="456"/>
      <point x="547" y="456" type="curve" smooth="yes"/>
      <point x="570" y="456"/>
      <point x="589" y="450"/>
      <point x="619" y="431" type="curve" smooth="yes"/>
      <point x="708" y="376" type="line"/>
      <point x="803" y="317" type="line"/>
      <point x="803" y="316" type="line"/>
      <point x="699" y="251" type="line"/>
      <point x="470" y="110" type="line"/>
    </contour>
  </outline>
</glyph>
<glyph name="dvPH" format="1">
  <advance width="644"/>
  <outline>
    <contour>
      <point x="442" y="0" type="line" name="hr00"/>
      <point x="463" y="0" type="line"/>
      <point x="463" y="248" type="line" smooth="yes"/>
      <point x="463" y="369"/>
      <point x="543" y="441"/>
      <point x="629" y="441" type="curve" smooth="yes"/>
      <point x="704" y="441"/>
      <point x="754" y="396"/>
      <point x="768" y="330" type="curve"/>
      <point x="783" y="340" type="line"/>
      <point x="766" y="413"/>
      <point x="709" y="460"/>
      <point x="628" y="460" type="curve" smooth="yes"/>
      <point x="547" y="460"/>
      <point x="491" y="408"/>
      <point x="466" y="347" type="curve"/>
      <point x="463" y="347" type="line"/>
      <point x="463" y="679" type="line"/>
      <point x="755" y="679" type="line"/>
      <point x="755" y="698" type="line"/>
      <point x="-20" y="698" type="line"/>
      <point x="-20" y="679" type="line"/>
      <point x="120" y="679" type="line"/>
      <point x="120" y="422" type="line" smooth="yes"/>
      <point x="120" y="300"/>
      <point x="182" y="246"/>
      <point x="279" y="246" type="curve" smooth="yes"/>
      <point x="354" y="246"/>
      <point x="410" y="279"/>
      <point x="439" y="330" type="curve"/>
      <point x="442" y="330" type="line"/>
    </contour>
    <contour>
      <point x="141" y="418" type="curve" smooth="yes"/>
      <point x="141" y="679" type="line"/>
      <point x="442" y="679" type="line"/>
      <point x="442" y="404" type="line" smooth="yes"/>
      <point x="442" y="318"/>
      <point x="366" y="265"/>
      <point x="281" y="265" type="curve" smooth="yes"/>
      <point x="190" y="265"/>
      <point x="141" y="312"/>
    </contour>
  </outline>
</glyph>
<glyph name="dvPH_LA" format="1">
  <advance width="1500"/>
  <outline>
    <contour>
      <point x="442" y="0" type="line"/>
      <point x="463" y="0" type="line"/>
      <point x="463" y="248" type="line" smooth="yes"/>
      <point x="463" y="369"/>
      <point x="543" y="441"/>
      <point x="629" y="441" type="curve" smooth="yes"/>
      <point x="697" y="441"/>
      <point x="744" y="401"/>
      <point x="766" y="337" type="curve"/>
      <point x="761" y="317"/>
      <point x="759" y="295"/>
      <point x="759" y="271" type="curve" smooth="yes"/>
      <point x="759" y="112"/>
      <point x="820" y="29"/>
      <point x="972" y="14" type="curve"/>
      <point x="975" y="33" type="line"/>
      <point x="826" y="46"/>
      <point x="780" y="131"/>
      <point x="780" y="256" type="curve" smooth="yes"/>
      <point x="780" y="283" type="line" smooth="yes"/>
      <point x="780" y="381"/>
      <point x="834" y="445"/>
      <point x="909" y="445" type="curve" smooth="yes" name="hr01"/>
      <point x="993" y="445"/>
      <point x="1051" y="379"/>
      <point x="1052" y="273" type="curve" smooth="yes"/>
      <point x="1053" y="186" type="line"/>
      <point x="1073" y="186" type="line"/>
      <point x="1073" y="271" type="line" smooth="yes"/>
      <point x="1073" y="377"/>
      <point x="1129" y="445"/>
      <point x="1203" y="445" type="curve" smooth="yes"/>
      <point x="1292" y="445"/>
      <point x="1335" y="371"/>
      <point x="1335" y="321" type="curve"/>
      <point x="1335" y="0" type="line"/>
      <point x="1356" y="0" type="line"/>
      <point x="1356" y="679" type="line"/>
      <point x="1520" y="679" type="line"/>
      <point x="1520" y="698" type="line"/>
      <point x="-20" y="698" type="line"/>
      <point x="-20" y="679" type="line"/>
      <point x="120" y="679" type="line"/>
      <point x="120" y="422" type="line" smooth="yes"/>
      <point x="120" y="300"/>
      <point x="182" y="246"/>
      <point x="279" y="246" type="curve" smooth="yes"/>
      <point x="354" y="246"/>
      <point x="410" y="279"/>
      <point x="439" y="330" type="curve"/>
      <point x="442" y="330" type="line"/>
    </contour>
    <contour>
      <point x="1335" y="450" type="line"/>
      <point x="1336" y="385" type="line"/>
      <point x="1334" y="385" type="line"/>
      <point x="1315" y="422"/>
      <point x="1274" y="465"/>
      <point x="1203" y="465" type="curve" smooth="yes"/>
      <point x="1126" y="465"/>
      <point x="1079" y="408"/>
      <point x="1063" y="333" type="curve"/>
      <point x="1061" y="333" type="line"/>
      <point x="1046" y="409"/>
      <point x="993" y="465"/>
      <point x="908" y="465" type="curve" smooth="yes"/>
      <point x="849" y="465"/>
      <point x="799" y="432"/>
      <point x="774" y="367" type="curve"/>
      <point x="772" y="367" type="line"/>
      <point x="747" y="421"/>
      <point x="701" y="460"/>
      <point x="628" y="460" type="curve" smooth="yes" name="hr02"/>
      <point x="547" y="460"/>
      <point x="491" y="408"/>
      <point x="466" y="347" type="curve"/>
      <point x="463" y="347" type="line"/>
      <point x="463" y="679" type="line"/>
      <point x="1335" y="679" type="line"/>
    </contour>
    <contour>
      <point x="141" y="418" type="curve" smooth="yes"/>
      <point x="141" y="679" type="line"/>
      <point x="442" y="679" type="line"/>
      <point x="442" y="404" type="line" smooth="yes"/>
      <point x="442" y="318"/>
      <point x="366" y="265"/>
      <point x="281" y="265" type="curve" smooth="yes"/>
      <point x="190" y="265"/>
      <point x="141" y="312"/>
    </contour>
    <contour>
      <point x="1356.0" y="0.0" type="move" name="bottom_deva"/>
    </contour>
    <contour>
      <point x="1063.0" y="696.0" type="move" name="center_deva"/>
    </contour>
    <contour>
      <point x="1356.0" y="696.0" type="move" name="top_deva"/>
    </contour>
  </outline>
</glyph>
<glyph name="dvPH_PHA" format="1">
  <advance width="1517"/>
  <outline>
    <contour>
      <point x="442" y="0" type="line" name="hr00"/>
      <point x="463" y="0" type="line"/>
      <point x="463" y="248" type="line" smooth="yes"/>
      <point x="463" y="369"/>
      <point x="544" y="441"/>
      <point x="629" y="441" type="curve" smooth="yes"/>
      <point x="697" y="441"/>
      <point x="746" y="403"/>
      <point x="769" y="347" type="curve" smooth="yes"/>
      <point x="800" y="272"/>
      <point x="843" y="246"/>
      <point x="920" y="246" type="curve" smooth="yes"/>
      <point x="995" y="246"/>
      <point x="1051" y="279"/>
      <point x="1080" y="330" type="curve"/>
      <point x="1083" y="330" type="line"/>
      <point x="1083" y="0" type="line"/>
      <point x="1104" y="0" type="line"/>
      <point x="1104" y="272" type="line" smooth="yes"/>
      <point x="1104" y="391"/>
      <point x="1188" y="468"/>
      <point x="1285" y="468" type="curve" smooth="yes"/>
      <point x="1386" y="468"/>
      <point x="1428" y="395"/>
      <point x="1428" y="337" type="curve" smooth="yes"/>
      <point x="1428" y="323" type="line" smooth="yes"/>
      <point x="1428" y="249"/>
      <point x="1384" y="192"/>
      <point x="1281" y="171" type="curve"/>
      <point x="1289" y="151" type="line"/>
      <point x="1401" y="176"/>
      <point x="1450" y="239"/>
      <point x="1450" y="333" type="curve" smooth="yes"/>
      <point x="1450" y="417"/>
      <point x="1390" y="488"/>
      <point x="1286" y="488" type="curve" smooth="yes"/>
      <point x="1189" y="488"/>
      <point x="1134" y="429"/>
      <point x="1107" y="367" type="curve"/>
      <point x="1104" y="367" type="line"/>
      <point x="1104" y="679" type="line"/>
      <point x="1537" y="679" type="line"/>
      <point x="1537" y="698" type="line"/>
      <point x="-20" y="698" type="line"/>
      <point x="-20" y="679" type="line"/>
      <point x="120" y="679" type="line"/>
      <point x="120" y="422" type="line" smooth="yes"/>
      <point x="120" y="300"/>
      <point x="182" y="246"/>
      <point x="279" y="246" type="curve" smooth="yes"/>
      <point x="354" y="246"/>
      <point x="410" y="279"/>
      <point x="439" y="330" type="curve"/>
      <point x="442" y="330" type="line"/>
    </contour>
    <contour>
      <point x="141" y="418" type="curve" smooth="yes"/>
      <point x="141" y="679" type="line"/>
      <point x="442" y="679" type="line"/>
      <point x="442" y="404" type="line" smooth="yes"/>
      <point x="442" y="318"/>
      <point x="366" y="265"/>
      <point x="281" y="265" type="curve" smooth="yes"/>
      <point x="190" y="265"/>
      <point x="141" y="312"/>
    </contour>
    <contour>
      <point x="463" y="347" type="line"/>
      <point x="463" y="679" type="line"/>
      <point x="761" y="679" type="line"/>
      <point x="761" y="400" type="line"/>
      <point x="759" y="399" type="line"/>
      <point x="729" y="436"/>
      <point x="690" y="460"/>
      <point x="631" y="460" type="curve" smooth="yes"/>
      <point x="549" y="460"/>
      <point x="491" y="408"/>
      <point x="466" y="347" type="curve"/>
    </contour>
    <contour>
      <point x="782" y="418" type="curve" smooth="yes"/>
      <point x="782" y="679" type="line"/>
      <point x="1083" y="679" type="line"/>
      <point x="1083" y="404" type="line" smooth="yes"/>
      <point x="1083" y="318"/>
      <point x="1007" y="265"/>
      <point x="922" y="265" type="curve" smooth="yes"/>
      <point x="831" y="265"/>
      <point x="782" y="312"/>
    </contour>
    <contour>
      <point x="1104.0" y="0.0" type="move" name="bottom_deva"/>
    </contour>
    <contour>
      <point x="1093.0" y="696.0" type="move" name="center_deva"/>
    </contour>
    <contour>
      <point x="1104.0" y="696.0" type="move" name="top_deva"/>
    </contour>
  </outline>
</glyph>
<glyph name="dvP_CA" format="1">
  <advance width="988"/>
  <outline>
    <contour>
      <point x="-20" y="679" type="line" name="hr00"/>
      <point x="120" y="679" type="line"/>
      <point x="120" y="399" type="line" smooth="yes"/>
      <point x="120" y="277"/>
      <point x="192" y="223"/>
      <point x="289" y="223" type="curve" smooth="yes"/>
      <point x="364" y="223"/>
      <point x="418" y="252"/>
      <point x="452" y="295" type="curve"/>
      <point x="454" y="294" type="line"/>
      <point x="454" y="190"/>
      <point x="525" y="128"/>
      <point x="625" y="128" type="curve" smooth="yes"/>
      <point x="728" y="128"/>
      <point x="795" y="190"/>
      <point x="820" y="244" type="curve"/>
      <point x="823" y="244" type="line"/>
      <point x="823" y="0" type="line"/>
      <point x="844" y="0" type="line"/>
      <point x="844" y="679" type="line"/>
      <point x="1008" y="679" type="line"/>
      <point x="1008" y="698" type="line"/>
      <point x="-20" y="698" type="line"/>
    </contour>
    <contour>
      <point x="823" y="329" type="line" smooth="yes"/>
      <point x="823" y="223"/>
      <point x="730" y="147"/>
      <point x="625" y="147" type="curve" smooth="yes"/>
      <point x="540" y="147"/>
      <point x="474" y="196"/>
      <point x="474" y="292" type="curve" smooth="yes"/>
      <point x="474" y="366"/>
      <point x="535" y="435"/>
      <point x="619" y="435" type="curve" smooth="yes"/>
      <point x="639" y="435" type="line"/>
      <point x="639" y="452" type="line"/>
      <point x="352" y="452" type="line"/>
      <point x="352" y="433" type="line"/>
      <point x="457" y="433" type="line"/>
      <point x="541" y="434" type="line"/>
      <point x="541" y="432" type="line"/>
      <point x="504" y="414"/>
      <point x="477" y="387"/>
      <point x="462" y="347" type="curve" smooth="yes"/>
      <point x="437" y="279"/>
      <point x="367" y="242"/>
      <point x="291" y="242" type="curve" smooth="yes"/>
      <point x="200" y="242"/>
      <point x="141" y="289"/>
      <point x="141" y="395" type="curve" smooth="yes"/>
      <point x="141" y="679" type="line"/>
      <point x="823" y="679" type="line"/>
    </contour>
    <contour>
      <point x="844.0" y="0.0" type="move" name="bottom_deva"/>
    </contour>
    <contour>
      <point x="669.0" y="696.0" type="move" name="center_deva"/>
    </contour>
    <contour>
      <point x="844.0" y="696.0" type="move" name="top_deva"/>
    </contour>
  </outline>
</glyph>
<glyph name="dvP_C" format="1">
  <advance width="697"/>
  <outline>
    <contour>
      <point x="625" y="128" type="curve" smooth="yes" name="hr00"/>
      <point x="737" y="128"/>
      <point x="811" y="199"/>
      <point x="842" y="280" type="curve"/>
      <point x="828" y="295" type="line"/>
      <point x="802" y="217"/>
      <point x="729" y="147"/>
      <point x="625" y="147" type="curve" smooth="yes"/>
      <point x="540" y="147"/>
      <point x="474" y="196"/>
      <point x="474" y="289" type="curve" smooth="yes"/>
      <point x="474" y="374"/>
      <point x="543" y="435"/>
      <point x="617" y="435" type="curve" smooth="yes"/>
      <point x="639" y="435" type="line"/>
      <point x="639" y="452" type="line"/>
      <point x="352" y="452" type="line"/>
      <point x="352" y="433" type="line"/>
      <point x="465" y="433" type="line"/>
      <point x="541" y="434" type="line"/>
      <point x="541" y="432" type="line"/>
      <point x="501" y="414"/>
      <point x="476" y="382"/>
      <point x="461" y="344" type="curve" smooth="yes"/>
      <point x="437" y="282"/>
      <point x="372" y="242"/>
      <point x="290" y="242" type="curve" smooth="yes"/>
      <point x="199" y="242"/>
      <point x="141" y="289"/>
      <point x="141" y="395" type="curve" smooth="yes"/>
      <point x="141" y="679" type="line"/>
      <point x="758" y="679" type="line"/>
      <point x="758" y="698" type="line"/>
      <point x="-20" y="698" type="line"/>
      <point x="-20" y="679" type="line"/>
      <point x="120" y="679" type="line"/>
      <point x="120" y="399" type="line" smooth="yes"/>
      <point x="120" y="277"/>
      <point x="191" y="223"/>
      <point x="288" y="223" type="curve" smooth="yes"/>
      <point x="366" y="223"/>
      <point x="418" y="253"/>
      <point x="452" y="295" type="curve"/>
      <point x="454" y="294" type="line"/>
      <point x="453" y="198"/>
      <point x="519" y="128"/>
    </contour>
  </outline>
</glyph>
<glyph name="dvSH_MA" format="1">
  <advance width="1090"/>
  <outline>
    <contour>
      <point x="616" y="288" type="curve" smooth="yes" name="hr00"/>
      <point x="622" y="288"/>
      <point x="628" y="289"/>
      <point x="632" y="291" type="curve"/>
      <point x="632" y="335" type="line"/>
      <point x="925" y="335" type="line"/>
      <point x="925" y="0" type="line"/>
      <point x="946" y="0" type="line"/>
      <point x="946" y="679" type="line"/>
      <point x="1110" y="679" type="line"/>
      <point x="1110" y="698" type="line"/>
      <point x="494" y="698" type="line"/>
      <point x="494" y="679" type="line"/>
      <point x="611" y="679" type="line"/>
      <point x="611" y="353" type="line"/>
      <point x="595" y="351"/>
      <point x="586" y="339"/>
      <point x="586" y="321" type="curve" smooth="yes"/>
      <point x="586" y="302"/>
      <point x="595" y="288"/>
    </contour>
    <contour>
      <point x="396" y="3" type="line"/>
      <point x="410" y="17" type="line"/>
      <point x="149" y="276" type="line"/>
      <point x="122" y="303" type="line"/>
      <point x="123" y="304" type="line"/>
      <point x="194" y="304" type="line" smooth="yes"/>
      <point x="363" y="304"/>
      <point x="443" y="378"/>
      <point x="443" y="515" type="curve" smooth="yes"/>
      <point x="443" y="631"/>
      <point x="373" y="694"/>
      <point x="279" y="694" type="curve" smooth="yes"/>
      <point x="199" y="694"/>
      <point x="142" y="653"/>
      <point x="109" y="561" type="curve"/>
      <point x="130" y="553" type="line"/>
      <point x="160" y="642"/>
      <point x="212" y="674"/>
      <point x="281" y="674" type="curve" smooth="yes"/>
      <point x="361" y="674"/>
      <point x="421" y="617"/>
      <point x="421" y="526" type="curve" smooth="yes"/>
      <point x="421" y="503" type="line" smooth="yes"/>
      <point x="421" y="396"/>
      <point x="357" y="323"/>
      <point x="192" y="323" type="curve" smooth="yes"/>
      <point x="91" y="323" type="line"/>
      <point x="91" y="308" type="line"/>
    </contour>
    <contour>
      <point x="925" y="679" type="line"/>
      <point x="925" y="354" type="line"/>
      <point x="632" y="354" type="line"/>
      <point x="632" y="679" type="line"/>
    </contour>
    <contour>
      <point x="946.0" y="0.0" type="move" name="bottom_deva"/>
    </contour>
    <contour>
      <point x="777.0" y="696.0" type="move" name="center_deva"/>
    </contour>
    <contour>
      <point x="946.0" y="696.0" type="move" name="top_deva"/>
    </contour>
  </outline>
</glyph>
<glyph name="dvSS_NA" format="1">
  <advance width="619"/>
  <outline>
    <contour>
      <point x="188" y="-19" type="curve" smooth="yes" name="hr00"/>
      <point x="201" y="-19"/>
      <point x="210" y="-11"/>
      <point x="211" y="0" type="curve"/>
      <point x="174" y="37" type="line"/>
      <point x="363" y="233" type="line"/>
      <point x="451" y="328" type="line"/>
      <point x="454" y="328" type="line"/>
      <point x="454" y="0" type="line"/>
      <point x="475" y="0" type="line"/>
      <point x="475" y="679" type="line"/>
      <point x="639" y="679" type="line"/>
      <point x="639" y="698" type="line"/>
      <point x="-20" y="698" type="line"/>
      <point x="-20" y="679" type="line"/>
      <point x="124" y="679" type="line"/>
      <point x="124" y="426" type="line" smooth="yes"/>
      <point x="124" y="303"/>
      <point x="183" y="247"/>
      <point x="280" y="247" type="curve" smooth="yes"/>
      <point x="310" y="247"/>
      <point x="340" y="253"/>
      <point x="365" y="264" type="curve"/>
      <point x="367" y="261" type="line"/>
      <point x="311" y="204" type="line"/>
      <point x="158" y="48" type="line" smooth="yes"/>
      <point x="148" y="38"/>
      <point x="145" y="31"/>
      <point x="145" y="22" type="curve" smooth="yes"/>
      <point x="145" y="1"/>
      <point x="168" y="-19"/>
    </contour>
    <contour>
      <point x="422" y="325" type="line"/>
      <point x="384" y="376" type="line"/>
      <point x="207" y="621" type="line"/>
      <point x="166" y="678" type="line"/>
      <point x="166" y="679" type="line"/>
      <point x="454" y="679" type="line"/>
      <point x="454" y="414" type="line" smooth="yes"/>
      <point x="454" y="374"/>
      <point x="445" y="350"/>
      <point x="428" y="329" type="curve" smooth="yes"/>
      <point x="426" y="327"/>
      <point x="425" y="325"/>
      <point x="423" y="323" type="curve"/>
    </contour>
    <contour>
      <point x="145" y="420" type="curve" smooth="yes"/>
      <point x="145" y="677" type="line"/>
      <point x="146" y="677" type="line"/>
      <point x="192" y="612" type="line"/>
      <point x="370" y="365" type="line"/>
      <point x="409" y="314" type="line"/>
      <point x="411" y="311" type="line"/>
      <point x="383" y="285"/>
      <point x="342" y="265"/>
      <point x="281" y="265" type="curve" smooth="yes"/>
      <point x="189" y="265"/>
      <point x="145" y="317"/>
    </contour>
    <contour>
      <point x="475.0" y="0.0" type="move" name="bottom_deva"/>
    </contour>
    <contour>
      <point x="304.0" y="696.0" type="move" name="center_deva"/>
    </contour>
    <contour>
      <point x="475.0" y="696.0" type="move" name="top_deva"/>
    </contour>
  </outline>
</glyph>
<glyph name="dvSS_PA" format="1">
  <advance width="933"/>
  <outline>
    <contour>
      <point x="-20" y="679" type="line" name="hr00"/>
      <point x="124" y="679" type="line"/>
      <point x="124" y="428" type="line" smooth="yes"/>
      <point x="124" y="308"/>
      <point x="176" y="246"/>
      <point x="282" y="246" type="curve" smooth="yes"/>
      <point x="358" y="246"/>
      <point x="422" y="280"/>
      <point x="456" y="341" type="curve"/>
      <point x="459" y="341" type="line"/>
      <point x="480" y="278"/>
      <point x="534" y="246"/>
      <point x="605" y="246" type="curve" smooth="yes"/>
      <point x="680" y="246"/>
      <point x="736" y="279"/>
      <point x="765" y="330" type="curve"/>
      <point x="768" y="330" type="line"/>
      <point x="768" y="0" type="line"/>
      <point x="789" y="0" type="line"/>
      <point x="789" y="679" type="line"/>
      <point x="953" y="679" type="line"/>
      <point x="953" y="698" type="line"/>
      <point x="-20" y="698" type="line"/>
    </contour>
    <contour>
      <point x="446" y="422" type="line" smooth="yes"/>
      <point x="446" y="402"/>
      <point x="448" y="384"/>
      <point x="451" y="367" type="curve"/>
      <point x="443" y="351"/>
      <point x="434" y="337"/>
      <point x="423" y="324" type="curve"/>
      <point x="422" y="325" type="line"/>
      <point x="384" y="376" type="line"/>
      <point x="207" y="621" type="line"/>
      <point x="166" y="678" type="line"/>
      <point x="166" y="679" type="line"/>
      <point x="446" y="679" type="line"/>
    </contour>
    <contour>
      <point x="467" y="418" type="curve" smooth="yes"/>
      <point x="467" y="679" type="line"/>
      <point x="768" y="679" type="line"/>
      <point x="768" y="404" type="line" smooth="yes"/>
      <point x="768" y="318"/>
      <point x="692" y="265"/>
      <point x="607" y="265" type="curve" smooth="yes"/>
      <point x="516" y="265"/>
      <point x="467" y="312"/>
    </contour>
    <contour>
      <point x="145" y="422" type="curve" smooth="yes"/>
      <point x="145" y="677" type="line"/>
      <point x="146" y="677" type="line"/>
      <point x="192" y="612" type="line"/>
      <point x="370" y="365" type="line"/>
      <point x="409" y="314" type="line"/>
      <point x="411" y="312" type="line"/>
      <point x="381" y="284"/>
      <point x="339" y="265"/>
      <point x="282" y="265" type="curve" smooth="yes"/>
      <point x="185" y="265"/>
      <point x="145" y="320"/>
    </contour>
    <contour>
      <point x="789.0" y="0.0" type="move" name="bottom_deva"/>
    </contour>
    <contour>
      <point x="624.0" y="696.0" type="move" name="center_deva"/>
    </contour>
    <contour>
      <point x="789.0" y="696.0" type="move" name="top_deva"/>
    </contour>
  </outline>
</glyph>
<glyph name="dvSS_R" format="1">
  <advance width="327"/>
  <outline>
    <contour>
      <point x="117" y="-20" type="line" name="hr00"/>
      <point x="362" y="232" type="line"/>
      <point x="428" y="304" type="line" smooth="yes"/>
      <point x="446" y="323"/>
      <point x="458" y="341"/>
      <point x="468" y="365" type="curve"/>
      <point x="455" y="377" type="line"/>
      <point x="447" y="356"/>
      <point x="436" y="339"/>
      <point x="423" y="324" type="curve"/>
      <point x="422" y="325" type="line"/>
      <point x="384" y="376" type="line"/>
      <point x="207" y="621" type="line"/>
      <point x="166" y="678" type="line"/>
      <point x="166" y="679" type="line"/>
      <point x="380" y="679" type="line"/>
      <point x="380" y="698" type="line"/>
      <point x="-20" y="698" type="line"/>
      <point x="-20" y="679" type="line"/>
      <point x="124" y="679" type="line"/>
      <point x="124" y="428" type="line" smooth="yes"/>
      <point x="124" y="308"/>
      <point x="176" y="247"/>
      <point x="282" y="247" type="curve" smooth="yes"/>
      <point x="311" y="247"/>
      <point x="342" y="254"/>
      <point x="364" y="264" type="curve"/>
      <point x="366" y="261" type="line"/>
      <point x="312" y="207" type="line"/>
      <point x="103" y="-7" type="line"/>
    </contour>
    <contour>
      <point x="145" y="422" type="curve" smooth="yes"/>
      <point x="145" y="677" type="line"/>
      <point x="146" y="677" type="line"/>
      <point x="192" y="612" type="line"/>
      <point x="370" y="365" type="line"/>
      <point x="409" y="314" type="line"/>
      <point x="411" y="312" type="line"/>
      <point x="382" y="284"/>
      <point x="339" y="265"/>
      <point x="282" y="265" type="curve" smooth="yes"/>
      <point x="185" y="265"/>
      <point x="145" y="320"/>
    </contour>
  </outline>
</glyph>
<glyph name="dvSS_YA" format="1">
  <advance width="1045"/>
  <outline>
    <contour>
      <point x="-20" y="679" type="line" name="hr00"/>
      <point x="124" y="679" type="line"/>
      <point x="124" y="428" type="line" smooth="yes"/>
      <point x="124" y="308"/>
      <point x="176" y="246"/>
      <point x="282" y="246" type="curve" smooth="yes"/>
      <point x="355" y="246"/>
      <point x="415" y="277"/>
      <point x="452" y="334" type="curve"/>
      <point x="455" y="334" type="line"/>
      <point x="463" y="232"/>
      <point x="532" y="162"/>
      <point x="659" y="162" type="curve" smooth="yes"/>
      <point x="777" y="162"/>
      <point x="845" y="218"/>
      <point x="877" y="266" type="curve"/>
      <point x="880" y="266" type="line"/>
      <point x="880" y="0" type="line"/>
      <point x="901" y="0" type="line"/>
      <point x="901" y="679" type="line"/>
      <point x="1065" y="679" type="line"/>
      <point x="1065" y="698" type="line"/>
      <point x="-20" y="698" type="line"/>
    </contour>
    <contour>
      <point x="622" y="540" type="line" smooth="yes"/>
      <point x="622" y="455"/>
      <point x="595" y="426"/>
      <point x="504" y="426" type="curve" smooth="yes"/>
      <point x="453" y="426" type="line"/>
      <point x="453" y="370" type="line"/>
      <point x="445" y="352"/>
      <point x="434" y="337"/>
      <point x="423" y="324" type="curve"/>
      <point x="422" y="325" type="line"/>
      <point x="384" y="376" type="line"/>
      <point x="207" y="621" type="line"/>
      <point x="166" y="678" type="line"/>
      <point x="166" y="679" type="line"/>
      <point x="622" y="679" type="line"/>
    </contour>
    <contour>
      <point x="659" y="181" type="curve" smooth="yes"/>
      <point x="537" y="181"/>
      <point x="473" y="248"/>
      <point x="473" y="356" type="curve" smooth="yes"/>
      <point x="473" y="407" type="line"/>
      <point x="507" y="407" type="line" smooth="yes"/>
      <point x="604" y="407"/>
      <point x="643" y="444"/>
      <point x="643" y="536" type="curve" smooth="yes"/>
      <point x="643" y="679" type="line"/>
      <point x="880" y="679" type="line"/>
      <point x="880" y="340" type="line" smooth="yes"/>
      <point x="880" y="262"/>
      <point x="793" y="181"/>
    </contour>
    <contour>
      <point x="145" y="422" type="curve" smooth="yes"/>
      <point x="145" y="677" type="line"/>
      <point x="146" y="677" type="line"/>
      <point x="192" y="612" type="line"/>
      <point x="370" y="365" type="line"/>
      <point x="409" y="314" type="line"/>
      <point x="411" y="312" type="line"/>
      <point x="381" y="284"/>
      <point x="339" y="265"/>
      <point x="282" y="265" type="curve" smooth="yes"/>
      <point x="185" y="265"/>
      <point x="145" y="320"/>
    </contour>
    <contour>
      <point x="901.0" y="0.0" type="move" name="bottom_deva"/>
    </contour>
    <contour>
      <point x="764.0" y="696.0" type="move" name="center_deva"/>
    </contour>
    <contour>
      <point x="901.0" y="696.0" type="move" name="top_deva"/>
    </contour>
  </outline>
</glyph>
<glyph name="dvS_LA" format="1">
  <advance width="1244"/>
  <outline>
    <contour>
      <point x="285" y="-2" type="line" name="hr00"/>
      <point x="301" y="10" type="line"/>
      <point x="154" y="239" type="line"/>
      <point x="91" y="335" type="line"/>
      <point x="91" y="337" type="line"/>
      <point x="509" y="337" type="line"/>
      <point x="505" y="317"/>
      <point x="503" y="295"/>
      <point x="503" y="271" type="curve" smooth="yes"/>
      <point x="503" y="112"/>
      <point x="564" y="29"/>
      <point x="716" y="14" type="curve"/>
      <point x="719" y="33" type="line"/>
      <point x="570" y="46"/>
      <point x="524" y="131"/>
      <point x="524" y="256" type="curve" smooth="yes"/>
      <point x="524" y="283" type="line" smooth="yes"/>
      <point x="524" y="381"/>
      <point x="578" y="445"/>
      <point x="653" y="445" type="curve" smooth="yes"/>
      <point x="737" y="445"/>
      <point x="796" y="379"/>
      <point x="796" y="273" type="curve" smooth="yes"/>
      <point x="796" y="186" type="line"/>
      <point x="817" y="186" type="line"/>
      <point x="817" y="271" type="line" smooth="yes"/>
      <point x="817" y="377"/>
      <point x="873" y="445"/>
      <point x="947" y="445" type="curve" smooth="yes"/>
      <point x="1036" y="445"/>
      <point x="1079" y="371"/>
      <point x="1079" y="321" type="curve" smooth="yes"/>
      <point x="1079" y="0" type="line"/>
      <point x="1100" y="0" type="line"/>
      <point x="1100" y="679" type="line"/>
      <point x="1264" y="679" type="line"/>
      <point x="1264" y="698" type="line"/>
      <point x="-20" y="698" type="line"/>
      <point x="-20" y="679" type="line"/>
      <point x="239" y="679" type="line"/>
      <point x="239" y="511" type="line" smooth="yes"/>
      <point x="239" y="405"/>
      <point x="175" y="357"/>
      <point x="67" y="357" type="curve" smooth="yes"/>
      <point x="65" y="357" type="line"/>
      <point x="65" y="339" type="line"/>
    </contour>
    <contour>
      <point x="1079" y="450" type="line"/>
      <point x="1080" y="385" type="line"/>
      <point x="1078" y="385" type="line"/>
      <point x="1059" y="422"/>
      <point x="1018" y="465"/>
      <point x="947" y="465" type="curve" smooth="yes"/>
      <point x="870" y="465"/>
      <point x="823" y="408"/>
      <point x="807" y="333" type="curve"/>
      <point x="805" y="333" type="line"/>
      <point x="790" y="409"/>
      <point x="737" y="465"/>
      <point x="652" y="465" type="curve" smooth="yes"/>
      <point x="587" y="465"/>
      <point x="537" y="426"/>
      <point x="514" y="356" type="curve"/>
      <point x="282" y="356" type="line"/>
      <point x="160" y="355" type="line"/>
      <point x="160" y="356" type="line"/>
      <point x="217" y="375"/>
      <point x="260" y="420"/>
      <point x="260" y="516" type="curve" smooth="yes"/>
      <point x="260" y="679" type="line"/>
      <point x="1079" y="679" type="line"/>
    </contour>
    <contour>
      <point x="1100.0" y="0.0" type="move" name="bottom_deva"/>
    </contour>
    <contour>
      <point x="807.0" y="696.0" type="move" name="center_deva"/>
    </contour>
    <contour>
      <point x="1100.0" y="696.0" type="move" name="top_deva"/>
    </contour>
  </outline>
</glyph>
<glyph name="dvTH_NA" format="1">
  <advance width="689"/>
  <outline>
    <contour>
      <point x="176" y="-60" type="curve" smooth="yes"/>
      <point x="187" y="-60"/>
      <point x="195" y="-54"/>
      <point x="198" y="-45" type="curve"/>
      <point x="167" y="-2" type="line"/>
      <point x="432" y="179" type="line" smooth="yes"/>
      <point x="482" y="213"/>
      <point x="504" y="235"/>
      <point x="521" y="260" type="curve"/>
      <point x="524" y="260" type="line"/>
      <point x="524" y="0" type="line"/>
      <point x="545" y="0" type="line"/>
      <point x="545" y="679" type="line"/>
      <point x="709" y="679" type="line"/>
      <point x="709" y="698" type="line"/>
      <point x="524" y="698" type="line"/>
      <point x="524" y="339" type="line" smooth="yes"/>
      <point x="524" y="245"/>
      <point x="427" y="175"/>
      <point x="298" y="175" type="curve" smooth="yes"/>
      <point x="172" y="175"/>
      <point x="109" y="241"/>
      <point x="109" y="354" type="curve" smooth="yes"/>
      <point x="109" y="420" type="line"/>
      <point x="196" y="420" type="line" smooth="yes"/>
      <point x="294" y="420"/>
      <point x="344" y="471"/>
      <point x="344" y="567" type="curve" smooth="yes"/>
      <point x="344" y="655"/>
      <point x="292" y="699"/>
      <point x="224" y="699" type="curve" smooth="yes" name="hr01"/>
      <point x="165" y="699"/>
      <point x="123" y="665"/>
      <point x="104" y="602" type="curve"/>
      <point x="124" y="596" type="line"/>
      <point x="140" y="654"/>
      <point x="177" y="680"/>
      <point x="225" y="680" type="curve" smooth="yes"/>
      <point x="279" y="680"/>
      <point x="322" y="642"/>
      <point x="322" y="572" type="curve" smooth="yes"/>
      <point x="322" y="559" type="line" smooth="yes"/>
      <point x="322" y="487"/>
      <point x="287" y="439"/>
      <point x="191" y="439" type="curve" smooth="yes"/>
      <point x="88" y="439" type="line"/>
      <point x="88" y="358" type="line" smooth="yes"/>
      <point x="88" y="226"/>
      <point x="165" y="156"/>
      <point x="296" y="156" type="curve" smooth="yes"/>
      <point x="326" y="156"/>
      <point x="353" y="160"/>
      <point x="378" y="166" type="curve"/>
      <point x="379" y="163" type="line"/>
      <point x="304" y="114" type="line"/>
      <point x="152" y="13" type="line" smooth="yes"/>
      <point x="138" y="4"/>
      <point x="134" y="-3"/>
      <point x="134" y="-15" type="curve" smooth="yes"/>
      <point x="134" y="-37"/>
      <point x="155" y="-60"/>
    </contour>
    <contour>
      <point x="545.0" y="0.0" type="move" name="bottom_deva"/>
    </contour>
    <contour>
      <point x="419.0" y="696.0" type="move" name="center_deva"/>
    </contour>
    <contour>
      <point x="545.0" y="696.0" type="move" name="top_deva"/>
    </contour>
  </outline>
</glyph>
<glyph name="dvTH_VA" format="1">
  <advance width="1031"/>
  <outline>
    <contour>
      <point x="494" y="679" type="line"/>
      <point x="866" y="679" type="line"/>
      <point x="866" y="402" type="line"/>
      <point x="863" y="402" type="line"/>
      <point x="833" y="442"/>
      <point x="774" y="490"/>
      <point x="673" y="490" type="curve" smooth="yes"/>
      <point x="565" y="490"/>
      <point x="493" y="420"/>
      <point x="493" y="313" type="curve" smooth="yes"/>
      <point x="493" y="293"/>
      <point x="495" y="275"/>
      <point x="500" y="258" type="curve"/>
      <point x="457" y="205"/>
      <point x="386" y="175"/>
      <point x="298" y="175" type="curve" smooth="yes"/>
      <point x="167" y="175"/>
      <point x="109" y="246"/>
      <point x="109" y="353" type="curve" smooth="yes"/>
      <point x="109" y="420" type="line"/>
      <point x="198" y="420" type="line" smooth="yes"/>
      <point x="298" y="420"/>
      <point x="344" y="476"/>
      <point x="344" y="567" type="curve" smooth="yes"/>
      <point x="344" y="650"/>
      <point x="297" y="699"/>
      <point x="224" y="699" type="curve" smooth="yes" name="hr01"/>
      <point x="168" y="699"/>
      <point x="124" y="668"/>
      <point x="104" y="602" type="curve"/>
      <point x="124" y="596" type="line"/>
      <point x="140" y="655"/>
      <point x="178" y="680"/>
      <point x="225" y="680" type="curve" smooth="yes"/>
      <point x="281" y="680"/>
      <point x="322" y="640"/>
      <point x="322" y="572" type="curve" smooth="yes"/>
      <point x="322" y="559" type="line" smooth="yes"/>
      <point x="322" y="487"/>
      <point x="286" y="439"/>
      <point x="193" y="439" type="curve" smooth="yes"/>
      <point x="88" y="439" type="line"/>
      <point x="88" y="358" type="line" smooth="yes"/>
      <point x="88" y="227"/>
      <point x="164" y="156"/>
      <point x="296" y="156" type="curve" smooth="yes"/>
      <point x="403" y="156"/>
      <point x="465" y="193"/>
      <point x="507" y="236" type="curve"/>
      <point x="509" y="236" type="line"/>
      <point x="536" y="174"/>
      <point x="602" y="136"/>
      <point x="680" y="136" type="curve" smooth="yes"/>
      <point x="778" y="136"/>
      <point x="838" y="184"/>
      <point x="863" y="223" type="curve"/>
      <point x="866" y="223" type="line"/>
      <point x="866" y="0" type="line"/>
      <point x="887" y="0" type="line"/>
      <point x="887" y="679" type="line" name="hr02"/>
      <point x="1051" y="679" type="line"/>
      <point x="1051" y="698" type="line"/>
      <point x="494" y="698" type="line"/>
    </contour>
    <contour>
      <point x="681" y="155" type="curve" smooth="yes"/>
      <point x="582" y="155"/>
      <point x="514" y="218"/>
      <point x="514" y="301" type="curve" smooth="yes"/>
      <point x="514" y="325" type="line" smooth="yes"/>
      <point x="514" y="405"/>
      <point x="576" y="471"/>
      <point x="675" y="471" type="curve" smooth="yes"/>
      <point x="782" y="471"/>
      <point x="867" y="400"/>
      <point x="867" y="340" type="curve" smooth="yes"/>
      <point x="867" y="289" type="line" smooth="yes"/>
      <point x="867" y="222"/>
      <point x="787" y="155"/>
    </contour>
    <contour>
      <point x="887.0" y="0.0" type="move" name="bottom_deva"/>
    </contour>
    <contour>
      <point x="700.0" y="696.0" type="move" name="center_deva"/>
    </contour>
    <contour>
      <point x="887.0" y="696.0" type="move" name="top_deva"/>
    </contour>
  </outline>
</glyph>
<glyph name="dvTT_TTA" format="1">
  <advance width="575"/>
  <outline>
    <contour>
      <point x="311" y="147" type="curve" smooth="yes"/>
      <point x="332" y="147"/>
      <point x="352" y="148"/>
      <point x="370" y="151" type="curve"/>
      <point x="370" y="20" type="line"/>
      <point x="282" y="20" type="line" smooth="yes"/>
      <point x="175" y="20"/>
      <point x="111" y="-38"/>
      <point x="111" y="-130" type="curve" smooth="yes"/>
      <point x="111" y="-229"/>
      <point x="183" y="-289"/>
      <point x="295" y="-289" type="curve" smooth="yes"/>
      <point x="387" y="-289"/>
      <point x="441" y="-258"/>
      <point x="488" y="-214" type="curve"/>
      <point x="476" y="-200" type="line"/>
      <point x="429" y="-244"/>
      <point x="377" y="-271"/>
      <point x="297" y="-271" type="curve" smooth="yes"/>
      <point x="191" y="-271"/>
      <point x="132" y="-216"/>
      <point x="132" y="-138" type="curve" smooth="yes"/>
      <point x="132" y="-123" type="line" smooth="yes"/>
      <point x="132" y="-54"/>
      <point x="185" y="1"/>
      <point x="284" y="1" type="curve" smooth="yes"/>
      <point x="391" y="1" type="line"/>
      <point x="391" y="155" type="line"/>
      <point x="444" y="168"/>
      <point x="482" y="194"/>
      <point x="516" y="229" type="curve"/>
      <point x="503" y="243" type="line"/>
      <point x="455" y="194"/>
      <point x="399" y="166"/>
      <point x="314" y="166" type="curve" smooth="yes"/>
      <point x="192" y="166"/>
      <point x="125" y="227"/>
      <point x="125" y="315" type="curve" smooth="yes" name="hr01"/>
      <point x="125" y="330" type="line" smooth="yes"/>
      <point x="125" y="412"/>
      <point x="178" y="475"/>
      <point x="314" y="475" type="curve" smooth="yes"/>
      <point x="418" y="475" type="line"/>
      <point x="418" y="679" type="line"/>
      <point x="595" y="679" type="line"/>
      <point x="595" y="698" type="line"/>
      <point x="-20" y="698" type="line"/>
      <point x="-20" y="679" type="line"/>
      <point x="397" y="679" type="line"/>
      <point x="397" y="495" type="line"/>
      <point x="312" y="495" type="line" smooth="yes"/>
      <point x="169" y="495"/>
      <point x="103" y="430"/>
      <point x="103" y="323" type="curve" smooth="yes"/>
      <point x="103" y="214"/>
      <point x="183" y="147"/>
    </contour>
    <contour>
      <point x="328.0" y="-287.0" type="move" name="bottom_deva"/>
    </contour>
    <contour>
      <point x="380.0" y="696.0" type="move" name="center_deva"/>
    </contour>
    <contour>
      <point x="418.0" y="696.0" type="move" name="top_deva"/>
    </contour>
  </outline>
</glyph>
